G04 Layer_Color=65535*
%FSLAX43Y43*%
%MOMM*%
G71*
G01*
G75*
%ADD54C,0.200*%
%ADD61C,0.150*%
%ADD62C,0.250*%
%ADD84C,0.100*%
%ADD85C,0.102*%
%ADD86C,0.154*%
%ADD87C,0.120*%
D54*
X17050Y12575D02*
G03*
X17050Y12575I-100J0D01*
G01*
X17225Y8950D02*
X17800D01*
X20100D02*
X20675D01*
X20100Y12400D02*
X20675D01*
X17225Y12200D02*
Y12400D01*
X17800D01*
X17225Y8950D02*
Y9150D01*
X20675Y8950D02*
Y9150D01*
Y12200D02*
Y12400D01*
X21440Y7975D02*
X21775D01*
Y7640D02*
Y7975D01*
X15525D02*
X15860D01*
X15525Y7640D02*
Y7975D01*
Y1725D02*
Y2060D01*
Y1725D02*
X15860D01*
X21440D02*
X21775D01*
Y2060D01*
X23800Y19400D02*
Y18400D01*
X23134Y19400D01*
Y18400D01*
X2000Y19525D02*
X1000D01*
Y18859D01*
X2000Y18025D02*
Y18359D01*
X1833Y18525D01*
X1167D01*
X1000Y18359D01*
Y18025D01*
X1167Y17859D01*
X1833D01*
X2000Y18025D01*
X1000Y17526D02*
X1666D01*
X2000Y17192D01*
X1666Y16859D01*
X1000D01*
X1500D01*
Y17526D01*
X2000Y16526D02*
X1000D01*
Y16026D01*
X1167Y15860D01*
X1833D01*
X2000Y16026D01*
Y16526D01*
X11225Y23875D02*
Y24825D01*
X10592D01*
D61*
X7950Y9450D02*
X11650D01*
X7950Y16150D02*
X11650D01*
Y9450D02*
Y16150D01*
X7950Y9450D02*
Y16150D01*
X11600Y20750D02*
Y24725D01*
Y20750D02*
X14775D01*
Y24725D01*
X11600D02*
X14775D01*
X23550Y6574D02*
Y7025D01*
X9100Y4374D02*
Y4825D01*
X11750Y625D02*
Y1375D01*
X8600Y1700D02*
X10900D01*
X8600Y300D02*
X10900D01*
X10675Y4375D02*
Y4826D01*
X22900Y700D02*
Y1151D01*
X9800Y21300D02*
Y23600D01*
X11200Y21300D02*
Y23600D01*
X10125Y20450D02*
X10875D01*
X24050Y10975D02*
X24501D01*
X13975Y4175D02*
Y5525D01*
X11875Y4175D02*
Y5525D01*
X5275Y21750D02*
Y23650D01*
X3775Y21750D02*
Y23650D01*
X5075D02*
X5275D01*
X5075Y21750D02*
X5275D01*
X3775Y23650D02*
X3975D01*
X3775Y21750D02*
X3975D01*
X3785Y23180D02*
X5265D01*
X22650Y8100D02*
X23101D01*
X21350Y9175D02*
X21801D01*
X22175Y13650D02*
X22626D01*
X15275Y16800D02*
Y17375D01*
Y16800D02*
X21975D01*
Y17375D01*
X23725Y8125D02*
X24176D01*
X14125Y2624D02*
Y3075D01*
X14100Y1100D02*
X14551D01*
X13175Y7999D02*
Y8450D01*
X13307Y6649D02*
Y7100D01*
X12599Y2475D02*
X13050D01*
X23175Y1700D02*
Y2151D01*
X23800Y3225D02*
X24251D01*
X23600Y5525D02*
Y5976D01*
X7800Y21300D02*
Y23600D01*
X9200Y21300D02*
Y23600D01*
X8125Y20450D02*
X8875D01*
X23775Y13674D02*
Y14125D01*
X12900Y10399D02*
Y10850D01*
X6500Y3475D02*
Y3926D01*
X11549Y2425D02*
X12000D01*
X22750Y3225D02*
X23201D01*
X23225Y9200D02*
Y9651D01*
X23600Y4449D02*
Y4900D01*
X24050Y12600D02*
X24501D01*
X14650Y14475D02*
X15101D01*
X6750Y8899D02*
Y9350D01*
X14700Y12974D02*
Y13425D01*
X12900Y9075D02*
Y9526D01*
X5412Y4200D02*
Y15858D01*
Y2325D02*
Y3200D01*
Y650D02*
Y900D01*
X14925Y1425D02*
X15775D01*
Y135D02*
Y1425D01*
X14925Y135D02*
Y1425D01*
Y135D02*
X15775D01*
X6625Y19825D02*
X11375D01*
X6600Y17400D02*
X11350D01*
X22300Y16200D02*
Y16700D01*
X22550D01*
X22633Y16617D01*
Y16450D01*
X22550Y16367D01*
X22300D01*
X22467D02*
X22633Y16200D01*
X22800Y16700D02*
X23133D01*
Y16617D01*
X22800Y16283D01*
Y16200D01*
X4558Y16600D02*
X4225D01*
Y16350D01*
X4392D01*
X4225D01*
Y16100D01*
X4725Y16600D02*
Y16183D01*
X4808Y16100D01*
X4975D01*
X5058Y16183D01*
Y16600D01*
X5225Y16100D02*
X5391D01*
X5308D01*
Y16600D01*
X5225Y16517D01*
X5675Y8550D02*
Y8467D01*
X5842Y8300D01*
X6008Y8467D01*
Y8550D01*
X5842Y8300D02*
Y8050D01*
X6175D02*
X6341D01*
X6258D01*
Y8550D01*
X6175Y8467D01*
X17400Y16350D02*
X17800D01*
X17600D01*
Y15750D01*
X18000D02*
X18200D01*
X18100D01*
Y16350D01*
X18000Y16250D01*
X9150Y20925D02*
Y20425D01*
X9400D01*
X9483Y20508D01*
Y20842D01*
X9400Y20925D01*
X9150D01*
X9900Y20425D02*
Y20925D01*
X9650Y20675D01*
X9983D01*
D62*
X6725Y16250D02*
G03*
X6725Y16250I-125J0D01*
G01*
X11725Y3825D02*
G03*
X11725Y3825I-50J0D01*
G01*
X15675Y16325D02*
G03*
X15675Y16325I-125J0D01*
G01*
X22275Y2125D02*
G03*
X22275Y2125I-50J0D01*
G01*
X6475Y5000D02*
G03*
X6475Y5000I-125J0D01*
G01*
D84*
X11950Y200D02*
X13050D01*
X8975Y2450D02*
Y2901D01*
X9625Y2475D02*
Y2875D01*
X21075Y10050D02*
X21225D01*
X21075Y12750D02*
X21225D01*
X23325Y10050D02*
X23475D01*
X23325Y12750D02*
X23475D01*
Y10050D02*
Y12750D01*
X21075Y10050D02*
Y12750D01*
X14925Y20142D02*
Y20308D01*
Y20225D01*
X14508D01*
X14425Y20308D01*
Y20392D01*
X14508Y20475D01*
X14425Y19642D02*
Y19975D01*
X14758Y19642D01*
X14842D01*
X14925Y19725D01*
Y19892D01*
X14842Y19975D01*
X24825Y6450D02*
X24375D01*
Y6675D01*
X24450Y6750D01*
X24600D01*
X24675Y6675D01*
Y6450D01*
Y6600D02*
X24825Y6750D01*
X24450Y6900D02*
X24375Y6975D01*
Y7125D01*
X24450Y7200D01*
X24525D01*
X24600Y7125D01*
X24675Y7200D01*
X24750D01*
X24825Y7125D01*
Y6975D01*
X24750Y6900D01*
X24675D01*
X24600Y6975D01*
X24525Y6900D01*
X24450D01*
X24600Y6975D02*
Y7125D01*
X18375Y9100D02*
Y8683D01*
X18458Y8600D01*
X18625D01*
X18708Y8683D01*
Y9100D01*
X19208Y8600D02*
X18875D01*
X19208Y8933D01*
Y9017D01*
X19125Y9100D01*
X18958D01*
X18875Y9017D01*
X8375Y3750D02*
Y4250D01*
X8625D01*
X8708Y4167D01*
Y4000D01*
X8625Y3917D01*
X8375D01*
X8542D02*
X8708Y3750D01*
X8875D02*
X9041D01*
X8958D01*
Y4250D01*
X8875Y4167D01*
X9291Y3833D02*
X9375Y3750D01*
X9541D01*
X9625Y3833D01*
Y4167D01*
X9541Y4250D01*
X9375D01*
X9291Y4167D01*
Y4083D01*
X9375Y4000D01*
X9625D01*
X9350Y2250D02*
Y1850D01*
X9550D01*
X9617Y1917D01*
Y2183D01*
X9550Y2250D01*
X9350D01*
X10016D02*
X9750D01*
Y2050D01*
X9883Y2117D01*
X9950D01*
X10016Y2050D01*
Y1917D01*
X9950Y1850D01*
X9817D01*
X9750Y1917D01*
X11008Y5367D02*
X10925Y5450D01*
X10758D01*
X10675Y5367D01*
Y5033D01*
X10758Y4950D01*
X10925D01*
X11008Y5033D01*
X11175D02*
X11258Y4950D01*
X11425D01*
X11508Y5033D01*
Y5367D01*
X11425Y5450D01*
X11258D01*
X11175Y5367D01*
Y5283D01*
X11258Y5200D01*
X11508D01*
X6475Y1925D02*
X5975D01*
Y2175D01*
X6058Y2258D01*
X6225D01*
X6308Y2175D01*
Y1925D01*
Y2092D02*
X6475Y2258D01*
Y2758D02*
Y2425D01*
X6142Y2758D01*
X6058D01*
X5975Y2675D01*
Y2508D01*
X6058Y2425D01*
Y2925D02*
X5975Y3008D01*
Y3175D01*
X6058Y3258D01*
X6392D01*
X6475Y3175D01*
Y3008D01*
X6392Y2925D01*
X6058D01*
X13533Y675D02*
X13367D01*
X13450D01*
Y258D01*
X13367Y175D01*
X13283D01*
X13200Y258D01*
X13700Y175D02*
X13866D01*
X13783D01*
Y675D01*
X13700Y592D01*
X22892Y483D02*
X22825Y550D01*
X22692D01*
X22625Y483D01*
Y217D01*
X22692Y150D01*
X22825D01*
X22892Y217D01*
X23025Y550D02*
X23291D01*
Y483D01*
X23025Y217D01*
Y150D01*
X12075Y16000D02*
Y16500D01*
X12325D01*
X12408Y16417D01*
Y16250D01*
X12325Y16167D01*
X12075D01*
X12242D02*
X12408Y16000D01*
X12575D02*
X12741D01*
X12658D01*
Y16500D01*
X12575Y16417D01*
X12991D02*
X13075Y16500D01*
X13241D01*
X13325Y16417D01*
Y16333D01*
X13241Y16250D01*
X13325Y16167D01*
Y16083D01*
X13241Y16000D01*
X13075D01*
X12991Y16083D01*
Y16167D01*
X13075Y16250D01*
X12991Y16333D01*
Y16417D01*
X13075Y16250D02*
X13241D01*
X7550Y8725D02*
Y9225D01*
X7800D01*
X7883Y9142D01*
Y8975D01*
X7800Y8892D01*
X7550D01*
X7717D02*
X7883Y8725D01*
X8050D02*
X8216D01*
X8133D01*
Y9225D01*
X8050Y9142D01*
X8800Y9225D02*
X8633Y9142D01*
X8466Y8975D01*
Y8808D01*
X8550Y8725D01*
X8716D01*
X8800Y8808D01*
Y8892D01*
X8716Y8975D01*
X8466D01*
X14425Y13625D02*
X13925D01*
Y13875D01*
X14008Y13958D01*
X14175D01*
X14258Y13875D01*
Y13625D01*
Y13792D02*
X14425Y13958D01*
Y14125D02*
Y14291D01*
Y14208D01*
X13925D01*
X14008Y14125D01*
X13925Y14875D02*
Y14541D01*
X14175D01*
X14092Y14708D01*
Y14791D01*
X14175Y14875D01*
X14342D01*
X14425Y14791D01*
Y14625D01*
X14342Y14541D01*
X19925Y12775D02*
X19425D01*
Y13025D01*
X19508Y13108D01*
X19675D01*
X19758Y13025D01*
Y12775D01*
Y12942D02*
X19925Y13108D01*
Y13275D02*
Y13441D01*
Y13358D01*
X19425D01*
X19508Y13275D01*
X19925Y14025D02*
Y13691D01*
X19592Y14025D01*
X19508D01*
X19425Y13941D01*
Y13775D01*
X19508Y13691D01*
X23950Y12275D02*
X23600D01*
Y12450D01*
X23658Y12508D01*
X23775D01*
X23833Y12450D01*
Y12275D01*
Y12392D02*
X23950Y12508D01*
X23892Y12625D02*
X23950Y12683D01*
Y12800D01*
X23892Y12858D01*
X23658D01*
X23600Y12800D01*
Y12683D01*
X23658Y12625D01*
X23717D01*
X23775Y12683D01*
Y12858D01*
X22700Y9750D02*
Y10150D01*
X22900D01*
X22967Y10083D01*
Y9950D01*
X22900Y9883D01*
X22700D01*
X22833D02*
X22967Y9750D01*
X23100D02*
X23233D01*
X23167D01*
Y10150D01*
X23100Y10083D01*
X23433D02*
X23500Y10150D01*
X23633D01*
X23700Y10083D01*
Y9817D01*
X23633Y9750D01*
X23500D01*
X23433Y9817D01*
Y10083D01*
X22625Y2725D02*
X22225D01*
Y2925D01*
X22292Y2992D01*
X22425D01*
X22492Y2925D01*
Y2725D01*
Y2858D02*
X22625Y2992D01*
Y3391D02*
Y3125D01*
X22358Y3391D01*
X22292D01*
X22225Y3325D01*
Y3192D01*
X22292Y3125D01*
X10400Y1850D02*
Y2300D01*
X10625D01*
X10700Y2225D01*
Y2075D01*
X10625Y2000D01*
X10400D01*
X10550D02*
X10700Y1850D01*
X10850D02*
X11000D01*
X10925D01*
Y2300D01*
X10850Y2225D01*
X5875Y20525D02*
Y21025D01*
X6125D01*
X6208Y20942D01*
Y20775D01*
X6125Y20692D01*
X5875D01*
X6042D02*
X6208Y20525D01*
X6708Y21025D02*
X6375D01*
Y20775D01*
X6541Y20858D01*
X6625D01*
X6708Y20775D01*
Y20608D01*
X6625Y20525D01*
X6458D01*
X6375Y20608D01*
X23400Y14225D02*
Y14625D01*
X23600D01*
X23667Y14558D01*
Y14425D01*
X23600Y14358D01*
X23400D01*
X23533D02*
X23667Y14225D01*
X24066Y14625D02*
X23933Y14558D01*
X23800Y14425D01*
Y14292D01*
X23867Y14225D01*
X24000D01*
X24066Y14292D01*
Y14358D01*
X24000Y14425D01*
X23800D01*
X10108Y3625D02*
X9775D01*
Y3375D01*
X9942D01*
X9775D01*
Y3125D01*
X10275Y3625D02*
Y3125D01*
X10525D01*
X10608Y3208D01*
Y3292D01*
X10525Y3375D01*
X10275D01*
X10525D01*
X10608Y3458D01*
Y3542D01*
X10525Y3625D01*
X10275D01*
X10775Y3125D02*
X10941D01*
X10858D01*
Y3625D01*
X10775Y3542D01*
X11675Y6800D02*
X11600Y6725D01*
Y6575D01*
X11675Y6500D01*
X11975D01*
X12050Y6575D01*
Y6725D01*
X11975Y6800D01*
X12050Y6950D02*
Y7100D01*
Y7025D01*
X11600D01*
X11675Y6950D01*
X12050Y7550D02*
X11600D01*
X11825Y7325D01*
Y7625D01*
X7242Y3258D02*
X7175Y3325D01*
X7042D01*
X6975Y3258D01*
Y2992D01*
X7042Y2925D01*
X7175D01*
X7242Y2992D01*
X7375Y2925D02*
X7508D01*
X7442D01*
Y3325D01*
X7375Y3258D01*
X7975Y2925D02*
X7708D01*
X7975Y3192D01*
Y3258D01*
X7908Y3325D01*
X7775D01*
X7708Y3258D01*
X13233Y1208D02*
X13150Y1125D01*
Y958D01*
X13233Y875D01*
X13567D01*
X13650Y958D01*
Y1125D01*
X13567Y1208D01*
X13150Y1708D02*
X13233Y1541D01*
X13400Y1375D01*
X13567D01*
X13650Y1458D01*
Y1625D01*
X13567Y1708D01*
X13483D01*
X13400Y1625D01*
Y1375D01*
X14408Y7042D02*
X14325Y7125D01*
X14158D01*
X14075Y7042D01*
Y6708D01*
X14158Y6625D01*
X14325D01*
X14408Y6708D01*
X14908Y7125D02*
X14575D01*
Y6875D01*
X14741Y6958D01*
X14825D01*
X14908Y6875D01*
Y6708D01*
X14825Y6625D01*
X14658D01*
X14575Y6708D01*
X14833Y1958D02*
X14750Y1875D01*
Y1708D01*
X14833Y1625D01*
X15167D01*
X15250Y1708D01*
Y1875D01*
X15167Y1958D01*
X14833Y2125D02*
X14750Y2208D01*
Y2375D01*
X14833Y2458D01*
X14917D01*
X15000Y2375D01*
Y2291D01*
Y2375D01*
X15083Y2458D01*
X15167D01*
X15250Y2375D01*
Y2208D01*
X15167Y2125D01*
X13583Y2342D02*
X13500Y2425D01*
X13333D01*
X13250Y2342D01*
Y2008D01*
X13333Y1925D01*
X13500D01*
X13583Y2008D01*
X14083Y1925D02*
X13750D01*
X14083Y2258D01*
Y2342D01*
X14000Y2425D01*
X13833D01*
X13750Y2342D01*
X14250Y2425D02*
X14583D01*
Y2342D01*
X14250Y2008D01*
Y1925D01*
X23083Y13417D02*
X23000Y13500D01*
X22833D01*
X22750Y13417D01*
Y13083D01*
X22833Y13000D01*
X23000D01*
X23083Y13083D01*
X23250Y13000D02*
X23416D01*
X23333D01*
Y13500D01*
X23250Y13417D01*
X23666Y13500D02*
X24000D01*
Y13417D01*
X23666Y13083D01*
Y13000D01*
X22008Y8558D02*
X21925Y8475D01*
Y8308D01*
X22008Y8225D01*
X22342D01*
X22425Y8308D01*
Y8475D01*
X22342Y8558D01*
X22425Y8725D02*
Y8891D01*
Y8808D01*
X21925D01*
X22008Y8725D01*
Y9141D02*
X21925Y9225D01*
Y9391D01*
X22008Y9475D01*
X22092D01*
X22175Y9391D01*
X22258Y9475D01*
X22342D01*
X22425Y9391D01*
Y9225D01*
X22342Y9141D01*
X22258D01*
X22175Y9225D01*
X22092Y9141D01*
X22008D01*
X22175Y9225D02*
Y9391D01*
X23283Y7883D02*
X23225Y7825D01*
Y7708D01*
X23283Y7650D01*
X23517D01*
X23575Y7708D01*
Y7825D01*
X23517Y7883D01*
X23575Y8233D02*
Y8000D01*
X23342Y8233D01*
X23283D01*
X23225Y8175D01*
Y8058D01*
X23283Y8000D01*
Y8350D02*
X23225Y8408D01*
Y8525D01*
X23283Y8583D01*
X23517D01*
X23575Y8525D01*
Y8408D01*
X23517Y8350D01*
X23283D01*
X3175Y21400D02*
Y20900D01*
X3425D01*
X3508Y20983D01*
Y21317D01*
X3425Y21400D01*
X3175D01*
X3675Y21317D02*
X3758Y21400D01*
X3925D01*
X4008Y21317D01*
Y21233D01*
X3925Y21150D01*
X3841D01*
X3925D01*
X4008Y21067D01*
Y20983D01*
X3925Y20900D01*
X3758D01*
X3675Y20983D01*
X21950Y10075D02*
Y9725D01*
X22183D01*
X22533Y10075D02*
X22300D01*
Y9900D01*
X22417Y9958D01*
X22475D01*
X22533Y9900D01*
Y9783D01*
X22475Y9725D01*
X22358D01*
X22300Y9783D01*
X8675Y3525D02*
Y3075D01*
X8900D01*
X8975Y3150D01*
Y3450D01*
X8900Y3525D01*
X8675D01*
X9425Y3075D02*
X9125D01*
X9425Y3375D01*
Y3450D01*
X9350Y3525D01*
X9200D01*
X9125Y3450D01*
X13950Y6225D02*
Y5725D01*
X14200D01*
X14283Y5808D01*
Y5892D01*
X14200Y5975D01*
X13950D01*
X14200D01*
X14283Y6058D01*
Y6142D01*
X14200Y6225D01*
X13950D01*
X14450Y5725D02*
X14616D01*
X14533D01*
Y6225D01*
X14450Y6142D01*
D85*
X7900Y1225D02*
Y1845D01*
X6590Y1225D02*
Y1845D01*
X10500Y2445D02*
Y2905D01*
X16575Y9835D02*
Y11385D01*
X14075Y9825D02*
Y11375D01*
X7185Y22155D02*
Y22775D01*
X5875Y22155D02*
Y22775D01*
X23075Y16110D02*
X23695D01*
X23075Y14800D02*
X23695D01*
X17975Y13580D02*
Y14200D01*
X19285Y13580D02*
Y14200D01*
X12970Y15800D02*
X13420D01*
X12970Y15000D02*
X13420D01*
D86*
X6600Y8495D02*
X10500D01*
X6600Y5275D02*
Y8495D01*
X10500Y5275D02*
Y8495D01*
X6600Y5275D02*
X10500D01*
D87*
X9783Y16483D02*
Y16817D01*
X9700Y16900D01*
X9533D01*
X9450Y16817D01*
Y16483D01*
X9533Y16400D01*
X9700D01*
X9617Y16567D02*
X9783Y16400D01*
X9700D02*
X9783Y16483D01*
X9950Y16400D02*
X10116D01*
X10033D01*
Y16900D01*
X9950Y16817D01*
X15000Y15250D02*
X14500D01*
Y15500D01*
X14583Y15583D01*
X14750D01*
X14833Y15500D01*
Y15250D01*
Y15417D02*
X15000Y15583D01*
Y15750D02*
Y15916D01*
Y15833D01*
X14500D01*
X14583Y15750D01*
X14500Y16166D02*
Y16500D01*
X14583D01*
X14917Y16166D01*
X15000D01*
X11075Y8675D02*
Y9125D01*
X11300D01*
X11375Y9050D01*
Y8900D01*
X11300Y8825D01*
X11075D01*
X11225D02*
X11375Y8675D01*
X11525D02*
X11675D01*
X11600D01*
Y9125D01*
X11525Y9050D01*
X12125Y8675D02*
Y9125D01*
X11900Y8900D01*
X12200D01*
X22775Y4075D02*
X22325D01*
Y4300D01*
X22400Y4375D01*
X22550D01*
X22625Y4300D01*
Y4075D01*
Y4225D02*
X22775Y4375D01*
Y4525D02*
Y4675D01*
Y4600D01*
X22325D01*
X22400Y4525D01*
Y4900D02*
X22325Y4975D01*
Y5125D01*
X22400Y5200D01*
X22475D01*
X22550Y5125D01*
Y5050D01*
Y5125D01*
X22625Y5200D01*
X22700D01*
X22775Y5125D01*
Y4975D01*
X22700Y4900D01*
X6350Y4125D02*
Y4625D01*
X6600D01*
X6683Y4542D01*
Y4375D01*
X6600Y4292D01*
X6350D01*
X6517D02*
X6683Y4125D01*
X7100D02*
Y4625D01*
X6850Y4375D01*
X7183D01*
X12425Y9750D02*
Y10250D01*
X12675D01*
X12758Y10167D01*
Y10000D01*
X12675Y9917D01*
X12425D01*
X12592D02*
X12758Y9750D01*
X12925Y10167D02*
X13008Y10250D01*
X13175D01*
X13258Y10167D01*
Y10083D01*
X13175Y10000D01*
X13091D01*
X13175D01*
X13258Y9917D01*
Y9833D01*
X13175Y9750D01*
X13008D01*
X12925Y9833D01*
X7125Y21050D02*
Y20550D01*
X7375D01*
X7458Y20633D01*
Y20967D01*
X7375Y21050D01*
X7125D01*
X7625Y20550D02*
X7791D01*
X7708D01*
Y21050D01*
X7625Y20967D01*
X14633Y8417D02*
X14550Y8500D01*
X14383D01*
X14300Y8417D01*
Y8083D01*
X14383Y8000D01*
X14550D01*
X14633Y8083D01*
X14800Y8000D02*
X14966D01*
X14883D01*
Y8500D01*
X14800Y8417D01*
X22358Y5808D02*
X22275Y5725D01*
Y5558D01*
X22358Y5475D01*
X22692D01*
X22775Y5558D01*
Y5725D01*
X22692Y5808D01*
X22775Y6308D02*
Y5975D01*
X22442Y6308D01*
X22358D01*
X22275Y6225D01*
Y6058D01*
X22358Y5975D01*
X14450Y4000D02*
Y3625D01*
X14525Y3550D01*
X14675D01*
X14750Y3625D01*
Y4000D01*
X14900Y3550D02*
X15050D01*
X14975D01*
Y4000D01*
X14900Y3925D01*
X24500Y2950D02*
X24425Y2875D01*
Y2725D01*
X24500Y2650D01*
X24800D01*
X24875Y2725D01*
Y2875D01*
X24800Y2950D01*
X24875Y3100D02*
Y3250D01*
Y3175D01*
X24425D01*
X24500Y3100D01*
X24425Y3775D02*
X24500Y3625D01*
X24650Y3475D01*
X24800D01*
X24875Y3550D01*
Y3700D01*
X24800Y3775D01*
X24725D01*
X24650Y3700D01*
Y3475D01*
X12500Y7750D02*
X12425Y7825D01*
X12275D01*
X12200Y7750D01*
Y7450D01*
X12275Y7375D01*
X12425D01*
X12500Y7450D01*
X12650Y7375D02*
X12800D01*
X12725D01*
Y7825D01*
X12650Y7750D01*
X13325Y7825D02*
X13025D01*
Y7600D01*
X13175Y7675D01*
X13250D01*
X13325Y7600D01*
Y7450D01*
X13250Y7375D01*
X13100D01*
X13025Y7450D01*
X24458Y1733D02*
X24375Y1650D01*
Y1483D01*
X24458Y1400D01*
X24792D01*
X24875Y1483D01*
Y1650D01*
X24792Y1733D01*
X24458Y1900D02*
X24375Y1983D01*
Y2150D01*
X24458Y2233D01*
X24542D01*
X24625Y2150D01*
X24708Y2233D01*
X24792D01*
X24875Y2150D01*
Y1983D01*
X24792Y1900D01*
X24708D01*
X24625Y1983D01*
X24542Y1900D01*
X24458D01*
X24625Y1983D02*
Y2150D01*
X13958Y7742D02*
X13875Y7825D01*
X13708D01*
X13625Y7742D01*
Y7408D01*
X13708Y7325D01*
X13875D01*
X13958Y7408D01*
X14375Y7325D02*
Y7825D01*
X14125Y7575D01*
X14458D01*
X24433Y7883D02*
X24350Y7800D01*
Y7633D01*
X24433Y7550D01*
X24767D01*
X24850Y7633D01*
Y7800D01*
X24767Y7883D01*
X24850Y8050D02*
Y8216D01*
Y8133D01*
X24350D01*
X24433Y8050D01*
X24767Y8466D02*
X24850Y8550D01*
Y8716D01*
X24767Y8800D01*
X24433D01*
X24350Y8716D01*
Y8550D01*
X24433Y8466D01*
X24517D01*
X24600Y8550D01*
Y8800D01*
X24800Y9225D02*
X24300D01*
Y9475D01*
X24383Y9558D01*
X24550D01*
X24633Y9475D01*
Y9225D01*
Y9392D02*
X24800Y9558D01*
Y9725D02*
Y9891D01*
Y9808D01*
X24300D01*
X24383Y9725D01*
X24800Y10141D02*
Y10308D01*
Y10225D01*
X24300D01*
X24383Y10141D01*
M02*
