G04 Layer_Color=8388736*
%FSLAX43Y43*%
%MOMM*%
G71*
G01*
G75*
%ADD12R,3.000X3.800*%
%ADD37R,0.280X0.800*%
%ADD50R,0.500X0.900*%
%ADD51R,0.500X0.500*%
%ADD52R,0.700X0.475*%
%ADD78C,1.000*%
%ADD79O,1.000X0.950*%
%ADD80O,1.100X1.000*%
%ADD113R,2.400X5.000*%
%ADD114R,2.500X5.175*%
%ADD115R,1.250X0.625*%
%ADD116R,0.700X0.450*%
%ADD117R,0.825X0.425*%
%ADD118R,1.600X3.300*%
%ADD119R,1.600X1.300*%
%ADD120R,0.550X0.600*%
G04:AMPARAMS|DCode=121|XSize=2.1mm|YSize=3.85mm|CornerRadius=0.55mm|HoleSize=0mm|Usage=FLASHONLY|Rotation=180.000|XOffset=0mm|YOffset=0mm|HoleType=Round|Shape=RoundedRectangle|*
%AMROUNDEDRECTD121*
21,1,2.100,2.750,0,0,180.0*
21,1,1.000,3.850,0,0,180.0*
1,1,1.100,-0.500,1.375*
1,1,1.100,0.500,1.375*
1,1,1.100,0.500,-1.375*
1,1,1.100,-0.500,-1.375*
%
%ADD121ROUNDEDRECTD121*%
%ADD122R,1.790X2.540*%
%ADD123O,0.990X0.440*%
%ADD124R,1.100X1.100*%
G04:AMPARAMS|DCode=125|XSize=0.9mm|YSize=0.9mm|CornerRadius=0.25mm|HoleSize=0mm|Usage=FLASHONLY|Rotation=90.000|XOffset=0mm|YOffset=0mm|HoleType=Round|Shape=RoundedRectangle|*
%AMROUNDEDRECTD125*
21,1,0.900,0.400,0,0,90.0*
21,1,0.400,0.900,0,0,90.0*
1,1,0.500,0.200,0.200*
1,1,0.500,0.200,-0.200*
1,1,0.500,-0.200,-0.200*
1,1,0.500,-0.200,0.200*
%
%ADD125ROUNDEDRECTD125*%
G04:AMPARAMS|DCode=126|XSize=1.2mm|YSize=2.1mm|CornerRadius=0.325mm|HoleSize=0mm|Usage=FLASHONLY|Rotation=90.000|XOffset=0mm|YOffset=0mm|HoleType=Round|Shape=RoundedRectangle|*
%AMROUNDEDRECTD126*
21,1,1.200,1.450,0,0,90.0*
21,1,0.550,2.100,0,0,90.0*
1,1,0.650,0.725,0.275*
1,1,0.650,0.725,-0.275*
1,1,0.650,-0.725,-0.275*
1,1,0.650,-0.725,0.275*
%
%ADD126ROUNDEDRECTD126*%
%ADD127R,1.294X0.887*%
G04:AMPARAMS|DCode=128|XSize=1.2mm|YSize=2.1mm|CornerRadius=0.325mm|HoleSize=0mm|Usage=FLASHONLY|Rotation=0.000|XOffset=0mm|YOffset=0mm|HoleType=Round|Shape=RoundedRectangle|*
%AMROUNDEDRECTD128*
21,1,1.200,1.450,0,0,0.0*
21,1,0.550,2.100,0,0,0.0*
1,1,0.650,0.275,-0.725*
1,1,0.650,-0.275,-0.725*
1,1,0.650,-0.275,0.725*
1,1,0.650,0.275,0.725*
%
%ADD128ROUNDEDRECTD128*%
G04:AMPARAMS|DCode=129|XSize=0.9mm|YSize=0.9mm|CornerRadius=0.25mm|HoleSize=0mm|Usage=FLASHONLY|Rotation=0.000|XOffset=0mm|YOffset=0mm|HoleType=Round|Shape=RoundedRectangle|*
%AMROUNDEDRECTD129*
21,1,0.900,0.400,0,0,0.0*
21,1,0.400,0.900,0,0,0.0*
1,1,0.500,0.200,-0.200*
1,1,0.500,-0.200,-0.200*
1,1,0.500,-0.200,0.200*
1,1,0.500,0.200,0.200*
%
%ADD129ROUNDEDRECTD129*%
%ADD130R,0.600X0.550*%
%ADD131R,0.450X1.100*%
%ADD132R,0.500X0.700*%
%ADD133R,2.300X1.100*%
%ADD134R,0.650X0.900*%
G04:AMPARAMS|DCode=135|XSize=0.9mm|YSize=0.65mm|CornerRadius=0.188mm|HoleSize=0mm|Usage=FLASHONLY|Rotation=270.000|XOffset=0mm|YOffset=0mm|HoleType=Round|Shape=RoundedRectangle|*
%AMROUNDEDRECTD135*
21,1,0.900,0.275,0,0,270.0*
21,1,0.525,0.650,0,0,270.0*
1,1,0.375,-0.138,-0.263*
1,1,0.375,-0.138,0.263*
1,1,0.375,0.138,0.263*
1,1,0.375,0.138,-0.263*
%
%ADD135ROUNDEDRECTD135*%
%ADD136R,1.700X3.100*%
%ADD137R,6.810X6.810*%
%ADD138R,0.700X0.700*%
%ADD139R,0.650X0.600*%
%ADD140R,0.600X0.650*%
%ADD141R,0.600X0.700*%
%ADD142R,4.640X4.640*%
G04:AMPARAMS|DCode=143|XSize=0.42mm|YSize=0.99mm|CornerRadius=0.14mm|HoleSize=0mm|Usage=FLASHONLY|Rotation=180.000|XOffset=0mm|YOffset=0mm|HoleType=Round|Shape=RoundedRectangle|*
%AMROUNDEDRECTD143*
21,1,0.420,0.710,0,0,180.0*
21,1,0.140,0.990,0,0,180.0*
1,1,0.280,-0.070,0.355*
1,1,0.280,0.070,0.355*
1,1,0.280,0.070,-0.355*
1,1,0.280,-0.070,-0.355*
%
%ADD143ROUNDEDRECTD143*%
%ADD144R,0.420X0.990*%
%ADD145R,0.990X0.420*%
G04:AMPARAMS|DCode=146|XSize=0.42mm|YSize=0.99mm|CornerRadius=0.14mm|HoleSize=0mm|Usage=FLASHONLY|Rotation=270.000|XOffset=0mm|YOffset=0mm|HoleType=Round|Shape=RoundedRectangle|*
%AMROUNDEDRECTD146*
21,1,0.420,0.710,0,0,270.0*
21,1,0.140,0.990,0,0,270.0*
1,1,0.280,-0.355,-0.070*
1,1,0.280,-0.355,0.070*
1,1,0.280,0.355,0.070*
1,1,0.280,0.355,-0.070*
%
%ADD146ROUNDEDRECTD146*%
%ADD147R,1.500X1.300*%
%ADD148C,1.100*%
G04:AMPARAMS|DCode=149|XSize=0.6mm|YSize=0.55mm|CornerRadius=0.163mm|HoleSize=0mm|Usage=FLASHONLY|Rotation=90.000|XOffset=0mm|YOffset=0mm|HoleType=Round|Shape=RoundedRectangle|*
%AMROUNDEDRECTD149*
21,1,0.600,0.225,0,0,90.0*
21,1,0.275,0.550,0,0,90.0*
1,1,0.325,0.113,0.138*
1,1,0.325,0.113,-0.138*
1,1,0.325,-0.113,-0.138*
1,1,0.325,-0.113,0.138*
%
%ADD149ROUNDEDRECTD149*%
%ADD150R,2.589X1.091*%
G04:AMPARAMS|DCode=151|XSize=0.887mm|YSize=1.294mm|CornerRadius=0.247mm|HoleSize=0mm|Usage=FLASHONLY|Rotation=90.000|XOffset=0mm|YOffset=0mm|HoleType=Round|Shape=RoundedRectangle|*
%AMROUNDEDRECTD151*
21,1,0.887,0.800,0,0,90.0*
21,1,0.394,1.294,0,0,90.0*
1,1,0.494,0.400,0.197*
1,1,0.494,0.400,-0.197*
1,1,0.494,-0.400,-0.197*
1,1,0.494,-0.400,0.197*
%
%ADD151ROUNDEDRECTD151*%
G04:AMPARAMS|DCode=152|XSize=0.6mm|YSize=0.55mm|CornerRadius=0.163mm|HoleSize=0mm|Usage=FLASHONLY|Rotation=180.000|XOffset=0mm|YOffset=0mm|HoleType=Round|Shape=RoundedRectangle|*
%AMROUNDEDRECTD152*
21,1,0.600,0.225,0,0,180.0*
21,1,0.275,0.550,0,0,180.0*
1,1,0.325,-0.138,0.113*
1,1,0.325,0.138,0.113*
1,1,0.325,0.138,-0.113*
1,1,0.325,-0.138,-0.113*
%
%ADD152ROUNDEDRECTD152*%
%ADD153R,0.887X1.294*%
G04:AMPARAMS|DCode=154|XSize=0.887mm|YSize=1.294mm|CornerRadius=0.247mm|HoleSize=0mm|Usage=FLASHONLY|Rotation=180.000|XOffset=0mm|YOffset=0mm|HoleType=Round|Shape=RoundedRectangle|*
%AMROUNDEDRECTD154*
21,1,0.887,0.800,0,0,180.0*
21,1,0.394,1.294,0,0,180.0*
1,1,0.494,-0.197,0.400*
1,1,0.494,0.197,0.400*
1,1,0.494,0.197,-0.400*
1,1,0.494,-0.197,-0.400*
%
%ADD154ROUNDEDRECTD154*%
G04:AMPARAMS|DCode=155|XSize=0.811mm|YSize=0.887mm|CornerRadius=0.228mm|HoleSize=0mm|Usage=FLASHONLY|Rotation=0.000|XOffset=0mm|YOffset=0mm|HoleType=Round|Shape=RoundedRectangle|*
%AMROUNDEDRECTD155*
21,1,0.811,0.432,0,0,0.0*
21,1,0.356,0.887,0,0,0.0*
1,1,0.456,0.178,-0.216*
1,1,0.456,-0.178,-0.216*
1,1,0.456,-0.178,0.216*
1,1,0.456,0.178,0.216*
%
%ADD155ROUNDEDRECTD155*%
%ADD156C,0.100*%
G36*
X8075Y1875D02*
Y1175D01*
X6575D01*
X6475Y1275D01*
Y1825D01*
X8125Y1925D01*
X8075Y1875D01*
D02*
G37*
G36*
X14450Y4450D02*
X14400Y4400D01*
X14375Y4425D01*
X13200D01*
Y5450D01*
X14450D01*
Y4450D01*
D02*
G37*
D12*
X13175Y22750D02*
D03*
D37*
X20400Y1900D02*
D03*
X19900D02*
D03*
D50*
X5662Y1600D02*
D03*
D51*
Y3700D02*
D03*
D52*
X15350Y1125D02*
D03*
Y450D02*
D03*
D78*
X16220Y-470D02*
D03*
X17490D02*
D03*
X20030D02*
D03*
D79*
X18760D02*
D03*
X20030Y800D02*
D03*
X21300D02*
D03*
D80*
Y-470D02*
D03*
D113*
X1400Y22275D02*
D03*
D114*
X23550Y22163D02*
D03*
D115*
X3625Y15312D02*
D03*
D116*
X15100Y675D02*
D03*
D117*
X14488Y663D02*
D03*
D118*
X13000Y12800D02*
D03*
D119*
X6600Y10500D02*
D03*
Y12800D02*
D03*
Y15100D02*
D03*
D120*
X23125Y6800D02*
D03*
X23975D02*
D03*
X9525Y4600D02*
D03*
X8675D02*
D03*
X10250Y4600D02*
D03*
X11100D02*
D03*
X22475Y925D02*
D03*
X23325D02*
D03*
X13700Y2850D02*
D03*
X14550D02*
D03*
X13600Y8225D02*
D03*
X12750D02*
D03*
X13732Y6875D02*
D03*
X12882D02*
D03*
X22750Y1925D02*
D03*
X23600D02*
D03*
X24025Y5750D02*
D03*
X23350Y13900D02*
D03*
X24200D02*
D03*
X12475Y10625D02*
D03*
X13325D02*
D03*
X6925Y3700D02*
D03*
X6075D02*
D03*
X22800Y9425D02*
D03*
X23175Y4675D02*
D03*
X24025D02*
D03*
X7175Y9125D02*
D03*
X6325D02*
D03*
X15125Y13200D02*
D03*
X14275D02*
D03*
X12475Y9300D02*
D03*
X13325D02*
D03*
D121*
X13250Y18650D02*
D03*
X4750D02*
D03*
D122*
X18950Y10675D02*
D03*
D123*
X20425Y11650D02*
D03*
Y11000D02*
D03*
Y10350D02*
D03*
Y9700D02*
D03*
X17475D02*
D03*
Y10350D02*
D03*
Y11000D02*
D03*
Y11650D02*
D03*
D124*
X12500Y750D02*
D03*
D125*
X8700Y1000D02*
D03*
D126*
X10600D02*
D03*
D127*
X7250Y636D02*
D03*
Y2414D02*
D03*
X18625Y14789D02*
D03*
D128*
X10500Y21600D02*
D03*
X8500D02*
D03*
D129*
X10500Y23500D02*
D03*
X8500D02*
D03*
D130*
X24275Y10550D02*
D03*
Y11400D02*
D03*
X22875Y7675D02*
D03*
Y8525D02*
D03*
X21575Y8750D02*
D03*
Y9600D02*
D03*
X22400Y13225D02*
D03*
Y14075D02*
D03*
X23950Y7700D02*
D03*
Y8550D02*
D03*
X14325Y1525D02*
D03*
Y675D02*
D03*
X12825Y2050D02*
D03*
Y2900D02*
D03*
X24025Y3650D02*
D03*
Y2800D02*
D03*
X11775Y2850D02*
D03*
X22975Y2800D02*
D03*
Y3650D02*
D03*
X24275Y12175D02*
D03*
Y13025D02*
D03*
D131*
X12275Y5750D02*
D03*
X12925D02*
D03*
X12275Y3950D02*
D03*
X12925D02*
D03*
X13575D02*
D03*
Y5750D02*
D03*
D132*
X9325Y2675D02*
D03*
X8625D02*
D03*
D133*
X22275Y12100D02*
D03*
Y10700D02*
D03*
D134*
X4525Y23875D02*
D03*
D135*
Y21525D02*
D03*
D136*
X16345Y14500D02*
D03*
X20905D02*
D03*
D137*
X18625Y21150D02*
D03*
D138*
X7800Y3700D02*
D03*
Y4700D02*
D03*
D139*
X11225Y6025D02*
D03*
Y7025D02*
D03*
D140*
X11875Y8075D02*
D03*
X10875D02*
D03*
D141*
X9950Y2675D02*
D03*
X11050D02*
D03*
D142*
X18650Y4850D02*
D03*
D143*
X20900Y1875D02*
D03*
D144*
X19400D02*
D03*
X18900D02*
D03*
X18400D02*
D03*
X17900D02*
D03*
X17400D02*
D03*
X16900D02*
D03*
X16400D02*
D03*
Y7825D02*
D03*
X16900D02*
D03*
X17400D02*
D03*
X17900D02*
D03*
X18400D02*
D03*
X18900D02*
D03*
X19400D02*
D03*
X19900D02*
D03*
X20400D02*
D03*
X20900D02*
D03*
D145*
X15675Y2600D02*
D03*
Y3100D02*
D03*
Y3600D02*
D03*
Y4100D02*
D03*
Y4600D02*
D03*
Y5100D02*
D03*
Y5600D02*
D03*
Y6100D02*
D03*
Y6600D02*
D03*
Y7100D02*
D03*
X21625D02*
D03*
Y6600D02*
D03*
Y6100D02*
D03*
Y5100D02*
D03*
Y4100D02*
D03*
Y3600D02*
D03*
Y3100D02*
D03*
Y2600D02*
D03*
D146*
Y5600D02*
D03*
Y4600D02*
D03*
D147*
X7445Y6025D02*
D03*
X9645D02*
D03*
Y7725D02*
D03*
X7445D02*
D03*
D148*
X24300Y700D02*
D03*
D149*
X23175Y5750D02*
D03*
X23650Y9425D02*
D03*
D150*
X15325Y9126D02*
D03*
Y12124D02*
D03*
D151*
X6525Y21586D02*
D03*
Y23364D02*
D03*
X18625Y13011D02*
D03*
D152*
X11775Y2000D02*
D03*
X14875Y14900D02*
D03*
Y14050D02*
D03*
D153*
X24264Y15450D02*
D03*
D154*
X22486D02*
D03*
D155*
X12451Y15400D02*
D03*
X13949D02*
D03*
D156*
X18760Y800D02*
D03*
X16220D02*
D03*
X17490D02*
D03*
M02*
