G04 Layer_Color=2752767*
%FSLAX43Y43*%
%MOMM*%
G71*
G01*
G75*
%ADD158C,0.127*%
%ADD159C,0.169*%
G36*
X72684Y8820D02*
X72747Y8778D01*
X72789Y8715D01*
X72804Y8640D01*
Y641D01*
X72789Y566D01*
X72747Y503D01*
X72684Y461D01*
X72610Y446D01*
X25515D01*
X25441Y461D01*
X25378Y503D01*
X25336Y566D01*
X25321Y641D01*
Y8640D01*
X25336Y8715D01*
X25378Y8778D01*
X25441Y8820D01*
X25515Y8835D01*
X72610D01*
X72684Y8820D01*
D02*
G37*
%LPC*%
G36*
X69757Y7750D02*
X69460D01*
Y7370D01*
X69757D01*
X69840Y7454D01*
Y7667D01*
X69757Y7750D01*
D02*
G37*
G36*
X72416Y8446D02*
X62367D01*
Y6835D01*
X68596D01*
X68561Y6921D01*
X68599Y7012D01*
X68691Y7050D01*
X68797D01*
X68857Y7111D01*
X68531D01*
X68439Y7149D01*
X68279Y7309D01*
X68241Y7400D01*
Y7880D01*
X68279Y7972D01*
X68371Y8010D01*
X68463Y7972D01*
X68501Y7880D01*
Y7454D01*
X68585Y7370D01*
X68881D01*
Y7880D01*
X68919Y7972D01*
X69011Y8010D01*
X69102Y7972D01*
X69140Y7880D01*
Y7240D01*
Y7081D01*
X69102Y6989D01*
X68948Y6835D01*
X69236D01*
X69201Y6921D01*
Y7880D01*
X69239Y7972D01*
X69330Y8010D01*
X69810D01*
X69902Y7972D01*
X70062Y7812D01*
X70100Y7720D01*
Y7400D01*
X70062Y7309D01*
X69902Y7149D01*
X69810Y7111D01*
X69460D01*
Y6921D01*
X69425Y6835D01*
X72416D01*
Y8446D01*
D02*
G37*
G36*
X61978D02*
X55568D01*
Y6835D01*
X61978D01*
Y8446D01*
D02*
G37*
G36*
X55180D02*
X40873D01*
Y6835D01*
X55180D01*
Y8446D01*
D02*
G37*
G36*
X40484D02*
X33108D01*
Y6835D01*
X40484D01*
Y8446D01*
D02*
G37*
G36*
X32720D02*
X25710D01*
Y6835D01*
X27901D01*
X27865Y6921D01*
X27903Y7012D01*
X27995Y7050D01*
X28101D01*
X28161Y7111D01*
X27835D01*
X27743Y7149D01*
X27583Y7309D01*
X27545Y7400D01*
Y7880D01*
X27583Y7972D01*
X27675Y8010D01*
X27767Y7972D01*
X27805Y7880D01*
Y7454D01*
X27889Y7370D01*
X28185D01*
Y7880D01*
X28223Y7972D01*
X28315Y8010D01*
X28407Y7972D01*
X28445Y7880D01*
Y7240D01*
Y7081D01*
X28407Y6989D01*
X28253Y6835D01*
X32720D01*
Y8446D01*
D02*
G37*
G36*
X72416Y6446D02*
X62367D01*
Y2835D01*
X72416D01*
Y6446D01*
D02*
G37*
G36*
X61978D02*
X55568D01*
Y2835D01*
X61978D01*
Y6446D01*
D02*
G37*
G36*
X55180D02*
X40873D01*
Y2835D01*
X55180D01*
Y6446D01*
D02*
G37*
G36*
X40484D02*
X33108D01*
Y2835D01*
X40484D01*
Y6446D01*
D02*
G37*
G36*
X32720D02*
X25710D01*
Y2835D01*
X32720D01*
Y6446D01*
D02*
G37*
G36*
X72416Y2446D02*
X62367D01*
Y835D01*
X72416D01*
Y2446D01*
D02*
G37*
G36*
X61978D02*
X55568D01*
Y835D01*
X61978D01*
Y2446D01*
D02*
G37*
G36*
X55180D02*
X40873D01*
Y835D01*
X55180D01*
Y2446D01*
D02*
G37*
G36*
X40484D02*
X33108D01*
Y835D01*
X40484D01*
Y2446D01*
D02*
G37*
G36*
X32720D02*
X25710D01*
Y835D01*
X32720D01*
Y2446D01*
D02*
G37*
%LPD*%
G36*
X63504Y8292D02*
X63542Y8200D01*
Y7240D01*
X63504Y7149D01*
X63412Y7111D01*
X63321Y7149D01*
X63282Y7240D01*
Y7590D01*
X62902D01*
Y7240D01*
X62864Y7149D01*
X62773Y7111D01*
X62681Y7149D01*
X62643Y7240D01*
Y7720D01*
Y8200D01*
X62681Y8292D01*
X62773Y8330D01*
X62864Y8292D01*
X62902Y8200D01*
Y7850D01*
X63282D01*
Y8200D01*
X63321Y8292D01*
X63412Y8330D01*
X63504Y8292D01*
D02*
G37*
G36*
X70862Y7972D02*
X71022Y7812D01*
X71060Y7720D01*
Y7560D01*
X71022Y7469D01*
X70930Y7431D01*
X70444D01*
X70504Y7370D01*
X70770D01*
X70862Y7332D01*
X70900Y7240D01*
X70862Y7149D01*
X70770Y7111D01*
X70450D01*
X70358Y7149D01*
X70198Y7309D01*
X70160Y7400D01*
Y7720D01*
X70198Y7812D01*
X70358Y7972D01*
X70450Y8010D01*
X70770D01*
X70862Y7972D01*
D02*
G37*
G36*
X68143Y8292D02*
X68181Y8200D01*
X68143Y8108D01*
X68051Y8070D01*
X67861D01*
Y7240D01*
X67823Y7149D01*
X67731Y7111D01*
X67639Y7149D01*
X67601Y7240D01*
Y8070D01*
X67411D01*
X67319Y8108D01*
X67281Y8200D01*
X67319Y8292D01*
X67411Y8330D01*
X68051D01*
X68143Y8292D01*
D02*
G37*
G36*
X66063Y7972D02*
X66223Y7812D01*
X66261Y7720D01*
Y7560D01*
X66223Y7469D01*
X66131Y7431D01*
X65645D01*
X65705Y7370D01*
X65972D01*
X66063Y7332D01*
X66101Y7240D01*
X66063Y7149D01*
X65972Y7111D01*
X65652D01*
X65560Y7149D01*
X65400Y7309D01*
X65362Y7400D01*
Y7720D01*
X65400Y7812D01*
X65560Y7972D01*
X65652Y8010D01*
X65972D01*
X66063Y7972D01*
D02*
G37*
G36*
X64944Y8292D02*
X64982Y8200D01*
Y7370D01*
X65012D01*
X65104Y7332D01*
X65142Y7240D01*
X65104Y7149D01*
X65012Y7111D01*
X64692D01*
X64600Y7149D01*
X64562Y7240D01*
X64600Y7332D01*
X64692Y7370D01*
X64722D01*
Y8070D01*
X64692D01*
X64600Y8108D01*
X64562Y8200D01*
X64600Y8292D01*
X64692Y8330D01*
X64852D01*
X64944Y8292D01*
D02*
G37*
G36*
X64304Y7972D02*
X64464Y7812D01*
X64502Y7720D01*
Y7400D01*
X64464Y7309D01*
X64304Y7149D01*
X64212Y7111D01*
X63892D01*
X63800Y7149D01*
X63640Y7309D01*
X63602Y7400D01*
Y7720D01*
X63640Y7812D01*
X63800Y7972D01*
X63892Y8010D01*
X64212D01*
X64304Y7972D01*
D02*
G37*
%LPC*%
G36*
X70716Y7750D02*
X70504D01*
X70444Y7690D01*
X70776D01*
X70716Y7750D01*
D02*
G37*
G36*
X65918D02*
X65705D01*
X65645Y7690D01*
X65978D01*
X65918Y7750D01*
D02*
G37*
G36*
X64158D02*
X63946D01*
X63862Y7667D01*
Y7454D01*
X63946Y7370D01*
X64158D01*
X64242Y7454D01*
Y7667D01*
X64158Y7750D01*
D02*
G37*
%LPD*%
G36*
X61184Y8292D02*
X61222Y8200D01*
Y7240D01*
X61184Y7149D01*
X61093Y7111D01*
X60613D01*
X60521Y7149D01*
X60361Y7309D01*
X60323Y7400D01*
Y7720D01*
X60361Y7812D01*
X60521Y7972D01*
X60613Y8010D01*
X60963D01*
Y8200D01*
X61001Y8292D01*
X61093Y8330D01*
X61184Y8292D01*
D02*
G37*
G36*
X60065Y7972D02*
X60225Y7812D01*
X60263Y7720D01*
Y7560D01*
X60225Y7469D01*
X60133Y7431D01*
X59647D01*
X59707Y7370D01*
X59973D01*
X60065Y7332D01*
X60103Y7240D01*
X60065Y7149D01*
X59973Y7111D01*
X59653D01*
X59561Y7149D01*
X59401Y7309D01*
X59363Y7400D01*
Y7720D01*
X59401Y7812D01*
X59561Y7972D01*
X59653Y8010D01*
X59973D01*
X60065Y7972D01*
D02*
G37*
G36*
X58945Y8132D02*
X58983Y8040D01*
Y8010D01*
X59013D01*
X59105Y7972D01*
X59143Y7880D01*
X59105Y7788D01*
X59013Y7750D01*
X58983D01*
Y7454D01*
X59105Y7332D01*
X59143Y7240D01*
X59105Y7149D01*
X59013Y7111D01*
X58921Y7149D01*
X58761Y7309D01*
X58723Y7400D01*
Y7750D01*
X58693D01*
X58602Y7788D01*
X58563Y7880D01*
X58602Y7972D01*
X58693Y8010D01*
X58723D01*
Y8040D01*
X58761Y8132D01*
X58853Y8170D01*
X58945Y8132D01*
D02*
G37*
G36*
X58305Y7972D02*
X58465Y7812D01*
X58503Y7720D01*
Y7240D01*
X58465Y7149D01*
X58373Y7111D01*
X57894D01*
X57802Y7149D01*
X57642Y7309D01*
X57604Y7400D01*
X57642Y7492D01*
X57802Y7652D01*
X57894Y7690D01*
X58220D01*
X58160Y7750D01*
X57894D01*
X57802Y7788D01*
X57764Y7880D01*
X57802Y7972D01*
X57894Y8010D01*
X58214D01*
X58305Y7972D01*
D02*
G37*
G36*
X57186Y8292D02*
X57224Y8200D01*
Y7370D01*
X57254D01*
X57346Y7332D01*
X57384Y7240D01*
X57346Y7149D01*
X57254Y7111D01*
X56934D01*
X56842Y7149D01*
X56804Y7240D01*
X56842Y7332D01*
X56934Y7370D01*
X56964D01*
Y8070D01*
X56934D01*
X56842Y8108D01*
X56804Y8200D01*
X56842Y8292D01*
X56934Y8330D01*
X57094D01*
X57186Y8292D01*
D02*
G37*
G36*
X56546D02*
X56706Y8132D01*
X56744Y8040D01*
Y7720D01*
X56706Y7628D01*
X56546Y7469D01*
X56500Y7450D01*
X56454Y7431D01*
X56104D01*
Y7240D01*
X56066Y7149D01*
X55974Y7111D01*
X55882Y7149D01*
X55844Y7240D01*
Y8200D01*
X55882Y8292D01*
X55974Y8330D01*
X56454D01*
X56546Y8292D01*
D02*
G37*
%LPC*%
G36*
X60963Y7750D02*
X60667D01*
X60583Y7667D01*
Y7454D01*
X60667Y7370D01*
X60963D01*
Y7750D01*
D02*
G37*
G36*
X59919D02*
X59707D01*
X59647Y7690D01*
X59979D01*
X59919Y7750D01*
D02*
G37*
G36*
X58244Y7431D02*
X57947D01*
X57917Y7400D01*
X57947Y7370D01*
X58244D01*
Y7431D01*
D02*
G37*
G36*
X56400Y8070D02*
X56104D01*
Y7690D01*
X56400D01*
X56484Y7774D01*
Y7986D01*
X56400Y8070D01*
D02*
G37*
%LPD*%
G36*
X47128Y8292D02*
X47167Y8200D01*
X47128Y8108D01*
X47037Y8070D01*
X46945Y8108D01*
X46907Y8200D01*
X46945Y8292D01*
X47037Y8330D01*
X47128Y8292D01*
D02*
G37*
G36*
X46489D02*
X46649Y8132D01*
X46687Y8040D01*
X46649Y7948D01*
X46557Y7910D01*
X46465Y7948D01*
X46343Y8070D01*
X46131D01*
X46047Y7986D01*
Y7934D01*
X46131Y7850D01*
X46397D01*
X46489Y7812D01*
X46649Y7652D01*
X46664Y7614D01*
X46687Y7560D01*
Y7400D01*
X46649Y7309D01*
X46489Y7149D01*
X46397Y7111D01*
X46077D01*
X45985Y7149D01*
X45825Y7309D01*
X45787Y7400D01*
X45825Y7492D01*
X45917Y7530D01*
X46009Y7492D01*
X46131Y7370D01*
X46343D01*
X46427Y7454D01*
Y7507D01*
X46343Y7590D01*
X46077D01*
X45985Y7628D01*
X45825Y7788D01*
X45787Y7880D01*
Y8040D01*
X45825Y8132D01*
X45985Y8292D01*
X46077Y8330D01*
X46397D01*
X46489Y8292D01*
D02*
G37*
G36*
X42010D02*
X42048Y8200D01*
Y7240D01*
X42010Y7149D01*
X41918Y7111D01*
X41826Y7149D01*
X41788Y7240D01*
Y7590D01*
X41408D01*
Y7240D01*
X41370Y7149D01*
X41278Y7111D01*
X41187Y7149D01*
X41149Y7240D01*
Y7720D01*
Y8200D01*
X41187Y8292D01*
X41278Y8330D01*
X41370Y8292D01*
X41408Y8200D01*
Y7850D01*
X41788D01*
Y8200D01*
X41826Y8292D01*
X41918Y8330D01*
X42010Y8292D01*
D02*
G37*
G36*
X49208Y7972D02*
X49368Y7812D01*
X49406Y7720D01*
Y7560D01*
X49368Y7469D01*
X49276Y7431D01*
X48790D01*
X48850Y7370D01*
X49116D01*
X49208Y7332D01*
X49246Y7240D01*
X49208Y7149D01*
X49116Y7111D01*
X48796D01*
X48704Y7149D01*
X48544Y7309D01*
X48506Y7400D01*
Y7720D01*
X48544Y7812D01*
X48704Y7972D01*
X48796Y8010D01*
X49116D01*
X49208Y7972D01*
D02*
G37*
G36*
X48408D02*
X48446Y7880D01*
X48408Y7788D01*
X47990Y7370D01*
X48316D01*
X48408Y7332D01*
X48446Y7240D01*
X48408Y7149D01*
X48316Y7111D01*
X47676D01*
X47585Y7149D01*
X47547Y7240D01*
X47585Y7332D01*
X48003Y7750D01*
X47676D01*
X47585Y7788D01*
X47547Y7880D01*
X47585Y7972D01*
X47676Y8010D01*
X48316D01*
X48408Y7972D01*
D02*
G37*
G36*
X47128D02*
X47167Y7880D01*
Y7370D01*
X47197D01*
X47288Y7332D01*
X47326Y7240D01*
X47288Y7149D01*
X47197Y7111D01*
X46877D01*
X46785Y7149D01*
X46747Y7240D01*
X46785Y7332D01*
X46877Y7370D01*
X46907D01*
Y7750D01*
X46877D01*
X46785Y7788D01*
X46747Y7880D01*
X46785Y7972D01*
X46877Y8010D01*
X47037D01*
X47128Y7972D01*
D02*
G37*
G36*
X44569D02*
X44729Y7812D01*
X44767Y7720D01*
Y7560D01*
X44729Y7469D01*
X44637Y7431D01*
X44151D01*
X44211Y7370D01*
X44477D01*
X44569Y7332D01*
X44607Y7240D01*
X44569Y7149D01*
X44477Y7111D01*
X44158D01*
X44066Y7149D01*
X43906Y7309D01*
X43868Y7400D01*
Y7720D01*
X43906Y7812D01*
X44066Y7972D01*
X44158Y8010D01*
X44477D01*
X44569Y7972D01*
D02*
G37*
G36*
X43450Y8292D02*
X43488Y8200D01*
Y7370D01*
X43518D01*
X43610Y7332D01*
X43648Y7240D01*
X43610Y7149D01*
X43518Y7111D01*
X43198D01*
X43106Y7149D01*
X43068Y7240D01*
X43106Y7332D01*
X43198Y7370D01*
X43228D01*
Y8070D01*
X43198D01*
X43106Y8108D01*
X43068Y8200D01*
X43106Y8292D01*
X43198Y8330D01*
X43358D01*
X43450Y8292D01*
D02*
G37*
G36*
X42810Y7972D02*
X42970Y7812D01*
X43008Y7720D01*
Y7400D01*
X42970Y7309D01*
X42810Y7149D01*
X42718Y7111D01*
X42398D01*
X42306Y7149D01*
X42146Y7309D01*
X42108Y7400D01*
Y7720D01*
X42146Y7812D01*
X42306Y7972D01*
X42398Y8010D01*
X42718D01*
X42810Y7972D01*
D02*
G37*
%LPC*%
G36*
X49062Y7750D02*
X48850D01*
X48790Y7690D01*
X49122D01*
X49062Y7750D01*
D02*
G37*
G36*
X44424D02*
X44211D01*
X44151Y7690D01*
X44484D01*
X44424Y7750D01*
D02*
G37*
G36*
X42664D02*
X42452D01*
X42368Y7667D01*
Y7454D01*
X42452Y7370D01*
X42664D01*
X42748Y7454D01*
Y7667D01*
X42664Y7750D01*
D02*
G37*
%LPD*%
G36*
X34086Y8292D02*
X34245Y8132D01*
X34284Y8040D01*
X34245Y7948D01*
X34154Y7910D01*
X34062Y7948D01*
X33940Y8070D01*
X33728D01*
X33644Y7986D01*
Y7454D01*
X33728Y7370D01*
X33940D01*
X34062Y7492D01*
X34154Y7530D01*
X34245Y7492D01*
X34284Y7400D01*
X34245Y7309D01*
X34086Y7149D01*
X33994Y7111D01*
X33674D01*
X33582Y7149D01*
X33422Y7309D01*
X33384Y7400D01*
Y8040D01*
X33422Y8132D01*
X33582Y8292D01*
X33674Y8330D01*
X33994D01*
X34086Y8292D01*
D02*
G37*
G36*
X36165Y7972D02*
X36203Y7880D01*
Y7240D01*
X36165Y7149D01*
X36073Y7111D01*
X35593D01*
X35501Y7149D01*
X35341Y7309D01*
X35303Y7400D01*
Y7880D01*
X35341Y7972D01*
X35433Y8010D01*
X35525Y7972D01*
X35563Y7880D01*
Y7454D01*
X35647Y7370D01*
X35943D01*
Y7880D01*
X35981Y7972D01*
X36073Y8010D01*
X36165Y7972D01*
D02*
G37*
G36*
X37604Y8132D02*
X37642Y8040D01*
Y8010D01*
X37673D01*
X37764Y7972D01*
X37802Y7880D01*
X37764Y7788D01*
X37673Y7750D01*
X37642D01*
Y7454D01*
X37764Y7332D01*
X37802Y7240D01*
X37764Y7149D01*
X37673Y7111D01*
X37581Y7149D01*
X37421Y7309D01*
X37383Y7400D01*
Y7750D01*
X37353D01*
X37261Y7788D01*
X37223Y7880D01*
X37261Y7972D01*
X37353Y8010D01*
X37383D01*
Y8040D01*
X37421Y8132D01*
X37513Y8170D01*
X37604Y8132D01*
D02*
G37*
G36*
X36965Y7972D02*
X37125Y7812D01*
X37163Y7720D01*
Y7240D01*
X37125Y7149D01*
X37033Y7111D01*
X36941Y7149D01*
X36903Y7240D01*
Y7667D01*
X36819Y7750D01*
X36523D01*
Y7240D01*
X36485Y7149D01*
X36393Y7111D01*
X36301Y7149D01*
X36263Y7240D01*
Y7880D01*
X36301Y7972D01*
X36393Y8010D01*
X36873D01*
X36965Y7972D01*
D02*
G37*
G36*
X35045D02*
X35205Y7812D01*
X35243Y7720D01*
Y7400D01*
X35205Y7309D01*
X35045Y7149D01*
X34953Y7111D01*
X34633D01*
X34542Y7149D01*
X34382Y7309D01*
X34344Y7400D01*
Y7720D01*
X34382Y7812D01*
X34542Y7972D01*
X34633Y8010D01*
X34953D01*
X35045Y7972D01*
D02*
G37*
%LPC*%
G36*
X34900Y7750D02*
X34687D01*
X34603Y7667D01*
Y7454D01*
X34687Y7370D01*
X34900D01*
X34983Y7454D01*
Y7667D01*
X34900Y7750D01*
D02*
G37*
%LPD*%
G36*
X27287Y8292D02*
X27447Y8132D01*
X27485Y8040D01*
X27447Y7948D01*
X27355Y7910D01*
X27263Y7948D01*
X27142Y8070D01*
X26929D01*
X26845Y7986D01*
Y7934D01*
X26929Y7850D01*
X27195D01*
X27287Y7812D01*
X27447Y7652D01*
X27463Y7614D01*
X27485Y7560D01*
Y7400D01*
X27447Y7309D01*
X27287Y7149D01*
X27195Y7111D01*
X26875D01*
X26784Y7149D01*
X26624Y7309D01*
X26586Y7400D01*
X26624Y7492D01*
X26715Y7530D01*
X26807Y7492D01*
X26929Y7370D01*
X27142D01*
X27225Y7454D01*
Y7507D01*
X27142Y7590D01*
X26875D01*
X26784Y7628D01*
X26624Y7788D01*
X26586Y7880D01*
Y8040D01*
X26624Y8132D01*
X26784Y8292D01*
X26875Y8330D01*
X27195D01*
X27287Y8292D01*
D02*
G37*
G36*
X29169Y7988D02*
X29207Y7972D01*
X29207Y7972D01*
X29367Y7812D01*
X29405Y7720D01*
Y7240D01*
X29367Y7149D01*
X29275Y7111D01*
X29183Y7149D01*
X29145Y7240D01*
Y7667D01*
X29115Y7697D01*
X29085Y7667D01*
Y7240D01*
X29047Y7149D01*
X28955Y7111D01*
X28863Y7149D01*
X28825Y7240D01*
Y7667D01*
X28765Y7727D01*
Y7240D01*
X28727Y7149D01*
X28635Y7111D01*
X28543Y7149D01*
X28505Y7240D01*
Y7880D01*
X28543Y7972D01*
X28635Y8010D01*
X28795D01*
X28887Y7972D01*
X28955Y7904D01*
X29023Y7972D01*
X29061Y7988D01*
X29115Y8010D01*
X29169Y7988D01*
D02*
G37*
G36*
X31766Y8292D02*
X31804Y8200D01*
Y7370D01*
X31834D01*
X31926Y7332D01*
X31964Y7240D01*
X31926Y7149D01*
X31834Y7111D01*
X31514D01*
X31422Y7149D01*
X31384Y7240D01*
X31422Y7332D01*
X31514Y7370D01*
X31544D01*
Y8070D01*
X31514D01*
X31422Y8108D01*
X31384Y8200D01*
X31422Y8292D01*
X31514Y8330D01*
X31674D01*
X31766Y8292D01*
D02*
G37*
G36*
X31126Y7972D02*
X31286Y7812D01*
X31324Y7720D01*
Y7400D01*
X31286Y7309D01*
X31126Y7149D01*
X31034Y7111D01*
X30714D01*
X30622Y7149D01*
X30462Y7309D01*
X30424Y7400D01*
Y7720D01*
X30462Y7812D01*
X30622Y7972D01*
X30714Y8010D01*
X31034D01*
X31126Y7972D01*
D02*
G37*
G36*
X29686Y8292D02*
X29724Y8200D01*
Y8010D01*
X30074D01*
X30166Y7972D01*
X30326Y7812D01*
X30364Y7720D01*
Y7560D01*
Y7400D01*
X30326Y7309D01*
X30166Y7149D01*
X30074Y7111D01*
X29595D01*
X29503Y7149D01*
X29465Y7240D01*
Y8200D01*
X29503Y8292D01*
X29595Y8330D01*
X29686Y8292D01*
D02*
G37*
%LPC*%
G36*
X30980Y7750D02*
X30768D01*
X30684Y7667D01*
Y7454D01*
X30768Y7370D01*
X30980D01*
X31064Y7454D01*
Y7667D01*
X30980Y7750D01*
D02*
G37*
G36*
X30021D02*
X29724D01*
Y7370D01*
X30021D01*
X30104Y7454D01*
Y7560D01*
Y7667D01*
X30021Y7750D01*
D02*
G37*
%LPD*%
G36*
X64963Y5831D02*
X64986Y5774D01*
Y5240D01*
X64963Y5183D01*
X64905Y5159D01*
X64505D01*
X64448Y5183D01*
X64315Y5316D01*
X64291Y5374D01*
Y5774D01*
X64315Y5831D01*
X64372Y5855D01*
X64429Y5831D01*
X64453Y5774D01*
Y5407D01*
X64539Y5322D01*
X64824D01*
Y5774D01*
X64848Y5831D01*
X64905Y5855D01*
X64963Y5831D01*
D02*
G37*
G36*
X66562Y6098D02*
X66586Y6040D01*
Y5240D01*
X66562Y5183D01*
X66505Y5159D01*
X66105D01*
X66047Y5183D01*
X65914Y5316D01*
X65890Y5374D01*
Y5640D01*
X65914Y5698D01*
X66047Y5831D01*
X66105Y5855D01*
X66424D01*
Y6040D01*
X66447Y6098D01*
X66505Y6121D01*
X66562Y6098D01*
D02*
G37*
G36*
X65629Y5831D02*
X65762Y5698D01*
X65786Y5640D01*
Y5240D01*
X65762Y5183D01*
X65705Y5159D01*
X65648Y5183D01*
X65624Y5240D01*
Y5607D01*
X65538Y5692D01*
X65253D01*
Y5240D01*
X65229Y5183D01*
X65172Y5159D01*
X65114Y5183D01*
X65091Y5240D01*
Y5774D01*
X65114Y5831D01*
X65172Y5855D01*
X65572D01*
X65629Y5831D01*
D02*
G37*
G36*
X64030D02*
X64163Y5698D01*
X64187Y5640D01*
Y5374D01*
X64163Y5316D01*
X64030Y5183D01*
X63972Y5159D01*
X63706D01*
X63648Y5183D01*
X63515Y5316D01*
X63491Y5374D01*
Y5640D01*
X63515Y5698D01*
X63648Y5831D01*
X63706Y5855D01*
X63972D01*
X64030Y5831D01*
D02*
G37*
G36*
X63230Y6098D02*
X63363Y5964D01*
X63387Y5907D01*
Y5640D01*
X63363Y5583D01*
X63230Y5450D01*
X63217Y5444D01*
X63363Y5298D01*
X63387Y5240D01*
X63363Y5183D01*
X63306Y5159D01*
X63248Y5183D01*
X63006Y5426D01*
X62854D01*
Y5240D01*
X62830Y5183D01*
X62773Y5159D01*
X62715Y5183D01*
X62691Y5240D01*
Y6040D01*
X62715Y6098D01*
X62773Y6121D01*
X63172D01*
X63230Y6098D01*
D02*
G37*
G36*
X64963Y3831D02*
X64986Y3774D01*
Y3240D01*
X64963Y3183D01*
X64905Y3159D01*
X64505D01*
X64448Y3183D01*
X64315Y3316D01*
X64291Y3374D01*
Y3774D01*
X64315Y3831D01*
X64372Y3855D01*
X64429Y3831D01*
X64453Y3774D01*
Y3407D01*
X64539Y3322D01*
X64824D01*
Y3774D01*
X64848Y3831D01*
X64905Y3855D01*
X64963Y3831D01*
D02*
G37*
G36*
X66562Y4098D02*
X66586Y4040D01*
Y3240D01*
X66562Y3183D01*
X66505Y3159D01*
X66105D01*
X66047Y3183D01*
X65914Y3316D01*
X65890Y3374D01*
Y3640D01*
X65914Y3698D01*
X66047Y3831D01*
X66105Y3855D01*
X66424D01*
Y4040D01*
X66447Y4098D01*
X66505Y4121D01*
X66562Y4098D01*
D02*
G37*
G36*
X65629Y3831D02*
X65762Y3698D01*
X65786Y3640D01*
Y3240D01*
X65762Y3183D01*
X65705Y3159D01*
X65648Y3183D01*
X65624Y3240D01*
Y3607D01*
X65538Y3692D01*
X65253D01*
Y3240D01*
X65229Y3183D01*
X65172Y3159D01*
X65114Y3183D01*
X65091Y3240D01*
Y3774D01*
X65114Y3831D01*
X65172Y3855D01*
X65572D01*
X65629Y3831D01*
D02*
G37*
G36*
X64030D02*
X64163Y3698D01*
X64187Y3640D01*
Y3374D01*
X64163Y3316D01*
X64030Y3183D01*
X63972Y3159D01*
X63706D01*
X63648Y3183D01*
X63515Y3316D01*
X63491Y3374D01*
Y3640D01*
X63515Y3698D01*
X63648Y3831D01*
X63706Y3855D01*
X63972D01*
X64030Y3831D01*
D02*
G37*
G36*
X63230Y4098D02*
X63363Y3964D01*
X63387Y3907D01*
Y3640D01*
X63363Y3583D01*
X63230Y3450D01*
X63217Y3444D01*
X63363Y3298D01*
X63387Y3240D01*
X63363Y3183D01*
X63306Y3159D01*
X63248Y3183D01*
X63006Y3426D01*
X62854D01*
Y3240D01*
X62830Y3183D01*
X62773Y3159D01*
X62715Y3183D01*
X62691Y3240D01*
Y4040D01*
X62715Y4098D01*
X62773Y4121D01*
X63172D01*
X63230Y4098D01*
D02*
G37*
%LPC*%
G36*
X66424Y5692D02*
X66138D01*
X66053Y5607D01*
Y5407D01*
X66138Y5322D01*
X66424D01*
Y5692D01*
D02*
G37*
G36*
X63939D02*
X63739D01*
X63653Y5607D01*
Y5407D01*
X63739Y5322D01*
X63939D01*
X64024Y5407D01*
Y5607D01*
X63939Y5692D01*
D02*
G37*
G36*
X63139Y5959D02*
X62854D01*
Y5588D01*
X63139D01*
X63225Y5674D01*
Y5873D01*
X63139Y5959D01*
D02*
G37*
G36*
X66424Y3692D02*
X66138D01*
X66053Y3607D01*
Y3407D01*
X66138Y3322D01*
X66424D01*
Y3692D01*
D02*
G37*
G36*
X63939D02*
X63739D01*
X63653Y3607D01*
Y3407D01*
X63739Y3322D01*
X63939D01*
X64024Y3407D01*
Y3607D01*
X63939Y3692D01*
D02*
G37*
G36*
X63139Y3959D02*
X62854D01*
Y3588D01*
X63139D01*
X63225Y3674D01*
Y3873D01*
X63139Y3959D01*
D02*
G37*
%LPD*%
G36*
X58164Y6098D02*
X58188Y6040D01*
Y5240D01*
X58164Y5183D01*
X58107Y5159D01*
X58049Y5183D01*
X58026Y5240D01*
Y5559D01*
X57655D01*
Y5240D01*
X57631Y5183D01*
X57574Y5159D01*
X57516Y5183D01*
X57493Y5240D01*
Y5640D01*
Y6040D01*
X57516Y6098D01*
X57574Y6121D01*
X57631Y6098D01*
X57655Y6040D01*
Y5722D01*
X58026D01*
Y6040D01*
X58049Y6098D01*
X58107Y6121D01*
X58164Y6098D01*
D02*
G37*
G36*
X57365D02*
X57388Y6040D01*
X57365Y5983D01*
X57307Y5959D01*
X57122D01*
Y5240D01*
X57098Y5183D01*
X57041Y5159D01*
X56983Y5183D01*
X56959Y5240D01*
Y5959D01*
X56774D01*
X56717Y5983D01*
X56693Y6040D01*
X56717Y6098D01*
X56774Y6121D01*
X57307D01*
X57365Y6098D01*
D02*
G37*
G36*
X56431D02*
X56565Y5964D01*
X56589Y5907D01*
Y5640D01*
X56565Y5583D01*
X56431Y5450D01*
X56374Y5426D01*
X56055D01*
Y5240D01*
X56032Y5183D01*
X55974Y5159D01*
X55917Y5183D01*
X55893Y5240D01*
Y6040D01*
X55917Y6098D01*
X55974Y6121D01*
X56374D01*
X56431Y6098D01*
D02*
G37*
G36*
X58164Y4098D02*
X58188Y4040D01*
Y3240D01*
X58164Y3183D01*
X58107Y3159D01*
X58049Y3183D01*
X58026Y3240D01*
Y3559D01*
X57655D01*
Y3240D01*
X57631Y3183D01*
X57574Y3159D01*
X57516Y3183D01*
X57493Y3240D01*
Y3640D01*
Y4040D01*
X57516Y4098D01*
X57574Y4121D01*
X57631Y4098D01*
X57655Y4040D01*
Y3722D01*
X58026D01*
Y4040D01*
X58049Y4098D01*
X58107Y4121D01*
X58164Y4098D01*
D02*
G37*
G36*
X57365D02*
X57388Y4040D01*
X57365Y3983D01*
X57307Y3959D01*
X57122D01*
Y3240D01*
X57098Y3183D01*
X57041Y3159D01*
X56983Y3183D01*
X56959Y3240D01*
Y3959D01*
X56774D01*
X56717Y3983D01*
X56693Y4040D01*
X56717Y4098D01*
X56774Y4121D01*
X57307D01*
X57365Y4098D01*
D02*
G37*
G36*
X56431D02*
X56565Y3964D01*
X56589Y3907D01*
Y3640D01*
X56565Y3583D01*
X56431Y3450D01*
X56374Y3426D01*
X56055D01*
Y3240D01*
X56032Y3183D01*
X55974Y3159D01*
X55917Y3183D01*
X55893Y3240D01*
Y4040D01*
X55917Y4098D01*
X55974Y4121D01*
X56374D01*
X56431Y4098D01*
D02*
G37*
%LPC*%
G36*
X56340Y5959D02*
X56055D01*
Y5588D01*
X56340D01*
X56426Y5674D01*
Y5873D01*
X56340Y5959D01*
D02*
G37*
G36*
Y3959D02*
X56055D01*
Y3588D01*
X56340D01*
X56426Y3674D01*
Y3873D01*
X56340Y3959D01*
D02*
G37*
%LPD*%
G36*
X53065Y6098D02*
X53089Y6040D01*
X53065Y5983D01*
X53008Y5959D01*
X52951Y5983D01*
X52927Y6040D01*
X52951Y6098D01*
X53008Y6121D01*
X53065Y6098D01*
D02*
G37*
G36*
X52532Y5831D02*
X52666Y5698D01*
X52689Y5640D01*
Y5240D01*
X52666Y5183D01*
X52608Y5159D01*
X52551Y5183D01*
X52527Y5240D01*
Y5607D01*
X52475Y5659D01*
X52423Y5607D01*
Y5240D01*
X52399Y5183D01*
X52342Y5159D01*
X52284Y5183D01*
X52260Y5240D01*
Y5607D01*
X52175Y5692D01*
X52156D01*
Y5240D01*
X52132Y5183D01*
X52075Y5159D01*
X52018Y5183D01*
X51994Y5240D01*
Y5774D01*
X52018Y5831D01*
X52075Y5855D01*
X52208D01*
X52266Y5831D01*
X52342Y5755D01*
X52417Y5831D01*
X52475Y5855D01*
X52532Y5831D01*
D02*
G37*
G36*
X46401D02*
X46534Y5698D01*
X46558Y5640D01*
Y5240D01*
X46534Y5183D01*
X46477Y5159D01*
X46419Y5183D01*
X46396Y5240D01*
Y5607D01*
X46344Y5659D01*
X46291Y5607D01*
Y5240D01*
X46268Y5183D01*
X46210Y5159D01*
X46153Y5183D01*
X46129Y5240D01*
Y5607D01*
X46043Y5692D01*
X46025D01*
Y5240D01*
X46001Y5183D01*
X45944Y5159D01*
X45886Y5183D01*
X45862Y5240D01*
Y5774D01*
X45886Y5831D01*
X45944Y5855D01*
X46077D01*
X46134Y5831D01*
X46210Y5755D01*
X46286Y5831D01*
X46344Y5855D01*
X46401Y5831D01*
D02*
G37*
G36*
X45601D02*
X45734Y5698D01*
X45758Y5640D01*
Y5240D01*
X45734Y5183D01*
X45677Y5159D01*
X45620Y5183D01*
X45596Y5240D01*
Y5607D01*
X45544Y5659D01*
X45492Y5607D01*
Y5240D01*
X45468Y5183D01*
X45410Y5159D01*
X45353Y5183D01*
X45329Y5240D01*
Y5607D01*
X45244Y5692D01*
X45225D01*
Y5240D01*
X45201Y5183D01*
X45144Y5159D01*
X45086Y5183D01*
X45063Y5240D01*
Y5774D01*
X45086Y5831D01*
X45144Y5855D01*
X45277D01*
X45335Y5831D01*
X45410Y5755D01*
X45486Y5831D01*
X45544Y5855D01*
X45601Y5831D01*
D02*
G37*
G36*
X51733Y6098D02*
X51866Y5964D01*
X51890Y5907D01*
Y5374D01*
X51866Y5316D01*
X51733Y5183D01*
X51675Y5159D01*
X51409D01*
X51351Y5183D01*
X51218Y5316D01*
X51194Y5374D01*
X51218Y5431D01*
X51275Y5455D01*
X51333Y5431D01*
X51442Y5322D01*
X51642D01*
X51727Y5407D01*
Y5559D01*
X51409D01*
X51351Y5583D01*
X51218Y5716D01*
X51194Y5774D01*
Y5907D01*
X51218Y5964D01*
X51351Y6098D01*
X51409Y6121D01*
X51675D01*
X51733Y6098D01*
D02*
G37*
G36*
X51066D02*
X51090Y6040D01*
X51066Y5983D01*
X51009Y5959D01*
X50557D01*
Y5772D01*
X50706Y5846D01*
X50725Y5848D01*
X50742Y5855D01*
X50875D01*
X50933Y5831D01*
X51066Y5698D01*
X51090Y5640D01*
Y5374D01*
X51066Y5316D01*
X50933Y5183D01*
X50875Y5159D01*
X50609D01*
X50551Y5183D01*
X50418Y5316D01*
X50394Y5374D01*
X50418Y5431D01*
X50476Y5455D01*
X50533Y5431D01*
X50642Y5322D01*
X50842D01*
X50928Y5407D01*
Y5607D01*
X50842Y5692D01*
X50761D01*
X50512Y5568D01*
X50493Y5566D01*
X50476Y5559D01*
X50463Y5564D01*
X50450Y5563D01*
X50436Y5576D01*
X50418Y5583D01*
X50413Y5595D01*
X50403Y5604D01*
X50402Y5623D01*
X50394Y5640D01*
Y6040D01*
X50418Y6098D01*
X50476Y6121D01*
X51009D01*
X51066Y6098D01*
D02*
G37*
G36*
X49600D02*
X49624Y6040D01*
X49600Y5983D01*
X49542Y5959D01*
X49090D01*
Y5772D01*
X49240Y5846D01*
X49258Y5848D01*
X49276Y5855D01*
X49409D01*
X49467Y5831D01*
X49600Y5698D01*
X49624Y5640D01*
Y5374D01*
X49600Y5316D01*
X49467Y5183D01*
X49409Y5159D01*
X49143D01*
X49085Y5183D01*
X48952Y5316D01*
X48928Y5374D01*
X48952Y5431D01*
X49009Y5455D01*
X49067Y5431D01*
X49176Y5322D01*
X49376D01*
X49461Y5407D01*
Y5607D01*
X49376Y5692D01*
X49295D01*
X49046Y5568D01*
X49027Y5566D01*
X49009Y5559D01*
X48997Y5564D01*
X48984Y5563D01*
X48969Y5576D01*
X48952Y5583D01*
X48947Y5595D01*
X48937Y5604D01*
X48935Y5623D01*
X48928Y5640D01*
Y6040D01*
X48952Y6098D01*
X49009Y6121D01*
X49542D01*
X49600Y6098D01*
D02*
G37*
G36*
X44135D02*
X44159Y6040D01*
X44135Y5983D01*
X44078Y5959D01*
X43626D01*
Y5772D01*
X43775Y5846D01*
X43794Y5848D01*
X43811Y5855D01*
X43944D01*
X44002Y5831D01*
X44135Y5698D01*
X44159Y5640D01*
Y5374D01*
X44135Y5316D01*
X44002Y5183D01*
X43944Y5159D01*
X43678D01*
X43620Y5183D01*
X43487Y5316D01*
X43463Y5374D01*
X43487Y5431D01*
X43544Y5455D01*
X43602Y5431D01*
X43711Y5322D01*
X43911D01*
X43996Y5407D01*
Y5607D01*
X43911Y5692D01*
X43830D01*
X43581Y5568D01*
X43562Y5566D01*
X43544Y5559D01*
X43532Y5564D01*
X43519Y5563D01*
X43504Y5576D01*
X43487Y5583D01*
X43482Y5595D01*
X43472Y5604D01*
X43470Y5623D01*
X43463Y5640D01*
Y6040D01*
X43487Y6098D01*
X43544Y6121D01*
X44078D01*
X44135Y6098D01*
D02*
G37*
G36*
X54265D02*
X54532Y5831D01*
X54555Y5774D01*
Y5507D01*
X54532Y5450D01*
X54265Y5183D01*
X54208Y5159D01*
X54150Y5183D01*
X54126Y5240D01*
X54150Y5298D01*
X54393Y5541D01*
Y5740D01*
X54150Y5983D01*
X54126Y6040D01*
X54150Y6098D01*
X54208Y6121D01*
X54265Y6098D01*
D02*
G37*
G36*
X53732D02*
X53756Y6040D01*
Y5322D01*
X53808D01*
X53865Y5298D01*
X53889Y5240D01*
X53865Y5183D01*
X53808Y5159D01*
X53541D01*
X53484Y5183D01*
X53460Y5240D01*
X53484Y5298D01*
X53541Y5322D01*
X53593D01*
Y5959D01*
X53541D01*
X53484Y5983D01*
X53460Y6040D01*
X53484Y6098D01*
X53541Y6121D01*
X53674D01*
X53732Y6098D01*
D02*
G37*
G36*
X53065Y5831D02*
X53089Y5774D01*
Y5322D01*
X53141D01*
X53199Y5298D01*
X53222Y5240D01*
X53199Y5183D01*
X53141Y5159D01*
X52875D01*
X52817Y5183D01*
X52794Y5240D01*
X52817Y5298D01*
X52875Y5322D01*
X52927D01*
Y5692D01*
X52875D01*
X52817Y5716D01*
X52794Y5774D01*
X52817Y5831D01*
X52875Y5855D01*
X53008D01*
X53065Y5831D01*
D02*
G37*
G36*
X50000Y5431D02*
X50024Y5374D01*
Y5240D01*
X50000Y5183D01*
X49942Y5159D01*
X49809D01*
X49752Y5183D01*
X49728Y5240D01*
Y5374D01*
X49752Y5431D01*
X49809Y5455D01*
X49942D01*
X50000Y5431D01*
D02*
G37*
G36*
X48667Y6098D02*
X48800Y5964D01*
X48824Y5907D01*
Y5774D01*
X48800Y5716D01*
X48406Y5322D01*
X48743D01*
X48800Y5298D01*
X48824Y5240D01*
X48800Y5183D01*
X48743Y5159D01*
X48210D01*
X48152Y5183D01*
X48128Y5240D01*
X48152Y5298D01*
X48662Y5807D01*
Y5873D01*
X48576Y5959D01*
X48376D01*
X48267Y5850D01*
X48210Y5826D01*
X48152Y5850D01*
X48128Y5907D01*
X48152Y5964D01*
X48285Y6098D01*
X48343Y6121D01*
X48609D01*
X48667Y6098D01*
D02*
G37*
G36*
X47867D02*
X47891Y6040D01*
X47867Y5983D01*
X47624Y5740D01*
Y5541D01*
X47867Y5298D01*
X47891Y5240D01*
X47867Y5183D01*
X47810Y5159D01*
X47752Y5183D01*
X47486Y5450D01*
X47462Y5507D01*
Y5774D01*
X47486Y5831D01*
X47752Y6098D01*
X47810Y6121D01*
X47867Y6098D01*
D02*
G37*
G36*
X44801D02*
X44935Y5964D01*
X44958Y5907D01*
Y5374D01*
X44935Y5316D01*
X44801Y5183D01*
X44744Y5159D01*
X44477D01*
X44420Y5183D01*
X44287Y5316D01*
X44263Y5374D01*
Y5907D01*
X44287Y5964D01*
X44420Y6098D01*
X44477Y6121D01*
X44744D01*
X44801Y6098D01*
D02*
G37*
G36*
X43350Y6077D02*
X43355Y6015D01*
X43314Y5968D01*
X43059Y5840D01*
X42941Y5722D01*
X43145D01*
X43202Y5698D01*
X43335Y5564D01*
X43359Y5507D01*
Y5374D01*
X43335Y5316D01*
X43202Y5183D01*
X43145Y5159D01*
X42878D01*
X42821Y5183D01*
X42687Y5316D01*
X42664Y5374D01*
Y5640D01*
X42687Y5698D01*
X42954Y5964D01*
X42966Y5969D01*
X42975Y5980D01*
X43242Y6113D01*
X43304Y6117D01*
X43350Y6077D01*
D02*
G37*
G36*
X42269Y5431D02*
X42293Y5374D01*
Y5240D01*
X42269Y5183D01*
X42212Y5159D01*
X42078D01*
X42021Y5183D01*
X41997Y5240D01*
Y5374D01*
X42021Y5431D01*
X42078Y5455D01*
X42212D01*
X42269Y5431D01*
D02*
G37*
G36*
X41736Y6098D02*
X41869Y5964D01*
X41893Y5907D01*
Y5374D01*
X41869Y5316D01*
X41736Y5183D01*
X41678Y5159D01*
X41412D01*
X41354Y5183D01*
X41221Y5316D01*
X41197Y5374D01*
Y5907D01*
X41221Y5964D01*
X41354Y6098D01*
X41412Y6121D01*
X41678D01*
X41736Y6098D01*
D02*
G37*
G36*
X52666Y4098D02*
X52689Y4040D01*
X52666Y3983D01*
X52608Y3959D01*
X52551Y3983D01*
X52527Y4040D01*
X52551Y4098D01*
X52608Y4121D01*
X52666Y4098D01*
D02*
G37*
G36*
X52132Y3831D02*
X52266Y3698D01*
X52289Y3640D01*
Y3240D01*
X52266Y3183D01*
X52208Y3159D01*
X52151Y3183D01*
X52127Y3240D01*
Y3607D01*
X52075Y3659D01*
X52023Y3607D01*
Y3240D01*
X51999Y3183D01*
X51942Y3159D01*
X51884Y3183D01*
X51861Y3240D01*
Y3607D01*
X51775Y3692D01*
X51756D01*
Y3240D01*
X51733Y3183D01*
X51675Y3159D01*
X51618Y3183D01*
X51594Y3240D01*
Y3774D01*
X51618Y3831D01*
X51675Y3855D01*
X51808D01*
X51866Y3831D01*
X51942Y3755D01*
X52018Y3831D01*
X52075Y3855D01*
X52132Y3831D01*
D02*
G37*
G36*
X46401D02*
X46534Y3698D01*
X46558Y3640D01*
Y3240D01*
X46534Y3183D01*
X46477Y3159D01*
X46419Y3183D01*
X46396Y3240D01*
Y3607D01*
X46344Y3659D01*
X46291Y3607D01*
Y3240D01*
X46268Y3183D01*
X46210Y3159D01*
X46153Y3183D01*
X46129Y3240D01*
Y3607D01*
X46043Y3692D01*
X46025D01*
Y3240D01*
X46001Y3183D01*
X45944Y3159D01*
X45886Y3183D01*
X45862Y3240D01*
Y3774D01*
X45886Y3831D01*
X45944Y3855D01*
X46077D01*
X46134Y3831D01*
X46210Y3755D01*
X46286Y3831D01*
X46344Y3855D01*
X46401Y3831D01*
D02*
G37*
G36*
X45601D02*
X45734Y3698D01*
X45758Y3640D01*
Y3240D01*
X45734Y3183D01*
X45677Y3159D01*
X45620Y3183D01*
X45596Y3240D01*
Y3607D01*
X45544Y3659D01*
X45492Y3607D01*
Y3240D01*
X45468Y3183D01*
X45410Y3159D01*
X45353Y3183D01*
X45329Y3240D01*
Y3607D01*
X45244Y3692D01*
X45225D01*
Y3240D01*
X45201Y3183D01*
X45144Y3159D01*
X45086Y3183D01*
X45063Y3240D01*
Y3774D01*
X45086Y3831D01*
X45144Y3855D01*
X45277D01*
X45335Y3831D01*
X45410Y3755D01*
X45486Y3831D01*
X45544Y3855D01*
X45601Y3831D01*
D02*
G37*
G36*
X43202Y4098D02*
X43335Y3964D01*
X43359Y3907D01*
Y3774D01*
X43335Y3716D01*
X43259Y3640D01*
X43335Y3564D01*
X43359Y3507D01*
Y3374D01*
X43335Y3316D01*
X43202Y3183D01*
X43145Y3159D01*
X42878D01*
X42821Y3183D01*
X42687Y3316D01*
X42664Y3374D01*
X42687Y3431D01*
X42745Y3455D01*
X42802Y3431D01*
X42912Y3322D01*
X43111D01*
X43197Y3407D01*
Y3473D01*
X43111Y3559D01*
X43011D01*
X42954Y3583D01*
X42930Y3640D01*
X42954Y3698D01*
X43011Y3722D01*
X43111D01*
X43197Y3807D01*
Y3873D01*
X43111Y3959D01*
X42912D01*
X42802Y3850D01*
X42745Y3826D01*
X42687Y3850D01*
X42664Y3907D01*
X42687Y3964D01*
X42821Y4098D01*
X42878Y4121D01*
X43145D01*
X43202Y4098D01*
D02*
G37*
G36*
X53865D02*
X54132Y3831D01*
X54156Y3774D01*
Y3507D01*
X54132Y3450D01*
X53865Y3183D01*
X53808Y3159D01*
X53750Y3183D01*
X53727Y3240D01*
X53750Y3298D01*
X53993Y3541D01*
Y3740D01*
X53750Y3983D01*
X53727Y4040D01*
X53750Y4098D01*
X53808Y4121D01*
X53865Y4098D01*
D02*
G37*
G36*
X53332D02*
X53356Y4040D01*
Y3322D01*
X53408D01*
X53465Y3298D01*
X53489Y3240D01*
X53465Y3183D01*
X53408Y3159D01*
X53141D01*
X53084Y3183D01*
X53060Y3240D01*
X53084Y3298D01*
X53141Y3322D01*
X53193D01*
Y3959D01*
X53141D01*
X53084Y3983D01*
X53060Y4040D01*
X53084Y4098D01*
X53141Y4121D01*
X53275D01*
X53332Y4098D01*
D02*
G37*
G36*
X52666Y3831D02*
X52689Y3774D01*
Y3322D01*
X52741D01*
X52799Y3298D01*
X52823Y3240D01*
X52799Y3183D01*
X52741Y3159D01*
X52475D01*
X52417Y3183D01*
X52394Y3240D01*
X52417Y3298D01*
X52475Y3322D01*
X52527D01*
Y3692D01*
X52475D01*
X52417Y3716D01*
X52394Y3774D01*
X52417Y3831D01*
X52475Y3855D01*
X52608D01*
X52666Y3831D01*
D02*
G37*
G36*
X51199Y4098D02*
X51223Y4040D01*
Y3322D01*
X51275D01*
X51333Y3298D01*
X51356Y3240D01*
X51333Y3183D01*
X51275Y3159D01*
X51009D01*
X50951Y3183D01*
X50928Y3240D01*
X50951Y3298D01*
X51009Y3322D01*
X51061D01*
Y3847D01*
X51009Y3826D01*
X50951Y3850D01*
X50928Y3907D01*
X50951Y3964D01*
X51085Y4098D01*
X51142Y4121D01*
X51199Y4098D01*
D02*
G37*
G36*
X50666D02*
X50799Y3964D01*
X50823Y3907D01*
Y3774D01*
X50799Y3716D01*
X50724Y3640D01*
X50799Y3564D01*
X50823Y3507D01*
Y3374D01*
X50799Y3316D01*
X50666Y3183D01*
X50609Y3159D01*
X50342D01*
X50285Y3183D01*
X50152Y3316D01*
X50128Y3374D01*
Y3507D01*
X50152Y3564D01*
X50227Y3640D01*
X50152Y3716D01*
X50128Y3774D01*
Y3907D01*
X50152Y3964D01*
X50285Y4098D01*
X50342Y4121D01*
X50609D01*
X50666Y4098D01*
D02*
G37*
G36*
X49733Y3431D02*
X49757Y3374D01*
Y3240D01*
X49733Y3183D01*
X49676Y3159D01*
X49542D01*
X49485Y3183D01*
X49461Y3240D01*
Y3374D01*
X49485Y3431D01*
X49542Y3455D01*
X49676D01*
X49733Y3431D01*
D02*
G37*
G36*
X49067Y4098D02*
X49091Y4040D01*
Y3322D01*
X49143D01*
X49200Y3298D01*
X49224Y3240D01*
X49200Y3183D01*
X49143Y3159D01*
X48876D01*
X48819Y3183D01*
X48795Y3240D01*
X48819Y3298D01*
X48876Y3322D01*
X48928D01*
Y3847D01*
X48876Y3826D01*
X48819Y3850D01*
X48795Y3907D01*
X48819Y3964D01*
X48952Y4098D01*
X49009Y4121D01*
X49067Y4098D01*
D02*
G37*
G36*
X48400D02*
X48424Y4040D01*
Y3322D01*
X48476D01*
X48534Y3298D01*
X48557Y3240D01*
X48534Y3183D01*
X48476Y3159D01*
X48210D01*
X48152Y3183D01*
X48128Y3240D01*
X48152Y3298D01*
X48210Y3322D01*
X48262D01*
Y3847D01*
X48210Y3826D01*
X48152Y3850D01*
X48128Y3907D01*
X48152Y3964D01*
X48285Y4098D01*
X48343Y4121D01*
X48400Y4098D01*
D02*
G37*
G36*
X47867D02*
X47891Y4040D01*
X47867Y3983D01*
X47624Y3740D01*
Y3541D01*
X47867Y3298D01*
X47891Y3240D01*
X47867Y3183D01*
X47810Y3159D01*
X47752Y3183D01*
X47486Y3450D01*
X47462Y3507D01*
Y3774D01*
X47486Y3831D01*
X47752Y4098D01*
X47810Y4121D01*
X47867Y4098D01*
D02*
G37*
G36*
X44801D02*
X44935Y3964D01*
X44958Y3907D01*
Y3374D01*
X44935Y3316D01*
X44801Y3183D01*
X44744Y3159D01*
X44477D01*
X44420Y3183D01*
X44287Y3316D01*
X44263Y3374D01*
Y3907D01*
X44287Y3964D01*
X44420Y4098D01*
X44477Y4121D01*
X44744D01*
X44801Y4098D01*
D02*
G37*
G36*
X44002D02*
X44135Y3964D01*
X44159Y3907D01*
Y3374D01*
X44135Y3316D01*
X44002Y3183D01*
X43944Y3159D01*
X43678D01*
X43620Y3183D01*
X43487Y3316D01*
X43463Y3374D01*
Y3907D01*
X43487Y3964D01*
X43620Y4098D01*
X43678Y4121D01*
X43944D01*
X44002Y4098D01*
D02*
G37*
G36*
X42269Y3431D02*
X42293Y3374D01*
Y3240D01*
X42269Y3183D01*
X42212Y3159D01*
X42078D01*
X42021Y3183D01*
X41997Y3240D01*
Y3374D01*
X42021Y3431D01*
X42078Y3455D01*
X42212D01*
X42269Y3431D01*
D02*
G37*
G36*
X41736Y4098D02*
X41869Y3964D01*
X41893Y3907D01*
Y3374D01*
X41869Y3316D01*
X41736Y3183D01*
X41678Y3159D01*
X41412D01*
X41354Y3183D01*
X41221Y3316D01*
X41197Y3374D01*
Y3907D01*
X41221Y3964D01*
X41354Y4098D01*
X41412Y4121D01*
X41678D01*
X41736Y4098D01*
D02*
G37*
%LPC*%
G36*
X51642Y5959D02*
X51442D01*
X51356Y5873D01*
Y5807D01*
X51442Y5722D01*
X51727D01*
Y5873D01*
X51642Y5959D01*
D02*
G37*
G36*
X44710D02*
X44511D01*
X44425Y5873D01*
Y5407D01*
X44511Y5322D01*
X44710D01*
X44796Y5407D01*
Y5873D01*
X44710Y5959D01*
D02*
G37*
G36*
X43111Y5559D02*
X42826D01*
Y5407D01*
X42912Y5322D01*
X43111D01*
X43197Y5407D01*
Y5473D01*
X43111Y5559D01*
D02*
G37*
G36*
X41645Y5959D02*
X41445D01*
X41360Y5873D01*
Y5407D01*
X41445Y5322D01*
X41645D01*
X41730Y5407D01*
Y5873D01*
X41645Y5959D01*
D02*
G37*
G36*
X50575Y3959D02*
X50376D01*
X50290Y3873D01*
Y3807D01*
X50376Y3722D01*
X50575D01*
X50661Y3807D01*
Y3873D01*
X50575Y3959D01*
D02*
G37*
G36*
Y3559D02*
X50376D01*
X50290Y3473D01*
Y3407D01*
X50376Y3322D01*
X50575D01*
X50661Y3407D01*
Y3473D01*
X50575Y3559D01*
D02*
G37*
G36*
X44710Y3959D02*
X44511D01*
X44425Y3873D01*
Y3407D01*
X44511Y3322D01*
X44710D01*
X44796Y3407D01*
Y3873D01*
X44710Y3959D01*
D02*
G37*
G36*
X43911D02*
X43711D01*
X43626Y3873D01*
Y3407D01*
X43711Y3322D01*
X43911D01*
X43996Y3407D01*
Y3873D01*
X43911Y3959D01*
D02*
G37*
G36*
X41645D02*
X41445D01*
X41360Y3873D01*
Y3407D01*
X41445Y3322D01*
X41645D01*
X41730Y3407D01*
Y3873D01*
X41645Y3959D01*
D02*
G37*
%LPD*%
G36*
X34638Y6098D02*
X34771Y5964D01*
X34795Y5907D01*
Y5374D01*
X34771Y5316D01*
X34638Y5183D01*
X34580Y5159D01*
X34314D01*
X34256Y5183D01*
X34123Y5316D01*
X34099Y5374D01*
Y5907D01*
X34123Y5964D01*
X34256Y6098D01*
X34314Y6121D01*
X34580D01*
X34638Y6098D01*
D02*
G37*
G36*
X33705D02*
X33728Y6040D01*
Y5322D01*
X33780D01*
X33838Y5298D01*
X33862Y5240D01*
X33838Y5183D01*
X33780Y5159D01*
X33514D01*
X33456Y5183D01*
X33433Y5240D01*
X33456Y5298D01*
X33514Y5322D01*
X33566D01*
Y5847D01*
X33514Y5826D01*
X33456Y5850D01*
X33433Y5907D01*
X33456Y5964D01*
X33590Y6098D01*
X33647Y6121D01*
X33705Y6098D01*
D02*
G37*
G36*
X35037Y4098D02*
X35061Y4040D01*
Y3322D01*
X35113D01*
X35171Y3298D01*
X35195Y3240D01*
X35171Y3183D01*
X35113Y3159D01*
X34847D01*
X34789Y3183D01*
X34766Y3240D01*
X34789Y3298D01*
X34847Y3322D01*
X34899D01*
Y3847D01*
X34847Y3826D01*
X34789Y3850D01*
X34766Y3907D01*
X34789Y3964D01*
X34923Y4098D01*
X34980Y4121D01*
X35037Y4098D01*
D02*
G37*
G36*
X34371D02*
X34395Y4040D01*
Y3322D01*
X34447D01*
X34504Y3298D01*
X34528Y3240D01*
X34504Y3183D01*
X34447Y3159D01*
X34180D01*
X34123Y3183D01*
X34099Y3240D01*
X34123Y3298D01*
X34180Y3322D01*
X34232D01*
Y3847D01*
X34180Y3826D01*
X34123Y3850D01*
X34099Y3907D01*
X34123Y3964D01*
X34256Y4098D01*
X34314Y4121D01*
X34371Y4098D01*
D02*
G37*
G36*
X33705D02*
X33728Y4040D01*
Y3322D01*
X33780D01*
X33838Y3298D01*
X33862Y3240D01*
X33838Y3183D01*
X33780Y3159D01*
X33514D01*
X33456Y3183D01*
X33433Y3240D01*
X33456Y3298D01*
X33514Y3322D01*
X33566D01*
Y3847D01*
X33514Y3826D01*
X33456Y3850D01*
X33433Y3907D01*
X33456Y3964D01*
X33590Y4098D01*
X33647Y4121D01*
X33705Y4098D01*
D02*
G37*
%LPC*%
G36*
X34547Y5959D02*
X34347D01*
X34261Y5873D01*
Y5407D01*
X34347Y5322D01*
X34547D01*
X34632Y5407D01*
Y5873D01*
X34547Y5959D01*
D02*
G37*
%LPD*%
G36*
X27264Y6187D02*
X27288Y6129D01*
Y5240D01*
X27264Y5183D01*
X27207Y5159D01*
X26318D01*
X26261Y5183D01*
X26237Y5240D01*
Y6129D01*
X26261Y6187D01*
X26318Y6211D01*
X27207D01*
X27264Y6187D01*
D02*
G37*
G36*
X27224Y4203D02*
X27243Y4202D01*
X27252Y4192D01*
X27264Y4187D01*
X27271Y4169D01*
X27284Y4155D01*
X27283Y4142D01*
X27288Y4129D01*
X27281Y4112D01*
X27279Y4093D01*
X26835Y3204D01*
X26816Y3187D01*
X26799Y3168D01*
X26793Y3167D01*
X26788Y3163D01*
X26762Y3165D01*
X26737Y3163D01*
X26732Y3167D01*
X26726Y3168D01*
X26709Y3187D01*
X26690Y3204D01*
X26245Y4093D01*
X26244Y4112D01*
X26237Y4129D01*
X26242Y4142D01*
X26241Y4155D01*
X26253Y4169D01*
X26261Y4187D01*
X26273Y4192D01*
X26282Y4202D01*
X26300Y4203D01*
X26318Y4211D01*
X27207D01*
X27224Y4203D01*
D02*
G37*
%LPC*%
G36*
X27126Y6048D02*
X26399D01*
Y5322D01*
X27126D01*
Y6048D01*
D02*
G37*
G36*
X27075Y4048D02*
X26449D01*
X26762Y3422D01*
X27075Y4048D01*
D02*
G37*
%LPD*%
G36*
X39703Y2098D02*
X39726Y2040D01*
Y1322D01*
X39778D01*
X39836Y1298D01*
X39860Y1240D01*
X39836Y1183D01*
X39778Y1159D01*
X39512D01*
X39455Y1183D01*
X39431Y1240D01*
X39455Y1298D01*
X39512Y1322D01*
X39564D01*
Y1959D01*
X39512D01*
X39455Y1983D01*
X39431Y2040D01*
X39455Y2098D01*
X39512Y2121D01*
X39645D01*
X39703Y2098D01*
D02*
G37*
G36*
X39169Y1831D02*
X39303Y1698D01*
X39327Y1640D01*
Y1240D01*
X39303Y1183D01*
X39245Y1159D01*
X38845D01*
X38788Y1183D01*
X38655Y1316D01*
X38631Y1374D01*
X38655Y1431D01*
X38788Y1564D01*
X38845Y1588D01*
X39164D01*
Y1607D01*
X39078Y1692D01*
X38845D01*
X38788Y1716D01*
X38764Y1774D01*
X38788Y1831D01*
X38845Y1855D01*
X39112D01*
X39169Y1831D01*
D02*
G37*
G36*
X38236Y1964D02*
X38260Y1907D01*
Y1855D01*
X38312D01*
X38370Y1831D01*
X38393Y1774D01*
X38370Y1716D01*
X38312Y1692D01*
X38260D01*
Y1407D01*
X38370Y1298D01*
X38393Y1240D01*
X38370Y1183D01*
X38312Y1159D01*
X38255Y1183D01*
X38122Y1316D01*
X38098Y1374D01*
Y1692D01*
X38046D01*
X37988Y1716D01*
X37965Y1774D01*
X37988Y1831D01*
X38046Y1855D01*
X38098D01*
Y1907D01*
X38122Y1964D01*
X38179Y1988D01*
X38236Y1964D01*
D02*
G37*
G36*
X37703Y1831D02*
X37837Y1698D01*
X37860Y1640D01*
Y1374D01*
X37837Y1316D01*
X37703Y1183D01*
X37646Y1159D01*
X37379D01*
X37322Y1183D01*
X37189Y1316D01*
X37165Y1374D01*
Y1640D01*
X37189Y1698D01*
X37322Y1831D01*
X37379Y1855D01*
X37646D01*
X37703Y1831D01*
D02*
G37*
G36*
X37037Y2098D02*
X37061Y2040D01*
X37037Y1983D01*
X36979Y1959D01*
X36794D01*
Y1240D01*
X36770Y1183D01*
X36713Y1159D01*
X36655Y1183D01*
X36632Y1240D01*
Y1959D01*
X36446D01*
X36389Y1983D01*
X36365Y2040D01*
X36389Y2098D01*
X36446Y2121D01*
X36979D01*
X37037Y2098D01*
D02*
G37*
G36*
X35171D02*
X35195Y2040D01*
Y1322D01*
X35247D01*
X35304Y1298D01*
X35328Y1240D01*
X35304Y1183D01*
X35247Y1159D01*
X34980D01*
X34923Y1183D01*
X34899Y1240D01*
X34923Y1298D01*
X34980Y1322D01*
X35032D01*
Y1847D01*
X34980Y1826D01*
X34923Y1850D01*
X34899Y1907D01*
X34923Y1964D01*
X35056Y2098D01*
X35113Y2121D01*
X35171Y2098D01*
D02*
G37*
G36*
X34638D02*
X34771Y1964D01*
X34795Y1907D01*
Y1774D01*
X34771Y1716D01*
X34376Y1322D01*
X34713D01*
X34771Y1298D01*
X34795Y1240D01*
X34771Y1183D01*
X34713Y1159D01*
X34180D01*
X34123Y1183D01*
X34099Y1240D01*
X34123Y1298D01*
X34632Y1807D01*
Y1873D01*
X34547Y1959D01*
X34347D01*
X34238Y1850D01*
X34180Y1826D01*
X34123Y1850D01*
X34099Y1907D01*
X34123Y1964D01*
X34256Y2098D01*
X34314Y2121D01*
X34580D01*
X34638Y2098D01*
D02*
G37*
G36*
X33705D02*
X33728Y2040D01*
Y1322D01*
X33780D01*
X33838Y1298D01*
X33862Y1240D01*
X33838Y1183D01*
X33780Y1159D01*
X33514D01*
X33456Y1183D01*
X33433Y1240D01*
X33456Y1298D01*
X33514Y1322D01*
X33566D01*
Y1847D01*
X33514Y1826D01*
X33456Y1850D01*
X33433Y1907D01*
X33456Y1964D01*
X33590Y2098D01*
X33647Y2121D01*
X33705Y2098D01*
D02*
G37*
%LPC*%
G36*
X39164Y1426D02*
X38879D01*
X38827Y1374D01*
X38879Y1322D01*
X39164D01*
Y1426D01*
D02*
G37*
G36*
X37612Y1692D02*
X37413D01*
X37327Y1607D01*
Y1407D01*
X37413Y1322D01*
X37612D01*
X37698Y1407D01*
Y1607D01*
X37612Y1692D01*
D02*
G37*
%LPD*%
D158*
X18252Y292D02*
Y1308D01*
X19268D01*
Y292D01*
X18252D01*
X15712D02*
Y1308D01*
X16728D01*
Y292D01*
X15712D01*
Y-978D02*
Y38D01*
X16728D01*
Y-978D01*
X15712D01*
X16982Y292D02*
Y1308D01*
X17998D01*
Y292D01*
X16982D01*
Y-978D02*
Y38D01*
X17998D01*
Y-978D01*
X16982D01*
X18252D02*
Y38D01*
X19268D01*
Y-978D01*
X18252D01*
X19522Y292D02*
Y1308D01*
X20538D01*
Y292D01*
X19522D01*
Y-978D02*
Y38D01*
X20538D01*
Y-978D01*
X19522D01*
X20792Y292D02*
Y1308D01*
X21808D01*
Y292D01*
X20792D01*
Y-978D02*
Y38D01*
X21808D01*
Y-978D01*
X20792D01*
D159*
X12733Y8250D02*
G03*
X12733Y8250I-508J0D01*
G01*
X20483Y9000D02*
G03*
X20483Y9000I-508J0D01*
G01*
X18258Y9025D02*
G03*
X18258Y9025I-508J0D01*
G01*
X22133Y8050D02*
G03*
X22133Y8050I-508J0D01*
G01*
X10158Y2225D02*
G03*
X10158Y2225I-508J0D01*
G01*
X8808Y2775D02*
G03*
X8808Y2775I-508J0D01*
G01*
X11983Y4625D02*
G03*
X11983Y4625I-508J0D01*
G01*
X13433Y4850D02*
G03*
X13433Y4850I-508J0D01*
G01*
X6608Y16250D02*
G03*
X6608Y16250I-508J0D01*
G01*
Y500D02*
G03*
X6608Y500I-508J0D01*
G01*
Y6600D02*
G03*
X6608Y6600I-508J0D01*
G01*
Y8125D02*
G03*
X6608Y8125I-508J0D01*
G01*
Y9450D02*
G03*
X6608Y9450I-508J0D01*
G01*
Y14025D02*
G03*
X6608Y14025I-508J0D01*
G01*
X11083Y6325D02*
G03*
X11083Y6325I-508J0D01*
G01*
Y9150D02*
G03*
X11083Y9150I-508J0D01*
G01*
X11783Y8875D02*
G03*
X11783Y8875I-508J0D01*
G01*
X17533Y11700D02*
G03*
X17533Y11700I-508J0D01*
G01*
X14808Y13575D02*
G03*
X14808Y13575I-508J0D01*
G01*
X13258Y950D02*
G03*
X13258Y950I-508J0D01*
G01*
X12683Y525D02*
G03*
X12683Y525I-508J0D01*
G01*
X3058Y21650D02*
G03*
X3058Y21650I-508J0D01*
G01*
X1058Y20100D02*
G03*
X1058Y20100I-508J0D01*
G01*
X3058Y24400D02*
G03*
X3058Y24400I-508J0D01*
G01*
X1058Y24425D02*
G03*
X1058Y24425I-508J0D01*
G01*
X24958Y20175D02*
G03*
X24958Y20175I-508J0D01*
G01*
X24933Y24400D02*
G03*
X24933Y24400I-508J0D01*
G01*
X13683Y22750D02*
G03*
X13683Y22750I-508J0D01*
G01*
X15133Y21125D02*
G03*
X15133Y21125I-508J0D01*
G01*
X12158D02*
G03*
X12158Y21125I-508J0D01*
G01*
X15133Y24300D02*
G03*
X15133Y24300I-508J0D01*
G01*
X12158D02*
G03*
X12158Y24300I-508J0D01*
G01*
X14508Y6650D02*
G03*
X14508Y6650I-508J0D01*
G01*
X15037Y8179D02*
G03*
X15037Y8179I-508J0D01*
G01*
X13808Y2125D02*
G03*
X13808Y2125I-508J0D01*
G01*
X21108Y9625D02*
G03*
X21108Y9625I-508J0D01*
G01*
X21233Y10375D02*
G03*
X21233Y10375I-508J0D01*
G01*
X19958Y9925D02*
G03*
X19958Y9925I-508J0D01*
G01*
X23483Y9750D02*
G03*
X23483Y9750I-508J0D01*
G01*
X9058Y5075D02*
G03*
X9058Y5075I-508J0D01*
G01*
X7758Y4650D02*
G03*
X7758Y4650I-508J0D01*
G01*
X8433Y2125D02*
G03*
X8433Y2125I-508J0D01*
G01*
X10433Y4625D02*
G03*
X10433Y4625I-508J0D01*
G01*
X11558Y5525D02*
G03*
X11558Y5525I-508J0D01*
G01*
X12683Y6450D02*
G03*
X12683Y6450I-508J0D01*
G01*
X12358Y5725D02*
G03*
X12358Y5725I-508J0D01*
G01*
X13433Y6425D02*
G03*
X13433Y6425I-508J0D01*
G01*
X15558Y13575D02*
G03*
X15558Y13575I-508J0D01*
G01*
X18333Y13150D02*
G03*
X18333Y13150I-508J0D01*
G01*
X19408Y8700D02*
G03*
X19408Y8700I-508J0D01*
G01*
X17533Y8675D02*
G03*
X17533Y8675I-508J0D01*
G01*
X24558Y2050D02*
G03*
X24558Y2050I-508J0D01*
G01*
X23983Y3700D02*
G03*
X23983Y3700I-508J0D01*
G01*
X22208Y18100D02*
G03*
X22208Y18100I-508J0D01*
G01*
X24733Y13450D02*
G03*
X24733Y13450I-508J0D01*
G01*
X24434Y14601D02*
G03*
X24434Y14601I-508J0D01*
G01*
X23159Y14251D02*
G03*
X23159Y14251I-508J0D01*
G01*
X22208Y14425D02*
G03*
X22208Y14425I-508J0D01*
G01*
X23609Y13051D02*
G03*
X23609Y13051I-508J0D01*
G01*
X24333Y11375D02*
G03*
X24333Y11375I-508J0D01*
G01*
X17243Y12400D02*
G03*
X17243Y12400I-508J0D01*
G01*
X23858Y7725D02*
G03*
X23858Y7725I-508J0D01*
G01*
X17558Y9475D02*
G03*
X17558Y9475I-508J0D01*
G01*
X9483Y23525D02*
G03*
X9483Y23525I-508J0D01*
G01*
X19958Y11425D02*
G03*
X19958Y11425I-508J0D01*
G01*
X18958D02*
G03*
X18958Y11425I-508J0D01*
G01*
Y9925D02*
G03*
X18958Y9925I-508J0D01*
G01*
X19458Y10675D02*
G03*
X19458Y10675I-508J0D01*
G01*
X16083Y22525D02*
G03*
X16083Y22525I-508J0D01*
G01*
Y18100D02*
G03*
X16083Y18100I-508J0D01*
G01*
X13933Y2875D02*
G03*
X13933Y2875I-508J0D01*
G01*
X17508Y6500D02*
G03*
X17508Y6500I-508J0D01*
G01*
X18608D02*
G03*
X18608Y6500I-508J0D01*
G01*
X19708D02*
G03*
X19708Y6500I-508J0D01*
G01*
X20808D02*
G03*
X20808Y6500I-508J0D01*
G01*
X17508Y5400D02*
G03*
X17508Y5400I-508J0D01*
G01*
X18608D02*
G03*
X18608Y5400I-508J0D01*
G01*
X19708D02*
G03*
X19708Y5400I-508J0D01*
G01*
X20808D02*
G03*
X20808Y5400I-508J0D01*
G01*
X19708Y4300D02*
G03*
X19708Y4300I-508J0D01*
G01*
X6708Y1575D02*
G03*
X6708Y1575I-508J0D01*
G01*
X6633Y4650D02*
G03*
X6633Y4650I-508J0D01*
G01*
Y2750D02*
G03*
X6633Y2750I-508J0D01*
G01*
X12608Y2825D02*
G03*
X12608Y2825I-508J0D01*
G01*
X13408Y3250D02*
G03*
X13408Y3250I-508J0D01*
G01*
X11483Y2250D02*
G03*
X11483Y2250I-508J0D01*
G01*
X15309Y1775D02*
G03*
X15309Y1775I-508J0D01*
G01*
X16083Y20900D02*
G03*
X16083Y20900I-508J0D01*
G01*
Y24175D02*
G03*
X16083Y24175I-508J0D01*
G01*
X22183D02*
G03*
X22183Y24175I-508J0D01*
G01*
X22283Y20925D02*
G03*
X22283Y20925I-508J0D01*
G01*
X16508Y7700D02*
G03*
X16508Y7700I-508J0D01*
G01*
X6633Y11550D02*
G03*
X6633Y11550I-508J0D01*
G01*
X9908Y14475D02*
G03*
X9908Y14475I-508J0D01*
G01*
X10083Y11075D02*
G03*
X10083Y11075I-508J0D01*
G01*
X14833Y675D02*
G03*
X14833Y675I-508J0D01*
G01*
X24158Y1175D02*
G03*
X24158Y1175I-508J0D01*
G01*
X22559Y1650D02*
G03*
X22559Y1650I-508J0D01*
G01*
X24483Y5375D02*
G03*
X24483Y5375I-508J0D01*
G01*
X24883Y6950D02*
G03*
X24883Y6950I-508J0D01*
G01*
X23358Y6100D02*
G03*
X23358Y6100I-508J0D01*
G01*
X22783Y5100D02*
G03*
X22783Y5100I-508J0D01*
G01*
X22833Y4100D02*
G03*
X22833Y4100I-508J0D01*
G01*
X20808Y3200D02*
G03*
X20808Y3200I-508J0D01*
G01*
Y4300D02*
G03*
X20808Y4300I-508J0D01*
G01*
X19708Y3200D02*
G03*
X19708Y3200I-508J0D01*
G01*
X18608D02*
G03*
X18608Y3200I-508J0D01*
G01*
Y4300D02*
G03*
X18608Y4300I-508J0D01*
G01*
X17508Y3200D02*
G03*
X17508Y3200I-508J0D01*
G01*
Y4300D02*
G03*
X17508Y4300I-508J0D01*
G01*
X23008Y2975D02*
G03*
X23008Y2975I-508J0D01*
G01*
M02*
