G04 Layer_Color=128*
%FSLAX43Y43*%
%MOMM*%
G71*
G01*
G75*
%ADD158C,0.127*%
D158*
X18435Y800D02*
X19085D01*
X18760Y475D02*
Y1125D01*
X15895Y800D02*
X16545D01*
X16220Y475D02*
Y1125D01*
X15895Y-470D02*
X16545D01*
X16220Y-795D02*
Y-145D01*
X17165Y800D02*
X17815D01*
X17490Y475D02*
Y1125D01*
X17165Y-470D02*
X17815D01*
X17490Y-795D02*
Y-145D01*
X18435Y-470D02*
X19085D01*
X18760Y-795D02*
Y-145D01*
X19705Y800D02*
X20355D01*
X20030Y475D02*
Y1125D01*
X19705Y-470D02*
X20355D01*
X20030Y-795D02*
Y-145D01*
X20975Y800D02*
X21625D01*
X21300Y475D02*
Y1125D01*
X20975Y-470D02*
X21625D01*
X21300Y-795D02*
Y-145D01*
X12075Y8250D02*
X12375D01*
X12225Y8100D02*
Y8400D01*
X19825Y9000D02*
X20125D01*
X19975Y8850D02*
Y9150D01*
X17600Y9025D02*
X17900D01*
X17750Y8875D02*
Y9175D01*
X21475Y8050D02*
X21775D01*
X21625Y7900D02*
Y8200D01*
X9500Y2225D02*
X9800D01*
X9650Y2075D02*
Y2375D01*
X8150Y2775D02*
X8450D01*
X8300Y2625D02*
Y2925D01*
X11325Y4625D02*
X11625D01*
X11475Y4475D02*
Y4775D01*
X12775Y4850D02*
X13075D01*
X12925Y4700D02*
Y5000D01*
X5950Y16250D02*
X6250D01*
X6100Y16100D02*
Y16400D01*
X5950Y500D02*
X6250D01*
X6100Y350D02*
Y650D01*
X5950Y6600D02*
X6250D01*
X6100Y6450D02*
Y6750D01*
X5950Y8125D02*
X6250D01*
X6100Y7975D02*
Y8275D01*
X5950Y9450D02*
X6250D01*
X6100Y9300D02*
Y9600D01*
X5950Y14025D02*
X6250D01*
X6100Y13875D02*
Y14175D01*
X10425Y6325D02*
X10725D01*
X10575Y6175D02*
Y6475D01*
X10425Y9150D02*
X10725D01*
X10575Y9000D02*
Y9300D01*
X11125Y8875D02*
X11425D01*
X11275Y8725D02*
Y9025D01*
X16875Y11700D02*
X17175D01*
X17025Y11550D02*
Y11850D01*
X14150Y13575D02*
X14450D01*
X14300Y13425D02*
Y13725D01*
X12600Y950D02*
X12900D01*
X12750Y800D02*
Y1100D01*
X12025Y525D02*
X12325D01*
X12175Y375D02*
Y675D01*
X2400Y21650D02*
X2700D01*
X2550Y21500D02*
Y21800D01*
X400Y20100D02*
X700D01*
X550Y19950D02*
Y20250D01*
X2400Y24400D02*
X2700D01*
X2550Y24250D02*
Y24550D01*
X400Y24425D02*
X700D01*
X550Y24275D02*
Y24575D01*
X24300Y20175D02*
X24600D01*
X24450Y20025D02*
Y20325D01*
X24275Y24400D02*
X24575D01*
X24425Y24250D02*
Y24550D01*
X13025Y22750D02*
X13325D01*
X13175Y22600D02*
Y22900D01*
X14475Y21125D02*
X14775D01*
X14625Y20975D02*
Y21275D01*
X11500Y21125D02*
X11800D01*
X11650Y20975D02*
Y21275D01*
X14475Y24300D02*
X14775D01*
X14625Y24150D02*
Y24450D01*
X11500Y24300D02*
X11800D01*
X11650Y24150D02*
Y24450D01*
X13850Y6650D02*
X14150D01*
X14000Y6500D02*
Y6800D01*
X14379Y8179D02*
X14679D01*
X14529Y8029D02*
Y8329D01*
X13150Y2125D02*
X13450D01*
X13300Y1975D02*
Y2275D01*
X20450Y9625D02*
X20750D01*
X20600Y9475D02*
Y9775D01*
X20575Y10375D02*
X20875D01*
X20725Y10225D02*
Y10525D01*
X19300Y9925D02*
X19600D01*
X19450Y9775D02*
Y10075D01*
X22825Y9750D02*
X23125D01*
X22975Y9600D02*
Y9900D01*
X8400Y5075D02*
X8700D01*
X8550Y4925D02*
Y5225D01*
X7100Y4650D02*
X7400D01*
X7250Y4500D02*
Y4800D01*
X7775Y2125D02*
X8075D01*
X7925Y1975D02*
Y2275D01*
X9775Y4625D02*
X10075D01*
X9925Y4475D02*
Y4775D01*
X10900Y5525D02*
X11200D01*
X11050Y5375D02*
Y5675D01*
X12025Y6450D02*
X12325D01*
X12175Y6300D02*
Y6600D01*
X11700Y5725D02*
X12000D01*
X11850Y5575D02*
Y5875D01*
X12775Y6425D02*
X13075D01*
X12925Y6275D02*
Y6575D01*
X14900Y13575D02*
X15200D01*
X15050Y13425D02*
Y13725D01*
X17675Y13150D02*
X17975D01*
X17825Y13000D02*
Y13300D01*
X18750Y8700D02*
X19050D01*
X18900Y8550D02*
Y8850D01*
X16875Y8675D02*
X17175D01*
X17025Y8525D02*
Y8825D01*
X23900Y2050D02*
X24200D01*
X24050Y1900D02*
Y2200D01*
X23325Y3700D02*
X23625D01*
X23475Y3550D02*
Y3850D01*
X21550Y18100D02*
X21850D01*
X21700Y17950D02*
Y18250D01*
X24075Y13450D02*
X24375D01*
X24225Y13300D02*
Y13600D01*
X23776Y14601D02*
X24076D01*
X23926Y14451D02*
Y14751D01*
X22501Y14251D02*
X22801D01*
X22651Y14101D02*
Y14401D01*
X21550Y14425D02*
X21850D01*
X21700Y14275D02*
Y14575D01*
X22951Y13051D02*
X23251D01*
X23101Y12901D02*
Y13201D01*
X23675Y11375D02*
X23975D01*
X23825Y11225D02*
Y11525D01*
X16585Y12400D02*
X16885D01*
X16735Y12250D02*
Y12550D01*
X23200Y7725D02*
X23500D01*
X23350Y7575D02*
Y7875D01*
X16900Y9475D02*
X17200D01*
X17050Y9325D02*
Y9625D01*
X8825Y23525D02*
X9125D01*
X8975Y23375D02*
Y23675D01*
X19300Y11425D02*
X19600D01*
X19450Y11275D02*
Y11575D01*
X18300Y11425D02*
X18600D01*
X18450Y11275D02*
Y11575D01*
X18300Y9925D02*
X18600D01*
X18450Y9775D02*
Y10075D01*
X18800Y10675D02*
X19100D01*
X18950Y10525D02*
Y10825D01*
X15425Y22525D02*
X15725D01*
X15575Y22375D02*
Y22675D01*
X15425Y18100D02*
X15725D01*
X15575Y17950D02*
Y18250D01*
X13275Y2875D02*
X13575D01*
X13425Y2725D02*
Y3025D01*
X16850Y6500D02*
X17150D01*
X17000Y6350D02*
Y6650D01*
X17950Y6500D02*
X18250D01*
X18100Y6350D02*
Y6650D01*
X19050Y6500D02*
X19350D01*
X19200Y6350D02*
Y6650D01*
X20150Y6500D02*
X20450D01*
X20300Y6350D02*
Y6650D01*
X16850Y5400D02*
X17150D01*
X17000Y5250D02*
Y5550D01*
X17950Y5400D02*
X18250D01*
X18100Y5250D02*
Y5550D01*
X19050Y5400D02*
X19350D01*
X19200Y5250D02*
Y5550D01*
X20150Y5400D02*
X20450D01*
X20300Y5250D02*
Y5550D01*
X19050Y4300D02*
X19350D01*
X19200Y4150D02*
Y4450D01*
X6050Y1575D02*
X6350D01*
X6200Y1425D02*
Y1725D01*
X5975Y4650D02*
X6275D01*
X6125Y4500D02*
Y4800D01*
X5975Y2750D02*
X6275D01*
X6125Y2600D02*
Y2900D01*
X11950Y2825D02*
X12250D01*
X12100Y2675D02*
Y2975D01*
X12750Y3250D02*
X13050D01*
X12900Y3100D02*
Y3400D01*
X10825Y2250D02*
X11125D01*
X10975Y2100D02*
Y2400D01*
X14651Y1775D02*
X14951D01*
X14801Y1625D02*
Y1925D01*
X15425Y20900D02*
X15725D01*
X15575Y20750D02*
Y21050D01*
X15425Y24175D02*
X15725D01*
X15575Y24025D02*
Y24325D01*
X21525Y24175D02*
X21825D01*
X21675Y24025D02*
Y24325D01*
X21625Y20925D02*
X21925D01*
X21775Y20775D02*
Y21075D01*
X15850Y7700D02*
X16150D01*
X16000Y7550D02*
Y7850D01*
X5975Y11550D02*
X6275D01*
X6125Y11400D02*
Y11700D01*
X9250Y14475D02*
X9550D01*
X9400Y14325D02*
Y14625D01*
X9425Y11075D02*
X9725D01*
X9575Y10925D02*
Y11225D01*
X14175Y675D02*
X14475D01*
X14325Y525D02*
Y825D01*
X23500Y1175D02*
X23800D01*
X23650Y1025D02*
Y1325D01*
X21901Y1650D02*
X22201D01*
X22051Y1500D02*
Y1800D01*
X23825Y5375D02*
X24125D01*
X23975Y5225D02*
Y5525D01*
X24225Y6950D02*
X24525D01*
X24375Y6800D02*
Y7100D01*
X22700Y6100D02*
X23000D01*
X22850Y5950D02*
Y6250D01*
X22125Y5100D02*
X22425D01*
X22275Y4950D02*
Y5250D01*
X22175Y4100D02*
X22475D01*
X22325Y3950D02*
Y4250D01*
X20150Y3200D02*
X20450D01*
X20300Y3050D02*
Y3350D01*
X20150Y4300D02*
X20450D01*
X20300Y4150D02*
Y4450D01*
X19050Y3200D02*
X19350D01*
X19200Y3050D02*
Y3350D01*
X17950Y3200D02*
X18250D01*
X18100Y3050D02*
Y3350D01*
X17950Y4300D02*
X18250D01*
X18100Y4150D02*
Y4450D01*
X16850Y3200D02*
X17150D01*
X17000Y3050D02*
Y3350D01*
X16850Y4300D02*
X17150D01*
X17000Y4150D02*
Y4450D01*
X22350Y2975D02*
X22650D01*
X22500Y2825D02*
Y3125D01*
M02*
