M48
;Layer_Color=9474304
;FILE_FORMAT=4:4
METRIC,LZ
;TYPE=PLATED
T1F00S00C0.3000
T2F00S00C0.6500
%
T01
X00143251Y00006749
X00148007Y00017751
X0017Y00032
Y00043
Y00054
Y00065
X00181
X00192
X00203
Y00054
X00192
X00181
Y00043
Y00032
X00192
Y00043
X00203
Y00032
X00225Y0002975
X0022325Y00041
X0022275Y00051
X002285Y00061
X0023975Y0005375
X0024375Y000695
X002335Y0007725
X0021625Y000805
X0019975Y0009
X00206Y0009625
X0020725Y0010375
X001945Y0009925
X001845
X001895Y0010675
X001945Y0011425
X001845
X0017025Y00117
X00167351Y00124
X0017825Y001315
X001505Y0013575
X0015575Y00181
Y00209
X0014625Y0021125
X0015575Y0022525
Y0024175
X0014625Y00243
X0021675Y0024175
X0024425Y00244
X002445Y0020175
X0021775Y0020925
X00217Y00181
Y0014425
X00226511Y00142507
X00239262Y00146007
X0024225Y001345
X00231011Y00130506
X0023825Y0011375
X0022975Y000975
X00189Y00087
X001775Y0009025
X0017025Y0008675
X001705Y0009475
X0016Y00077
X00145293Y00081793
X0023475Y00037
X002405Y000205
X002365Y0001175
X00220511Y00016501
X00133Y0002125
X0013425Y0002875
X00129Y000325
X00121Y0002825
X0010975Y000225
X000965Y0002225
X0007925Y0002125
X00083Y0002775
X0006125Y000275
X00062Y0001575
X00061Y00005
X0006125Y000465
X000725
X000855Y0005075
X0009925Y0004625
X0011475
X001105Y0005525
X001185Y0005725
X0012175Y000645
X0012925Y0006425
X0014Y000665
X0012925Y000485
X0010575Y0006325
Y000915
X0011275Y0008875
X0012225Y000825
X0009575Y0011075
X00094Y0014475
X00061Y0014025
Y001625
X0006125Y001155
X00061Y000945
Y0008125
Y00066
X0012175Y0000525
X001275Y000095
X00143Y0013575
X001165Y0021125
X0013175Y002275
X001165Y00243
X0008975Y0023525
X000255Y00244
X000055Y0024425
Y00201
X000255Y002165
T02
X001622Y-000047
Y00008
X001749
X001876
Y-000047
X001749
X002003
Y00008
X00213
Y-000047
M30
