G04 Layer_Physical_Order=3*
G04 Layer_Color=16440176*
%FSLAX43Y43*%
%MOMM*%
G71*
G01*
G75*
%ADD54C,0.200*%
%ADD55C,0.300*%
%ADD61C,0.150*%
%ADD62C,0.250*%
%ADD65R,2.125X1.000*%
%ADD81C,0.600*%
%ADD82C,0.600*%
%ADD83R,2.725X5.000*%
G36*
X8025Y16525D02*
X9775Y14775D01*
Y10260D01*
X9759Y10244D01*
X9692Y10145D01*
X9669Y10028D01*
X9669Y10028D01*
Y8500D01*
X9669Y8500D01*
X9692Y8383D01*
X9759Y8284D01*
X9775Y8267D01*
Y7030D01*
X9698Y6952D01*
X9620Y6837D01*
X9593Y6700D01*
Y5500D01*
X9577Y5481D01*
X8843D01*
X8745Y5546D01*
X8550Y5585D01*
X8355Y5546D01*
X8190Y5435D01*
X8079Y5270D01*
X8040Y5075D01*
X8079Y4880D01*
X8190Y4715D01*
X8355Y4604D01*
X8550Y4565D01*
X8745Y4604D01*
X8910Y4715D01*
X9014Y4869D01*
X9346D01*
X9439Y4742D01*
X9415Y4625D01*
X9454Y4430D01*
X9565Y4265D01*
X9619Y4228D01*
Y3602D01*
X8448Y2431D01*
X8322D01*
X8285Y2485D01*
X8120Y2596D01*
X7925Y2635D01*
X7730Y2596D01*
X7565Y2485D01*
X7454Y2320D01*
X7415Y2125D01*
X7454Y1930D01*
X7565Y1765D01*
X7730Y1654D01*
X7925Y1615D01*
X8120Y1654D01*
X8285Y1765D01*
X8322Y1819D01*
X8575D01*
X8575Y1819D01*
X8692Y1842D01*
X8791Y1909D01*
X9027Y2144D01*
X9165Y2102D01*
X9179Y2030D01*
X9290Y1865D01*
X9455Y1754D01*
X9650Y1715D01*
X9677Y1721D01*
X9775Y1640D01*
Y255D01*
X5800D01*
Y16025D01*
Y16725D01*
X6150Y17075D01*
X7475D01*
X8025Y16525D01*
D02*
G37*
G36*
X24643Y20225D02*
X21975D01*
Y17400D01*
X8000D01*
Y24643D01*
X11027D01*
X11045Y24608D01*
X11081Y24516D01*
X11038Y24300D01*
X11085Y24066D01*
X11217Y23867D01*
X11416Y23735D01*
X11650Y23688D01*
X11884Y23735D01*
X12083Y23867D01*
X12215Y24066D01*
X12262Y24300D01*
X12219Y24516D01*
X12255Y24608D01*
X12273Y24643D01*
X14002D01*
X14020Y24608D01*
X14056Y24516D01*
X14013Y24300D01*
X14060Y24066D01*
X14192Y23867D01*
X14391Y23735D01*
X14625Y23688D01*
X14859Y23735D01*
X15058Y23867D01*
X15190Y24066D01*
X15237Y24300D01*
X15194Y24516D01*
X15230Y24608D01*
X15248Y24643D01*
X24643D01*
Y20225D01*
D02*
G37*
%LPC*%
G36*
X11650Y21737D02*
X11416Y21690D01*
X11217Y21558D01*
X11085Y21359D01*
X11038Y21125D01*
X11085Y20891D01*
X11217Y20692D01*
X11416Y20560D01*
X11650Y20513D01*
X11884Y20560D01*
X12083Y20692D01*
X12215Y20891D01*
X12262Y21125D01*
X12215Y21359D01*
X12083Y21558D01*
X11884Y21690D01*
X11650Y21737D01*
D02*
G37*
G36*
X13175Y23362D02*
X12941Y23315D01*
X12742Y23183D01*
X12610Y22984D01*
X12563Y22750D01*
X12610Y22516D01*
X12742Y22317D01*
X12941Y22185D01*
X13175Y22138D01*
X13409Y22185D01*
X13608Y22317D01*
X13740Y22516D01*
X13787Y22750D01*
X13740Y22984D01*
X13608Y23183D01*
X13409Y23315D01*
X13175Y23362D01*
D02*
G37*
G36*
X14625Y21737D02*
X14391Y21690D01*
X14192Y21558D01*
X14060Y21359D01*
X14013Y21125D01*
X14060Y20891D01*
X14192Y20692D01*
X14391Y20560D01*
X14625Y20513D01*
X14859Y20560D01*
X15058Y20692D01*
X15190Y20891D01*
X15237Y21125D01*
X15190Y21359D01*
X15058Y21558D01*
X14859Y21690D01*
X14625Y21737D01*
D02*
G37*
%LPD*%
D54*
X11522Y8325D02*
X12057Y8860D01*
X18900Y8700D02*
X19400Y8200D01*
X19956D01*
X18753Y7775D02*
X18828Y7850D01*
X20101D01*
X18898Y7425D02*
X18973Y7500D01*
X20297D01*
X19018Y7050D02*
X19103Y7135D01*
X21725Y7372D02*
X22175Y7822D01*
X21725Y5650D02*
Y7372D01*
X22175Y7822D02*
Y8278D01*
X21397Y8600D02*
X21853D01*
X22175Y8278D01*
X21201Y8950D02*
X22007D01*
X21056Y9300D02*
X22152D01*
X20101Y7850D02*
X21201Y8950D01*
X19956Y8200D02*
X21056Y9300D01*
X23025Y8850D02*
X23974Y7901D01*
X22720Y8850D02*
X23025D01*
X9925Y3475D02*
Y4625D01*
X8575Y2125D02*
X9925Y3475D01*
X7925Y2125D02*
X8575D01*
X14122Y14175D02*
X20672D01*
X9975Y8500D02*
Y10028D01*
X14122Y14175D01*
X12057Y8860D02*
X13265D01*
X10575Y9150D02*
X10725Y9000D01*
Y8647D02*
Y9000D01*
Y8647D02*
X11047Y8325D01*
X10800Y7675D02*
X12575D01*
X9975Y8500D02*
X10800Y7675D01*
X11047Y8325D02*
X11522D01*
X14300Y11675D02*
Y13575D01*
X11475Y8850D02*
X14300Y11675D01*
X12575Y7675D02*
X14100Y9200D01*
X13265Y8860D02*
X13955Y9550D01*
X20672Y14175D02*
X21648Y15151D01*
X16707Y13150D02*
X17825D01*
X16185Y12628D02*
X16707Y13150D01*
X17025Y11700D02*
X17675Y12350D01*
X15188Y13625D02*
X16185Y12628D01*
X15079Y8399D02*
X15100Y8378D01*
X15079Y8399D02*
Y8407D01*
X14757Y8729D02*
X15079Y8407D01*
X14301Y8729D02*
X14757D01*
X13850Y8278D02*
X14301Y8729D01*
X22100Y8847D02*
X22800Y8148D01*
Y7252D02*
Y8148D01*
X23425Y3750D02*
X23475Y3700D01*
X22007Y8950D02*
X22105Y8852D01*
X20297Y7500D02*
X21397Y8600D01*
X13850Y7875D02*
Y8278D01*
X15372Y9550D02*
X16797Y8125D01*
X13955Y9550D02*
X15372D01*
X14975Y9200D02*
X15450Y8725D01*
X14100Y9200D02*
X14975D01*
X15100Y7327D02*
Y8378D01*
Y7327D02*
X15627Y6800D01*
X16522D01*
X16772Y7050D01*
X19018D01*
X16503Y7425D02*
X18898D01*
X16228Y7150D02*
X16503Y7425D01*
X15772Y7150D02*
X16228D01*
X15450Y7472D02*
X15772Y7150D01*
X15450Y7472D02*
Y8725D01*
X20425Y9600D02*
X20475Y9650D01*
X20725Y10375D02*
X22067D01*
X22297Y9650D02*
X22747Y9200D01*
X22152Y9300D02*
X22602Y8850D01*
X21349Y11975D02*
X22424Y13051D01*
X18222Y11975D02*
X21349D01*
X17050Y10803D02*
X18222Y11975D01*
X17050Y9475D02*
Y10803D01*
X17675Y12350D02*
X20900D01*
X22651Y14101D01*
X22602Y8850D02*
X22720D01*
X22747Y9200D02*
X22865D01*
X22692Y9750D02*
X22975D01*
X22720Y8850D02*
X22720Y8850D01*
X22865Y9200D02*
X22865Y9200D01*
X23600D01*
X22067Y10375D02*
X22692Y9750D01*
X23600Y9200D02*
X23825Y9425D01*
Y11375D01*
X16000Y7700D02*
X16075Y7775D01*
X18753D01*
X10475Y2950D02*
Y4853D01*
X10153Y5175D02*
X10475Y4853D01*
X8650Y5175D02*
X10153D01*
X8550Y5075D02*
X8650Y5175D01*
X16185Y9562D02*
Y12628D01*
Y9562D02*
X17025Y8722D01*
Y8675D02*
Y8722D01*
X16797Y8125D02*
X17253D01*
X17575Y8447D01*
Y8850D01*
X17750Y9025D01*
X21648Y15151D02*
X23024D01*
X23574Y14601D01*
X23926D01*
X24375Y6950D02*
Y11603D01*
X23651Y12327D02*
X24375Y11603D01*
X23651Y12327D02*
Y13278D01*
X23201Y13728D02*
X23651Y13278D01*
X23201Y13728D02*
Y14478D01*
X22879Y14801D02*
X23201Y14478D01*
X22423Y14801D02*
X22879D01*
X22048Y14425D02*
X22423Y14801D01*
X21700Y14425D02*
X22048D01*
X22651Y14101D02*
Y14251D01*
X22424Y13051D02*
X23101D01*
X18760Y-470D02*
X19455Y225D01*
X18185Y610D02*
Y1038D01*
X17490Y-85D02*
X18185Y610D01*
X17490Y-470D02*
Y-85D01*
X18185Y1038D02*
X18697Y1550D01*
X23025Y2350D02*
X24025Y3350D01*
X21373Y1550D02*
X21549Y1374D01*
X18697Y1550D02*
X21373D01*
X21981Y1100D02*
X22300D01*
X22601Y1401D01*
Y2874D01*
X23025Y1300D02*
Y2350D01*
X19455Y225D02*
X21950D01*
X23025Y1300D01*
X14975Y13625D02*
X15188D01*
X23825Y7178D02*
X23974Y7326D01*
Y7901D01*
X24375Y6950D02*
X24375Y6950D01*
X24025Y3350D02*
Y4647D01*
X24525Y5147D01*
Y6022D01*
X23825Y6722D02*
X24525Y6022D01*
X23825Y6722D02*
Y7178D01*
X23425Y3750D02*
Y5603D01*
X23711Y5889D01*
Y6341D01*
X22800Y7252D02*
X23711Y6341D01*
X21725Y5650D02*
X22275Y5100D01*
X16250Y3750D02*
X20528D01*
X22500Y2975D02*
X22601Y2874D01*
X20475Y9650D02*
X22297D01*
D55*
X19138Y7100D02*
X20675D01*
X21625Y8050D01*
X9775Y2250D02*
X10475Y2950D01*
X10300Y7050D02*
X13025D01*
X9950Y6700D02*
X10300Y7050D01*
X9950Y5500D02*
Y6700D01*
Y5500D02*
X10525Y4925D01*
X13200Y2225D02*
X13300Y2125D01*
X11000Y2225D02*
X13200D01*
X10975Y2250D02*
X11000Y2225D01*
X10475Y2950D02*
X10525Y3000D01*
Y4925D01*
X13025Y7050D02*
X13850Y7875D01*
X9650Y2250D02*
X9775D01*
D61*
X21834Y1125D02*
X21981D01*
X21567Y1392D02*
X21834Y1125D01*
D62*
X21375Y2200D02*
X21950Y1625D01*
X22325Y4337D02*
X22850Y4862D01*
Y6100D01*
X20563Y3750D02*
X20913Y4100D01*
X22325D01*
Y4337D01*
X14801Y1775D02*
X15437Y2412D01*
Y2650D01*
D65*
X12688Y750D02*
D03*
D81*
X17750Y9025D02*
D03*
X21625Y8050D02*
D03*
X9650Y2225D02*
D03*
X8300Y2775D02*
D03*
X6100Y16250D02*
D03*
Y500D02*
D03*
Y6600D02*
D03*
Y8125D02*
D03*
Y9450D02*
D03*
Y14025D02*
D03*
X10575Y9150D02*
D03*
X11275Y8875D02*
D03*
X17025Y11700D02*
D03*
X14300Y13575D02*
D03*
X12750Y950D02*
D03*
X12175Y525D02*
D03*
X2550Y21650D02*
D03*
X550Y20100D02*
D03*
X2550Y24400D02*
D03*
X550Y24425D02*
D03*
X24450Y20175D02*
D03*
X24425Y24400D02*
D03*
X14000Y6650D02*
D03*
X14529Y8179D02*
D03*
X13300Y2125D02*
D03*
X20600Y9625D02*
D03*
X20725Y10375D02*
D03*
X22975Y9750D02*
D03*
X8550Y5075D02*
D03*
X7250Y4650D02*
D03*
X7925Y2125D02*
D03*
X9925Y4625D02*
D03*
X15050Y13575D02*
D03*
X17825Y13150D02*
D03*
X18900Y8700D02*
D03*
X17025Y8675D02*
D03*
X23475Y3700D02*
D03*
X21700Y18100D02*
D03*
X23926Y14601D02*
D03*
X22651Y14251D02*
D03*
X21700Y14425D02*
D03*
X23101Y13051D02*
D03*
X23825Y11375D02*
D03*
X17050Y9475D02*
D03*
X8975Y23525D02*
D03*
X15575Y22525D02*
D03*
Y18100D02*
D03*
X6200Y1575D02*
D03*
X6125Y4650D02*
D03*
Y2750D02*
D03*
X10975Y2250D02*
D03*
X14801Y1775D02*
D03*
X15575Y20900D02*
D03*
Y24175D02*
D03*
X21675D02*
D03*
X21775Y20925D02*
D03*
X16000Y7700D02*
D03*
X6125Y11550D02*
D03*
X9400Y14475D02*
D03*
X9575Y11075D02*
D03*
X22051Y1650D02*
D03*
X24375Y6950D02*
D03*
X22850Y6100D02*
D03*
X22275Y5100D02*
D03*
X22325Y4100D02*
D03*
X22500Y2975D02*
D03*
D82*
X10975Y2250D02*
X11350Y2625D01*
Y3136D02*
X12314Y4100D01*
X13236D01*
X13248Y4113D01*
X11350Y2625D02*
Y3136D01*
X13248Y4113D02*
X13975D01*
X15437Y2650D02*
X15887Y2200D01*
X21375D01*
X13975Y4113D02*
X14529Y4667D01*
X14956Y3131D02*
X15437Y2650D01*
X13975Y4113D02*
X14337Y3750D01*
X16250D01*
X14337D02*
X14956Y3131D01*
X14529Y4667D02*
Y8179D01*
D83*
X1562Y22275D02*
D03*
M02*
