G04 Layer_Color=32896*
%FSLAX43Y43*%
%MOMM*%
G71*
G01*
G75*
%ADD84C,0.100*%
%ADD157C,0.180*%
G36*
X6261Y16073D02*
X6307Y16066D01*
X6350Y16056D01*
X6389Y16043D01*
X6426Y16029D01*
X6459Y16012D01*
X6491Y15993D01*
X6518Y15975D01*
X6542Y15955D01*
X6565Y15938D01*
X6581Y15919D01*
X6598Y15905D01*
X6609Y15892D01*
X6616Y15882D01*
X6622Y15875D01*
X6624Y15873D01*
X6642Y15845D01*
X6659Y15816D01*
X6672Y15786D01*
X6685Y15756D01*
X6694Y15727D01*
X6704Y15699D01*
X6716Y15647D01*
X6720Y15623D01*
X6724Y15601D01*
X6726Y15581D01*
X6728Y15564D01*
X6729Y15551D01*
Y15542D01*
Y15534D01*
Y15532D01*
X6728Y15497D01*
X6724Y15464D01*
X6718Y15431D01*
X6711Y15401D01*
X6702Y15373D01*
X6692Y15347D01*
X6681Y15325D01*
X6670Y15303D01*
X6661Y15284D01*
X6650Y15268D01*
X6641Y15253D01*
X6631Y15242D01*
X6624Y15232D01*
X6618Y15225D01*
X6615Y15221D01*
X6613Y15219D01*
X6591Y15199D01*
X6567Y15181D01*
X6541Y15164D01*
X6517Y15151D01*
X6491Y15140D01*
X6465Y15131D01*
X6417Y15116D01*
X6394Y15110D01*
X6374Y15106D01*
X6355Y15105D01*
X6339Y15103D01*
X6326Y15101D01*
X6307D01*
X6257Y15105D01*
X6213Y15112D01*
X6170Y15121D01*
X6135Y15134D01*
X6104Y15147D01*
X6092Y15153D01*
X6081Y15156D01*
X6074Y15162D01*
X6068Y15164D01*
X6065Y15168D01*
X6063D01*
X6024Y15195D01*
X5989Y15229D01*
X5957Y15262D01*
X5931Y15295D01*
X5913Y15327D01*
X5904Y15340D01*
X5898Y15351D01*
X5892Y15360D01*
X5889Y15368D01*
X5885Y15371D01*
Y15373D01*
X6109Y15410D01*
X6122Y15388D01*
X6137Y15368D01*
X6154Y15351D01*
X6170Y15336D01*
X6185Y15323D01*
X6202Y15312D01*
X6218Y15303D01*
X6233Y15297D01*
X6261Y15288D01*
X6274Y15284D01*
X6285Y15282D01*
X6292Y15281D01*
X6305D01*
X6333Y15282D01*
X6359Y15290D01*
X6381Y15299D01*
X6400Y15308D01*
X6417Y15319D01*
X6428Y15327D01*
X6435Y15334D01*
X6437Y15336D01*
X6454Y15358D01*
X6467Y15384D01*
X6476Y15408D01*
X6481Y15432D01*
X6485Y15455D01*
X6489Y15471D01*
Y15482D01*
Y15484D01*
Y15486D01*
Y15493D01*
X6487Y15501D01*
Y15508D01*
Y15510D01*
X5857D01*
X5846Y15566D01*
X5843Y15593D01*
X5841Y15619D01*
X5839Y15640D01*
Y15658D01*
Y15669D01*
Y15671D01*
Y15673D01*
X5841Y15708D01*
X5843Y15740D01*
X5848Y15771D01*
X5855Y15799D01*
X5863Y15827D01*
X5870Y15851D01*
X5880Y15873D01*
X5889Y15893D01*
X5900Y15910D01*
X5909Y15927D01*
X5917Y15940D01*
X5924Y15951D01*
X5931Y15958D01*
X5937Y15964D01*
X5939Y15967D01*
X5941Y15969D01*
X5961Y15988D01*
X5981Y16005D01*
X6004Y16017D01*
X6026Y16030D01*
X6048Y16042D01*
X6070Y16049D01*
X6115Y16062D01*
X6135Y16066D01*
X6154Y16069D01*
X6170Y16071D01*
X6185Y16073D01*
X6196Y16075D01*
X6213D01*
X6261Y16073D01*
D02*
G37*
G36*
X16819Y18067D02*
X16870Y18059D01*
X16917Y18048D01*
X16959Y18034D01*
X17000Y18018D01*
X17037Y18000D01*
X17071Y17979D01*
X17102Y17959D01*
X17128Y17936D01*
X17153Y17918D01*
X17171Y17898D01*
X17189Y17882D01*
X17202Y17867D01*
X17210Y17857D01*
X17216Y17849D01*
X17218Y17847D01*
X17238Y17816D01*
X17257Y17784D01*
X17271Y17751D01*
X17285Y17719D01*
X17295Y17686D01*
X17305Y17656D01*
X17320Y17599D01*
X17324Y17572D01*
X17328Y17548D01*
X17330Y17525D01*
X17332Y17507D01*
X17334Y17493D01*
Y17483D01*
Y17475D01*
Y17473D01*
X17332Y17434D01*
X17328Y17397D01*
X17322Y17361D01*
X17313Y17328D01*
X17303Y17298D01*
X17293Y17269D01*
X17281Y17245D01*
X17269Y17220D01*
X17259Y17200D01*
X17246Y17182D01*
X17236Y17165D01*
X17226Y17153D01*
X17218Y17143D01*
X17212Y17135D01*
X17208Y17131D01*
X17206Y17129D01*
X17181Y17106D01*
X17155Y17086D01*
X17126Y17068D01*
X17100Y17053D01*
X17071Y17041D01*
X17043Y17031D01*
X16990Y17015D01*
X16966Y17009D01*
X16943Y17005D01*
X16923Y17003D01*
X16905Y17001D01*
X16890Y16999D01*
X16870D01*
X16815Y17003D01*
X16766Y17011D01*
X16719Y17021D01*
X16681Y17035D01*
X16646Y17049D01*
X16634Y17056D01*
X16622Y17060D01*
X16614Y17066D01*
X16608Y17068D01*
X16603Y17072D01*
X16601D01*
X16559Y17102D01*
X16520Y17139D01*
X16485Y17176D01*
X16457Y17212D01*
X16437Y17247D01*
X16426Y17261D01*
X16420Y17273D01*
X16414Y17283D01*
X16410Y17292D01*
X16406Y17296D01*
Y17298D01*
X16652Y17338D01*
X16667Y17314D01*
X16683Y17292D01*
X16701Y17273D01*
X16719Y17257D01*
X16736Y17243D01*
X16754Y17230D01*
X16772Y17220D01*
X16789Y17214D01*
X16819Y17204D01*
X16833Y17200D01*
X16846Y17198D01*
X16854Y17196D01*
X16868D01*
X16898Y17198D01*
X16927Y17206D01*
X16951Y17216D01*
X16972Y17226D01*
X16990Y17239D01*
X17002Y17247D01*
X17010Y17255D01*
X17012Y17257D01*
X17031Y17281D01*
X17045Y17310D01*
X17055Y17336D01*
X17061Y17363D01*
X17065Y17387D01*
X17069Y17405D01*
Y17418D01*
Y17420D01*
Y17422D01*
Y17430D01*
X17067Y17438D01*
Y17446D01*
Y17448D01*
X16376D01*
X16363Y17509D01*
X16359Y17540D01*
X16357Y17568D01*
X16355Y17591D01*
Y17611D01*
Y17623D01*
Y17625D01*
Y17627D01*
X16357Y17666D01*
X16359Y17700D01*
X16365Y17735D01*
X16374Y17766D01*
X16382Y17796D01*
X16390Y17823D01*
X16400Y17847D01*
X16410Y17869D01*
X16422Y17888D01*
X16433Y17906D01*
X16441Y17920D01*
X16449Y17932D01*
X16457Y17941D01*
X16463Y17947D01*
X16465Y17951D01*
X16467Y17953D01*
X16490Y17973D01*
X16512Y17991D01*
X16536Y18006D01*
X16561Y18020D01*
X16585Y18032D01*
X16610Y18040D01*
X16658Y18054D01*
X16681Y18059D01*
X16701Y18063D01*
X16719Y18065D01*
X16736Y18067D01*
X16748Y18069D01*
X16766D01*
X16819Y18067D01*
D02*
G37*
G36*
X17402Y15125D02*
X17154D01*
X17106Y15368D01*
X17354D01*
X17402Y15125D01*
D02*
G37*
G36*
X21789D02*
X21541D01*
X21345Y16055D01*
X21595D01*
X21789Y15125D01*
D02*
G37*
G36*
X15580Y18067D02*
X15611Y18059D01*
X15641Y18048D01*
X15668Y18034D01*
X15696Y18018D01*
X15720Y18000D01*
X15767Y17959D01*
X15788Y17939D01*
X15806Y17918D01*
X15822Y17900D01*
X15836Y17884D01*
X15847Y17869D01*
X15855Y17859D01*
X15859Y17851D01*
X15861Y17849D01*
X15820Y18046D01*
X16076D01*
X16290Y17025D01*
X16017D01*
X15950Y17344D01*
X15942Y17379D01*
X15936Y17414D01*
X15928Y17444D01*
X15920Y17471D01*
X15914Y17497D01*
X15908Y17521D01*
X15899Y17542D01*
X15893Y17560D01*
X15889Y17576D01*
X15883Y17591D01*
X15879Y17603D01*
X15875Y17613D01*
X15873Y17619D01*
X15871Y17625D01*
X15869Y17629D01*
X15853Y17662D01*
X15834Y17690D01*
X15814Y17715D01*
X15796Y17735D01*
X15779Y17749D01*
X15767Y17761D01*
X15759Y17770D01*
X15755Y17772D01*
X15727Y17790D01*
X15700Y17804D01*
X15676Y17812D01*
X15653Y17821D01*
X15635Y17825D01*
X15621Y17827D01*
X15609D01*
X15578Y17825D01*
X15552Y17821D01*
X15541Y17816D01*
X15533Y17814D01*
X15529Y17812D01*
X15527D01*
X15421Y18038D01*
X15446Y18048D01*
X15470Y18057D01*
X15493Y18061D01*
X15511Y18065D01*
X15527Y18067D01*
X15539Y18069D01*
X15550D01*
X15580Y18067D01*
D02*
G37*
G36*
X15450Y17025D02*
X15177D01*
X15124Y17292D01*
X15397D01*
X15450Y17025D01*
D02*
G37*
G36*
X21802Y18197D02*
X21391D01*
X21635Y17025D01*
X21346D01*
X21102Y18197D01*
X20691D01*
X20644Y18433D01*
X21755D01*
X21802Y18197D01*
D02*
G37*
G36*
X19226Y17025D02*
X18953D01*
X18738Y18046D01*
X19012D01*
X19226Y17025D01*
D02*
G37*
G36*
X11140Y15125D02*
X10892D01*
X10696Y16055D01*
X10946D01*
X11140Y15125D01*
D02*
G37*
G36*
X11326Y18065D02*
X11387Y18057D01*
X11413Y18050D01*
X11438Y18044D01*
X11462Y18038D01*
X11482Y18030D01*
X11501Y18022D01*
X11517Y18016D01*
X11531Y18010D01*
X11544Y18004D01*
X11552Y18000D01*
X11558Y17995D01*
X11562Y17991D01*
X11564D01*
X11603Y17961D01*
X11637Y17926D01*
X11664Y17890D01*
X11686Y17857D01*
X11702Y17827D01*
X11714Y17802D01*
X11719Y17792D01*
X11721Y17786D01*
X11723Y17782D01*
Y17780D01*
X11454Y17757D01*
X11448Y17776D01*
X11440Y17792D01*
X11430Y17806D01*
X11419Y17818D01*
X11411Y17829D01*
X11403Y17835D01*
X11399Y17839D01*
X11397Y17841D01*
X11379Y17851D01*
X11360Y17859D01*
X11340Y17863D01*
X11322Y17867D01*
X11305Y17869D01*
X11291Y17871D01*
X11279D01*
X11255Y17869D01*
X11232Y17867D01*
X11216Y17861D01*
X11200Y17857D01*
X11187Y17851D01*
X11179Y17845D01*
X11175Y17843D01*
X11173Y17841D01*
X11161Y17829D01*
X11153Y17816D01*
X11145Y17804D01*
X11141Y17792D01*
X11139Y17782D01*
X11137Y17776D01*
Y17770D01*
Y17768D01*
Y17753D01*
X11139Y17739D01*
X11145Y17709D01*
X11149Y17696D01*
X11153Y17686D01*
X11155Y17678D01*
Y17676D01*
X11169Y17672D01*
X11185Y17668D01*
X11204Y17664D01*
X11224Y17660D01*
X11267Y17652D01*
X11312Y17648D01*
X11352Y17641D01*
X11371Y17639D01*
X11385Y17637D01*
X11399D01*
X11409Y17635D01*
X11417D01*
X11460Y17631D01*
X11499Y17625D01*
X11533Y17619D01*
X11566Y17611D01*
X11596Y17603D01*
X11623Y17595D01*
X11647Y17584D01*
X11668Y17576D01*
X11686Y17566D01*
X11702Y17558D01*
X11714Y17550D01*
X11725Y17544D01*
X11733Y17538D01*
X11739Y17534D01*
X11741Y17532D01*
X11743Y17530D01*
X11759Y17513D01*
X11771Y17495D01*
X11794Y17456D01*
X11810Y17418D01*
X11820Y17379D01*
X11828Y17346D01*
X11830Y17332D01*
Y17320D01*
X11832Y17310D01*
Y17302D01*
Y17298D01*
Y17296D01*
X11828Y17249D01*
X11820Y17206D01*
X11806Y17169D01*
X11792Y17139D01*
X11778Y17112D01*
X11763Y17094D01*
X11755Y17084D01*
X11751Y17080D01*
X11719Y17053D01*
X11684Y17033D01*
X11647Y17019D01*
X11615Y17009D01*
X11586Y17003D01*
X11562Y17001D01*
X11554Y16999D01*
X11542D01*
X11511Y17001D01*
X11482Y17005D01*
X11456Y17011D01*
X11432Y17017D01*
X11411Y17023D01*
X11397Y17029D01*
X11387Y17033D01*
X11383Y17035D01*
X11354Y17049D01*
X11328Y17068D01*
X11303Y17084D01*
X11283Y17100D01*
X11267Y17117D01*
X11253Y17129D01*
X11244Y17137D01*
X11242Y17139D01*
X11238Y17096D01*
X11234Y17078D01*
X11232Y17060D01*
X11228Y17045D01*
X11224Y17035D01*
X11222Y17027D01*
Y17025D01*
X10956D01*
X10964Y17053D01*
X10968Y17082D01*
X10972Y17106D01*
X10976Y17127D01*
Y17145D01*
X10978Y17157D01*
Y17167D01*
Y17169D01*
Y17184D01*
X10976Y17202D01*
X10972Y17241D01*
X10966Y17281D01*
X10958Y17324D01*
X10951Y17363D01*
X10947Y17379D01*
X10945Y17395D01*
X10943Y17407D01*
X10941Y17416D01*
X10939Y17422D01*
Y17424D01*
X10931Y17462D01*
X10923Y17499D01*
X10915Y17532D01*
X10909Y17560D01*
X10905Y17584D01*
X10901Y17607D01*
X10897Y17627D01*
X10892Y17643D01*
X10890Y17658D01*
X10886Y17668D01*
Y17678D01*
X10884Y17684D01*
X10882Y17694D01*
Y17696D01*
X10876Y17735D01*
X10874Y17751D01*
Y17766D01*
X10872Y17778D01*
Y17786D01*
Y17792D01*
Y17794D01*
Y17816D01*
X10876Y17837D01*
X10886Y17873D01*
X10903Y17906D01*
X10919Y17934D01*
X10937Y17959D01*
X10954Y17975D01*
X10964Y17985D01*
X10966Y17989D01*
X10968D01*
X10986Y18004D01*
X11006Y18016D01*
X11053Y18036D01*
X11100Y18050D01*
X11149Y18059D01*
X11192Y18065D01*
X11210Y18067D01*
X11226D01*
X11240Y18069D01*
X11259D01*
X11326Y18065D01*
D02*
G37*
G36*
X5529D02*
X5590Y18057D01*
X5617Y18050D01*
X5641Y18044D01*
X5666Y18038D01*
X5686Y18030D01*
X5704Y18022D01*
X5721Y18016D01*
X5735Y18010D01*
X5747Y18004D01*
X5755Y18000D01*
X5761Y17995D01*
X5765Y17991D01*
X5767D01*
X5806Y17961D01*
X5841Y17926D01*
X5867Y17890D01*
X5890Y17857D01*
X5906Y17827D01*
X5918Y17802D01*
X5922Y17792D01*
X5924Y17786D01*
X5926Y17782D01*
Y17780D01*
X5658Y17757D01*
X5652Y17776D01*
X5643Y17792D01*
X5633Y17806D01*
X5623Y17818D01*
X5615Y17829D01*
X5607Y17835D01*
X5603Y17839D01*
X5601Y17841D01*
X5582Y17851D01*
X5564Y17859D01*
X5544Y17863D01*
X5525Y17867D01*
X5509Y17869D01*
X5495Y17871D01*
X5483D01*
X5458Y17869D01*
X5436Y17867D01*
X5420Y17861D01*
X5403Y17857D01*
X5391Y17851D01*
X5383Y17845D01*
X5379Y17843D01*
X5377Y17841D01*
X5365Y17829D01*
X5356Y17816D01*
X5348Y17804D01*
X5344Y17792D01*
X5342Y17782D01*
X5340Y17776D01*
Y17770D01*
Y17768D01*
Y17753D01*
X5342Y17739D01*
X5348Y17709D01*
X5352Y17696D01*
X5356Y17686D01*
X5359Y17678D01*
Y17676D01*
X5373Y17672D01*
X5389Y17668D01*
X5407Y17664D01*
X5428Y17660D01*
X5470Y17652D01*
X5515Y17648D01*
X5556Y17641D01*
X5574Y17639D01*
X5588Y17637D01*
X5603D01*
X5613Y17635D01*
X5621D01*
X5664Y17631D01*
X5702Y17625D01*
X5737Y17619D01*
X5770Y17611D01*
X5800Y17603D01*
X5826Y17595D01*
X5851Y17584D01*
X5871Y17576D01*
X5890Y17566D01*
X5906Y17558D01*
X5918Y17550D01*
X5928Y17544D01*
X5936Y17538D01*
X5942Y17534D01*
X5944Y17532D01*
X5947Y17530D01*
X5963Y17513D01*
X5975Y17495D01*
X5997Y17456D01*
X6014Y17418D01*
X6024Y17379D01*
X6032Y17346D01*
X6034Y17332D01*
Y17320D01*
X6036Y17310D01*
Y17302D01*
Y17298D01*
Y17296D01*
X6032Y17249D01*
X6024Y17206D01*
X6010Y17169D01*
X5995Y17139D01*
X5981Y17112D01*
X5967Y17094D01*
X5959Y17084D01*
X5955Y17080D01*
X5922Y17053D01*
X5888Y17033D01*
X5851Y17019D01*
X5818Y17009D01*
X5790Y17003D01*
X5765Y17001D01*
X5757Y16999D01*
X5745D01*
X5715Y17001D01*
X5686Y17005D01*
X5660Y17011D01*
X5635Y17017D01*
X5615Y17023D01*
X5601Y17029D01*
X5590Y17033D01*
X5586Y17035D01*
X5558Y17049D01*
X5531Y17068D01*
X5507Y17084D01*
X5487Y17100D01*
X5470Y17117D01*
X5456Y17129D01*
X5448Y17137D01*
X5446Y17139D01*
X5442Y17096D01*
X5438Y17078D01*
X5436Y17060D01*
X5432Y17045D01*
X5428Y17035D01*
X5426Y17027D01*
Y17025D01*
X5159D01*
X5167Y17053D01*
X5171Y17082D01*
X5175Y17106D01*
X5179Y17127D01*
Y17145D01*
X5182Y17157D01*
Y17167D01*
Y17169D01*
Y17184D01*
X5179Y17202D01*
X5175Y17241D01*
X5169Y17281D01*
X5161Y17324D01*
X5155Y17363D01*
X5151Y17379D01*
X5149Y17395D01*
X5147Y17407D01*
X5145Y17416D01*
X5143Y17422D01*
Y17424D01*
X5135Y17462D01*
X5127Y17499D01*
X5118Y17532D01*
X5112Y17560D01*
X5108Y17584D01*
X5104Y17607D01*
X5100Y17627D01*
X5096Y17643D01*
X5094Y17658D01*
X5090Y17668D01*
Y17678D01*
X5088Y17684D01*
X5086Y17694D01*
Y17696D01*
X5080Y17735D01*
X5078Y17751D01*
Y17766D01*
X5076Y17778D01*
Y17786D01*
Y17792D01*
Y17794D01*
Y17816D01*
X5080Y17837D01*
X5090Y17873D01*
X5106Y17906D01*
X5123Y17934D01*
X5141Y17959D01*
X5157Y17975D01*
X5167Y17985D01*
X5169Y17989D01*
X5171D01*
X5190Y18004D01*
X5210Y18016D01*
X5257Y18036D01*
X5304Y18050D01*
X5352Y18059D01*
X5395Y18065D01*
X5413Y18067D01*
X5430D01*
X5444Y18069D01*
X5462D01*
X5529Y18065D01*
D02*
G37*
G36*
X8813Y18067D02*
X8846Y18063D01*
X8874Y18054D01*
X8905Y18046D01*
X8958Y18022D01*
X9006Y17995D01*
X9029Y17981D01*
X9047Y17969D01*
X9063Y17957D01*
X9078Y17945D01*
X9090Y17936D01*
X9098Y17928D01*
X9102Y17924D01*
X9104Y17922D01*
X9080Y18046D01*
X9338D01*
X9552Y17025D01*
X9279D01*
X9181Y17493D01*
X9175Y17515D01*
X9171Y17536D01*
X9163Y17568D01*
X9155Y17597D01*
X9151Y17617D01*
X9147Y17631D01*
X9143Y17641D01*
X9141Y17648D01*
Y17650D01*
X9131Y17676D01*
X9120Y17698D01*
X9110Y17721D01*
X9100Y17737D01*
X9092Y17751D01*
X9086Y17761D01*
X9082Y17768D01*
X9080Y17770D01*
X9065Y17786D01*
X9051Y17800D01*
X9037Y17814D01*
X9023Y17825D01*
X9013Y17833D01*
X9002Y17839D01*
X8996Y17841D01*
X8994Y17843D01*
X8976Y17853D01*
X8960Y17859D01*
X8943Y17865D01*
X8929Y17867D01*
X8917Y17869D01*
X8909Y17871D01*
X8901D01*
X8882Y17869D01*
X8868Y17867D01*
X8856Y17863D01*
X8844Y17859D01*
X8836Y17853D01*
X8829Y17849D01*
X8827Y17847D01*
X8825Y17845D01*
X8815Y17835D01*
X8809Y17823D01*
X8801Y17802D01*
X8799Y17792D01*
X8797Y17784D01*
Y17780D01*
Y17778D01*
Y17764D01*
X8801Y17743D01*
X8803Y17721D01*
X8807Y17696D01*
X8811Y17676D01*
X8815Y17658D01*
X8817Y17643D01*
X8819Y17641D01*
Y17639D01*
X8947Y17025D01*
X8675D01*
X8577Y17487D01*
X8569Y17523D01*
X8561Y17556D01*
X8553Y17587D01*
X8543Y17613D01*
X8534Y17637D01*
X8526Y17660D01*
X8518Y17680D01*
X8510Y17698D01*
X8504Y17713D01*
X8496Y17727D01*
X8490Y17737D01*
X8486Y17747D01*
X8482Y17753D01*
X8477Y17757D01*
X8475Y17761D01*
X8459Y17782D01*
X8445Y17798D01*
X8429Y17812D01*
X8412Y17825D01*
X8380Y17845D01*
X8351Y17857D01*
X8327Y17865D01*
X8307Y17869D01*
X8298Y17871D01*
X8288D01*
X8270Y17869D01*
X8256Y17867D01*
X8241Y17863D01*
X8231Y17859D01*
X8223Y17853D01*
X8217Y17849D01*
X8215Y17847D01*
X8213Y17845D01*
X8205Y17835D01*
X8197Y17825D01*
X8191Y17802D01*
X8189Y17792D01*
X8187Y17786D01*
Y17780D01*
Y17778D01*
Y17774D01*
Y17768D01*
X8191Y17751D01*
X8195Y17729D01*
X8199Y17707D01*
X8203Y17684D01*
X8207Y17664D01*
X8209Y17656D01*
Y17652D01*
X8211Y17648D01*
Y17646D01*
X8343Y17025D01*
X8071D01*
X7936Y17646D01*
X7926Y17690D01*
X7920Y17729D01*
X7914Y17761D01*
X7912Y17786D01*
X7910Y17804D01*
X7908Y17818D01*
Y17827D01*
Y17829D01*
X7910Y17867D01*
X7918Y17902D01*
X7930Y17930D01*
X7942Y17955D01*
X7955Y17975D01*
X7967Y17989D01*
X7975Y18000D01*
X7977Y18002D01*
X8003Y18024D01*
X8034Y18040D01*
X8066Y18052D01*
X8097Y18061D01*
X8123Y18065D01*
X8146Y18069D01*
X8166D01*
X8207Y18067D01*
X8244Y18061D01*
X8280Y18052D01*
X8311Y18042D01*
X8337Y18032D01*
X8355Y18024D01*
X8364Y18020D01*
X8370Y18018D01*
X8372Y18016D01*
X8374D01*
X8408Y17995D01*
X8439Y17973D01*
X8463Y17953D01*
X8486Y17932D01*
X8502Y17914D01*
X8514Y17900D01*
X8522Y17892D01*
X8524Y17888D01*
X8532Y17918D01*
X8545Y17943D01*
X8559Y17967D01*
X8571Y17985D01*
X8585Y18000D01*
X8595Y18012D01*
X8604Y18018D01*
X8606Y18020D01*
X8630Y18036D01*
X8659Y18048D01*
X8689Y18057D01*
X8718Y18063D01*
X8742Y18067D01*
X8764Y18069D01*
X8783D01*
X8813Y18067D01*
D02*
G37*
G36*
X15295Y17778D02*
X15023D01*
X14970Y18044D01*
X15242D01*
X15295Y17778D01*
D02*
G37*
G36*
X18400Y18209D02*
X18432Y18046D01*
X18567D01*
X18609Y17841D01*
X18473D01*
X18561Y17430D01*
X18567Y17399D01*
X18573Y17371D01*
X18577Y17346D01*
X18581Y17324D01*
X18585Y17304D01*
X18589Y17285D01*
X18591Y17271D01*
X18593Y17257D01*
X18595Y17237D01*
X18597Y17222D01*
Y17214D01*
Y17212D01*
X18595Y17176D01*
X18587Y17145D01*
X18577Y17117D01*
X18565Y17094D01*
X18553Y17078D01*
X18542Y17064D01*
X18534Y17056D01*
X18532Y17053D01*
X18504Y17035D01*
X18471Y17021D01*
X18435Y17013D01*
X18400Y17005D01*
X18367Y17001D01*
X18355D01*
X18343Y16999D01*
X18319D01*
X18264Y17001D01*
X18239Y17005D01*
X18217Y17007D01*
X18199Y17011D01*
X18184Y17013D01*
X18176Y17015D01*
X18172D01*
X18129Y17218D01*
X18154Y17216D01*
X18174Y17214D01*
X18190Y17212D01*
X18203D01*
X18211Y17210D01*
X18239D01*
X18255Y17212D01*
X18270Y17216D01*
X18280Y17220D01*
X18286Y17222D01*
X18292Y17226D01*
X18294Y17228D01*
X18296D01*
X18306Y17245D01*
X18312Y17259D01*
X18314Y17273D01*
Y17275D01*
Y17277D01*
Y17281D01*
X18312Y17287D01*
X18310Y17306D01*
X18306Y17326D01*
X18302Y17351D01*
X18298Y17373D01*
X18294Y17391D01*
X18292Y17399D01*
X18290Y17405D01*
Y17407D01*
Y17410D01*
X18201Y17841D01*
X18032D01*
X17989Y18046D01*
X18158D01*
X18087Y18398D01*
X18400Y18209D01*
D02*
G37*
G36*
X17745D02*
X17777Y18046D01*
X17912D01*
X17954Y17841D01*
X17818D01*
X17906Y17430D01*
X17912Y17399D01*
X17918Y17371D01*
X17922Y17346D01*
X17926Y17324D01*
X17930Y17304D01*
X17934Y17285D01*
X17936Y17271D01*
X17938Y17257D01*
X17940Y17237D01*
X17942Y17222D01*
Y17214D01*
Y17212D01*
X17940Y17176D01*
X17932Y17145D01*
X17922Y17117D01*
X17910Y17094D01*
X17897Y17078D01*
X17887Y17064D01*
X17879Y17056D01*
X17877Y17053D01*
X17849Y17035D01*
X17816Y17021D01*
X17779Y17013D01*
X17745Y17005D01*
X17712Y17001D01*
X17700D01*
X17688Y16999D01*
X17663D01*
X17608Y17001D01*
X17584Y17005D01*
X17562Y17007D01*
X17543Y17011D01*
X17529Y17013D01*
X17521Y17015D01*
X17517D01*
X17474Y17218D01*
X17499Y17216D01*
X17519Y17214D01*
X17535Y17212D01*
X17547D01*
X17556Y17210D01*
X17584D01*
X17600Y17212D01*
X17615Y17216D01*
X17625Y17220D01*
X17631Y17222D01*
X17637Y17226D01*
X17639Y17228D01*
X17641D01*
X17651Y17245D01*
X17657Y17259D01*
X17659Y17273D01*
Y17275D01*
Y17277D01*
Y17281D01*
X17657Y17287D01*
X17655Y17306D01*
X17651Y17326D01*
X17647Y17351D01*
X17643Y17373D01*
X17639Y17391D01*
X17637Y17399D01*
X17635Y17405D01*
Y17407D01*
Y17410D01*
X17545Y17841D01*
X17377D01*
X17334Y18046D01*
X17503D01*
X17431Y18398D01*
X17745Y18209D01*
D02*
G37*
G36*
X9014Y16073D02*
X9042Y16066D01*
X9070Y16056D01*
X9094Y16043D01*
X9120Y16029D01*
X9142Y16012D01*
X9185Y15975D01*
X9203Y15956D01*
X9220Y15938D01*
X9235Y15921D01*
X9248Y15906D01*
X9257Y15893D01*
X9264Y15884D01*
X9268Y15877D01*
X9270Y15875D01*
X9233Y16055D01*
X9466D01*
X9661Y15125D01*
X9413D01*
X9351Y15416D01*
X9344Y15447D01*
X9338Y15479D01*
X9331Y15506D01*
X9324Y15531D01*
X9318Y15555D01*
X9313Y15577D01*
X9305Y15595D01*
X9300Y15612D01*
X9296Y15627D01*
X9290Y15640D01*
X9287Y15651D01*
X9283Y15660D01*
X9281Y15666D01*
X9279Y15671D01*
X9277Y15675D01*
X9263Y15705D01*
X9246Y15730D01*
X9227Y15753D01*
X9211Y15771D01*
X9196Y15784D01*
X9185Y15795D01*
X9177Y15803D01*
X9174Y15805D01*
X9148Y15821D01*
X9124Y15834D01*
X9101Y15842D01*
X9081Y15849D01*
X9064Y15853D01*
X9051Y15855D01*
X9040D01*
X9013Y15853D01*
X8988Y15849D01*
X8979Y15845D01*
X8972Y15843D01*
X8968Y15842D01*
X8966D01*
X8870Y16047D01*
X8892Y16056D01*
X8914Y16064D01*
X8935Y16067D01*
X8951Y16071D01*
X8966Y16073D01*
X8977Y16075D01*
X8987D01*
X9014Y16073D01*
D02*
G37*
G36*
X20567Y17025D02*
X20310D01*
X19999Y17674D01*
X19948Y17025D01*
X19690D01*
X19185Y18046D01*
X19460D01*
X19775Y17361D01*
X19810Y18046D01*
X20062D01*
X20378Y17361D01*
X20449Y18046D01*
X20693D01*
X20567Y17025D01*
D02*
G37*
G36*
X12390D02*
X12117D01*
X11822Y18433D01*
X12095D01*
X12390Y17025D01*
D02*
G37*
G36*
X12068Y16073D02*
X12097Y16069D01*
X12123Y16062D01*
X12151Y16055D01*
X12199Y16032D01*
X12244Y16008D01*
X12264Y15995D01*
X12281Y15984D01*
X12296Y15973D01*
X12309Y15962D01*
X12320Y15955D01*
X12327Y15947D01*
X12331Y15943D01*
X12333Y15942D01*
X12310Y16055D01*
X12546D01*
X12740Y15125D01*
X12492D01*
X12403Y15551D01*
X12397Y15571D01*
X12394Y15590D01*
X12386Y15619D01*
X12379Y15645D01*
X12375Y15664D01*
X12371Y15677D01*
X12368Y15686D01*
X12366Y15692D01*
Y15693D01*
X12357Y15718D01*
X12347Y15738D01*
X12338Y15758D01*
X12329Y15773D01*
X12321Y15786D01*
X12316Y15795D01*
X12312Y15801D01*
X12310Y15803D01*
X12297Y15818D01*
X12284Y15830D01*
X12271Y15843D01*
X12259Y15853D01*
X12249Y15860D01*
X12240Y15866D01*
X12234Y15868D01*
X12233Y15869D01*
X12216Y15879D01*
X12201Y15884D01*
X12186Y15890D01*
X12173Y15892D01*
X12162Y15893D01*
X12155Y15895D01*
X12147D01*
X12131Y15893D01*
X12118Y15892D01*
X12107Y15888D01*
X12096Y15884D01*
X12088Y15879D01*
X12083Y15875D01*
X12081Y15873D01*
X12079Y15871D01*
X12070Y15862D01*
X12064Y15851D01*
X12057Y15832D01*
X12055Y15823D01*
X12053Y15816D01*
Y15812D01*
Y15810D01*
Y15797D01*
X12057Y15779D01*
X12059Y15758D01*
X12062Y15736D01*
X12066Y15718D01*
X12070Y15701D01*
X12071Y15688D01*
X12073Y15686D01*
Y15684D01*
X12190Y15125D01*
X11942D01*
X11853Y15545D01*
X11846Y15579D01*
X11838Y15608D01*
X11831Y15636D01*
X11822Y15660D01*
X11814Y15682D01*
X11807Y15703D01*
X11799Y15721D01*
X11792Y15738D01*
X11786Y15751D01*
X11779Y15764D01*
X11773Y15773D01*
X11770Y15782D01*
X11766Y15788D01*
X11762Y15792D01*
X11760Y15795D01*
X11746Y15814D01*
X11733Y15829D01*
X11718Y15842D01*
X11703Y15853D01*
X11673Y15871D01*
X11647Y15882D01*
X11625Y15890D01*
X11607Y15893D01*
X11599Y15895D01*
X11590D01*
X11573Y15893D01*
X11560Y15892D01*
X11547Y15888D01*
X11538Y15884D01*
X11531Y15879D01*
X11525Y15875D01*
X11523Y15873D01*
X11522Y15871D01*
X11514Y15862D01*
X11507Y15853D01*
X11501Y15832D01*
X11499Y15823D01*
X11497Y15818D01*
Y15812D01*
Y15810D01*
Y15806D01*
Y15801D01*
X11501Y15786D01*
X11505Y15766D01*
X11509Y15745D01*
X11512Y15725D01*
X11516Y15706D01*
X11518Y15699D01*
Y15695D01*
X11520Y15692D01*
Y15690D01*
X11640Y15125D01*
X11392D01*
X11270Y15690D01*
X11260Y15730D01*
X11255Y15766D01*
X11249Y15795D01*
X11248Y15818D01*
X11246Y15834D01*
X11244Y15847D01*
Y15855D01*
Y15856D01*
X11246Y15892D01*
X11253Y15923D01*
X11264Y15949D01*
X11275Y15971D01*
X11286Y15990D01*
X11297Y16003D01*
X11305Y16012D01*
X11307Y16014D01*
X11331Y16034D01*
X11359Y16049D01*
X11388Y16060D01*
X11416Y16067D01*
X11440Y16071D01*
X11460Y16075D01*
X11479D01*
X11516Y16073D01*
X11549Y16067D01*
X11583Y16060D01*
X11610Y16051D01*
X11634Y16042D01*
X11651Y16034D01*
X11659Y16030D01*
X11664Y16029D01*
X11666Y16027D01*
X11668D01*
X11699Y16008D01*
X11727Y15988D01*
X11749Y15969D01*
X11770Y15951D01*
X11784Y15934D01*
X11796Y15921D01*
X11803Y15914D01*
X11805Y15910D01*
X11812Y15938D01*
X11823Y15960D01*
X11836Y15982D01*
X11847Y15999D01*
X11860Y16012D01*
X11870Y16023D01*
X11877Y16029D01*
X11879Y16030D01*
X11901Y16045D01*
X11927Y16056D01*
X11955Y16064D01*
X11981Y16069D01*
X12003Y16073D01*
X12023Y16075D01*
X12040D01*
X12068Y16073D01*
D02*
G37*
G36*
X22443Y16071D02*
X22483Y16064D01*
X22520Y16053D01*
X22552Y16040D01*
X22580Y16027D01*
X22593Y16021D01*
X22602Y16016D01*
X22609Y16012D01*
X22615Y16008D01*
X22619Y16005D01*
X22620D01*
X22657Y15975D01*
X22691Y15943D01*
X22720Y15908D01*
X22744Y15875D01*
X22763Y15843D01*
X22770Y15830D01*
X22776Y15819D01*
X22781Y15810D01*
X22783Y15803D01*
X22787Y15799D01*
Y15797D01*
X22807Y15745D01*
X22820Y15693D01*
X22831Y15643D01*
X22839Y15597D01*
X22841Y15575D01*
X22843Y15556D01*
X22844Y15540D01*
Y15525D01*
X22846Y15514D01*
Y15505D01*
Y15499D01*
Y15497D01*
X22844Y15464D01*
X22843Y15432D01*
X22839Y15403D01*
X22833Y15375D01*
X22826Y15349D01*
X22819Y15327D01*
X22811Y15306D01*
X22802Y15288D01*
X22794Y15271D01*
X22787Y15256D01*
X22780Y15244D01*
X22772Y15234D01*
X22767Y15225D01*
X22763Y15219D01*
X22759Y15218D01*
Y15216D01*
X22743Y15199D01*
X22724Y15184D01*
X22706Y15171D01*
X22687Y15162D01*
X22650Y15144D01*
X22615Y15132D01*
X22583Y15127D01*
X22570Y15125D01*
X22557Y15123D01*
X22548Y15121D01*
X22535D01*
X22507Y15123D01*
X22482Y15127D01*
X22456Y15131D01*
X22430Y15138D01*
X22383Y15155D01*
X22341Y15175D01*
X22322Y15184D01*
X22304Y15195D01*
X22291Y15205D01*
X22278Y15212D01*
X22267Y15219D01*
X22259Y15225D01*
X22256Y15227D01*
X22254Y15229D01*
X22263Y15186D01*
X22270Y15147D01*
X22278Y15116D01*
X22285Y15090D01*
X22289Y15069D01*
X22295Y15055D01*
X22298Y15045D01*
X22300Y15040D01*
Y15038D01*
X22309Y15019D01*
X22320Y15003D01*
X22330Y14990D01*
X22341Y14979D01*
X22350Y14971D01*
X22356Y14966D01*
X22361Y14962D01*
X22363Y14960D01*
X22383Y14949D01*
X22406Y14942D01*
X22428Y14934D01*
X22450Y14931D01*
X22469Y14929D01*
X22483Y14927D01*
X22517D01*
X22532Y14929D01*
X22544Y14932D01*
X22557Y14934D01*
X22565Y14938D01*
X22572Y14940D01*
X22576Y14942D01*
X22578D01*
X22596Y14953D01*
X22609Y14966D01*
X22617Y14973D01*
X22619Y14977D01*
X22622Y14986D01*
X22626Y14995D01*
X22630Y15016D01*
X22632Y15023D01*
Y15031D01*
Y15036D01*
Y15038D01*
X22898Y15075D01*
X22900Y15062D01*
Y15051D01*
Y15044D01*
Y15040D01*
X22898Y15012D01*
X22896Y14984D01*
X22891Y14960D01*
X22885Y14938D01*
X22876Y14918D01*
X22869Y14899D01*
X22859Y14884D01*
X22850Y14869D01*
X22831Y14845D01*
X22815Y14829D01*
X22804Y14819D01*
X22802Y14816D01*
X22800D01*
X22780Y14805D01*
X22759Y14794D01*
X22711Y14777D01*
X22663Y14764D01*
X22615Y14757D01*
X22593Y14753D01*
X22570Y14751D01*
X22552Y14749D01*
X22535D01*
X22522Y14747D01*
X22472D01*
X22443Y14749D01*
X22415Y14753D01*
X22391Y14755D01*
X22370Y14758D01*
X22356Y14760D01*
X22346Y14762D01*
X22343D01*
X22317Y14768D01*
X22291Y14775D01*
X22270Y14782D01*
X22250Y14792D01*
X22235Y14797D01*
X22224Y14803D01*
X22217Y14807D01*
X22215Y14808D01*
X22195Y14821D01*
X22178Y14834D01*
X22161Y14847D01*
X22148Y14860D01*
X22139Y14871D01*
X22130Y14881D01*
X22126Y14886D01*
X22124Y14888D01*
X22111Y14906D01*
X22100Y14927D01*
X22089Y14949D01*
X22080Y14968D01*
X22072Y14986D01*
X22067Y15001D01*
X22063Y15010D01*
X22061Y15014D01*
X22056Y15031D01*
X22050Y15047D01*
X22039Y15088D01*
X22028Y15132D01*
X22017Y15175D01*
X22007Y15214D01*
X22004Y15232D01*
X22000Y15247D01*
X21996Y15260D01*
X21995Y15269D01*
X21993Y15275D01*
Y15277D01*
X21846Y16055D01*
X22080D01*
X22113Y15890D01*
X22130Y15921D01*
X22150Y15947D01*
X22170Y15971D01*
X22189Y15990D01*
X22206Y16005D01*
X22220Y16016D01*
X22230Y16023D01*
X22233Y16025D01*
X22263Y16042D01*
X22291Y16055D01*
X22320Y16062D01*
X22346Y16069D01*
X22369Y16073D01*
X22387Y16075D01*
X22402D01*
X22443Y16071D01*
D02*
G37*
G36*
X7852Y15125D02*
X7603D01*
X7526Y15492D01*
X7518Y15523D01*
X7513Y15551D01*
X7507Y15575D01*
X7502Y15599D01*
X7496Y15619D01*
X7492Y15636D01*
X7487Y15653D01*
X7483Y15666D01*
X7479Y15677D01*
X7478Y15686D01*
X7472Y15701D01*
X7470Y15708D01*
X7468Y15710D01*
X7452Y15740D01*
X7433Y15768D01*
X7413Y15792D01*
X7394Y15812D01*
X7378Y15829D01*
X7365Y15840D01*
X7355Y15849D01*
X7352Y15851D01*
X7329Y15866D01*
X7307Y15877D01*
X7287Y15884D01*
X7266Y15890D01*
X7252Y15893D01*
X7239Y15895D01*
X7228D01*
X7209Y15893D01*
X7194Y15892D01*
X7179Y15886D01*
X7168Y15880D01*
X7159Y15875D01*
X7153Y15871D01*
X7150Y15868D01*
X7148Y15866D01*
X7139Y15855D01*
X7131Y15842D01*
X7126Y15830D01*
X7122Y15818D01*
X7120Y15808D01*
X7118Y15799D01*
Y15793D01*
Y15792D01*
X7120Y15779D01*
X7122Y15762D01*
X7126Y15743D01*
X7129Y15725D01*
X7133Y15706D01*
X7135Y15692D01*
X7139Y15681D01*
Y15679D01*
Y15677D01*
X7257Y15125D01*
X7009D01*
X6892Y15666D01*
X6883Y15706D01*
X6878Y15743D01*
X6872Y15773D01*
X6868Y15797D01*
X6866Y15816D01*
X6865Y15829D01*
Y15838D01*
Y15840D01*
X6868Y15877D01*
X6876Y15910D01*
X6885Y15938D01*
X6898Y15964D01*
X6911Y15982D01*
X6920Y15997D01*
X6928Y16005D01*
X6931Y16008D01*
X6957Y16030D01*
X6987Y16047D01*
X7016Y16058D01*
X7046Y16067D01*
X7072Y16071D01*
X7092Y16073D01*
X7100Y16075D01*
X7111D01*
X7142Y16073D01*
X7172Y16071D01*
X7198Y16066D01*
X7222Y16060D01*
X7242Y16055D01*
X7257Y16051D01*
X7266Y16047D01*
X7270Y16045D01*
X7298Y16032D01*
X7326Y16017D01*
X7353Y16003D01*
X7378Y15986D01*
X7398Y15971D01*
X7415Y15960D01*
X7426Y15953D01*
X7428Y15949D01*
X7429D01*
X7335Y16406D01*
X7583D01*
X7852Y15125D01*
D02*
G37*
G36*
X14158Y16073D02*
X14188Y16069D01*
X14214Y16062D01*
X14242Y16055D01*
X14290Y16032D01*
X14334Y16008D01*
X14355Y15995D01*
X14371Y15984D01*
X14386Y15973D01*
X14399Y15962D01*
X14410Y15955D01*
X14418Y15947D01*
X14421Y15943D01*
X14423Y15942D01*
X14401Y16055D01*
X14636D01*
X14830Y15125D01*
X14582D01*
X14493Y15551D01*
X14488Y15571D01*
X14484Y15590D01*
X14477Y15619D01*
X14469Y15645D01*
X14466Y15664D01*
X14462Y15677D01*
X14458Y15686D01*
X14456Y15692D01*
Y15693D01*
X14447Y15718D01*
X14438Y15738D01*
X14429Y15758D01*
X14419Y15773D01*
X14412Y15786D01*
X14406Y15795D01*
X14403Y15801D01*
X14401Y15803D01*
X14388Y15818D01*
X14375Y15830D01*
X14362Y15843D01*
X14349Y15853D01*
X14340Y15860D01*
X14331Y15866D01*
X14325Y15868D01*
X14323Y15869D01*
X14306Y15879D01*
X14292Y15884D01*
X14277Y15890D01*
X14264Y15892D01*
X14253Y15893D01*
X14245Y15895D01*
X14238D01*
X14221Y15893D01*
X14208Y15892D01*
X14197Y15888D01*
X14186Y15884D01*
X14179Y15879D01*
X14173Y15875D01*
X14171Y15873D01*
X14169Y15871D01*
X14160Y15862D01*
X14155Y15851D01*
X14147Y15832D01*
X14145Y15823D01*
X14144Y15816D01*
Y15812D01*
Y15810D01*
Y15797D01*
X14147Y15779D01*
X14149Y15758D01*
X14153Y15736D01*
X14156Y15718D01*
X14160Y15701D01*
X14162Y15688D01*
X14164Y15686D01*
Y15684D01*
X14281Y15125D01*
X14032D01*
X13944Y15545D01*
X13936Y15579D01*
X13929Y15608D01*
X13921Y15636D01*
X13912Y15660D01*
X13905Y15682D01*
X13897Y15703D01*
X13890Y15721D01*
X13882Y15738D01*
X13877Y15751D01*
X13869Y15764D01*
X13864Y15773D01*
X13860Y15782D01*
X13856Y15788D01*
X13853Y15792D01*
X13851Y15795D01*
X13836Y15814D01*
X13823Y15829D01*
X13808Y15842D01*
X13794Y15853D01*
X13764Y15871D01*
X13738Y15882D01*
X13716Y15890D01*
X13697Y15893D01*
X13690Y15895D01*
X13681D01*
X13664Y15893D01*
X13651Y15892D01*
X13638Y15888D01*
X13629Y15884D01*
X13621Y15879D01*
X13616Y15875D01*
X13614Y15873D01*
X13612Y15871D01*
X13605Y15862D01*
X13597Y15853D01*
X13592Y15832D01*
X13590Y15823D01*
X13588Y15818D01*
Y15812D01*
Y15810D01*
Y15806D01*
Y15801D01*
X13592Y15786D01*
X13595Y15766D01*
X13599Y15745D01*
X13603Y15725D01*
X13607Y15706D01*
X13608Y15699D01*
Y15695D01*
X13610Y15692D01*
Y15690D01*
X13731Y15125D01*
X13482D01*
X13360Y15690D01*
X13351Y15730D01*
X13345Y15766D01*
X13340Y15795D01*
X13338Y15818D01*
X13336Y15834D01*
X13334Y15847D01*
Y15855D01*
Y15856D01*
X13336Y15892D01*
X13344Y15923D01*
X13355Y15949D01*
X13366Y15971D01*
X13377Y15990D01*
X13388Y16003D01*
X13395Y16012D01*
X13397Y16014D01*
X13421Y16034D01*
X13449Y16049D01*
X13479Y16060D01*
X13507Y16067D01*
X13531Y16071D01*
X13551Y16075D01*
X13569D01*
X13607Y16073D01*
X13640Y16067D01*
X13673Y16060D01*
X13701Y16051D01*
X13725Y16042D01*
X13742Y16034D01*
X13749Y16030D01*
X13755Y16029D01*
X13757Y16027D01*
X13758D01*
X13790Y16008D01*
X13818Y15988D01*
X13840Y15969D01*
X13860Y15951D01*
X13875Y15934D01*
X13886Y15921D01*
X13894Y15914D01*
X13895Y15910D01*
X13903Y15938D01*
X13914Y15960D01*
X13927Y15982D01*
X13938Y15999D01*
X13951Y16012D01*
X13960Y16023D01*
X13968Y16029D01*
X13969Y16030D01*
X13992Y16045D01*
X14018Y16056D01*
X14045Y16064D01*
X14071Y16069D01*
X14094Y16073D01*
X14114Y16075D01*
X14131D01*
X14158Y16073D01*
D02*
G37*
G36*
X10133Y16071D02*
X10185Y16062D01*
X10231Y16051D01*
X10272Y16036D01*
X10290Y16029D01*
X10307Y16021D01*
X10320Y16016D01*
X10333Y16010D01*
X10342Y16005D01*
X10349Y16001D01*
X10353Y15999D01*
X10355Y15997D01*
X10399Y15966D01*
X10438Y15930D01*
X10470Y15895D01*
X10496Y15862D01*
X10518Y15830D01*
X10525Y15818D01*
X10533Y15806D01*
X10536Y15797D01*
X10540Y15790D01*
X10544Y15786D01*
Y15784D01*
X10564Y15732D01*
X10581Y15682D01*
X10592Y15634D01*
X10599Y15590D01*
X10601Y15569D01*
X10603Y15553D01*
X10605Y15536D01*
Y15523D01*
X10607Y15512D01*
Y15505D01*
Y15499D01*
Y15497D01*
X10605Y15464D01*
X10603Y15432D01*
X10598Y15401D01*
X10590Y15373D01*
X10583Y15347D01*
X10573Y15323D01*
X10564Y15303D01*
X10555Y15282D01*
X10546Y15266D01*
X10536Y15249D01*
X10527Y15236D01*
X10520Y15227D01*
X10512Y15218D01*
X10507Y15212D01*
X10505Y15208D01*
X10503Y15206D01*
X10483Y15188D01*
X10461Y15171D01*
X10438Y15158D01*
X10416Y15145D01*
X10392Y15136D01*
X10368Y15127D01*
X10324Y15114D01*
X10303Y15110D01*
X10283Y15106D01*
X10266Y15105D01*
X10251Y15103D01*
X10238Y15101D01*
X10222D01*
X10192Y15103D01*
X10164Y15105D01*
X10112Y15114D01*
X10066Y15127D01*
X10025Y15144D01*
X10009Y15151D01*
X9994Y15158D01*
X9979Y15166D01*
X9968Y15171D01*
X9959Y15177D01*
X9953Y15181D01*
X9949Y15184D01*
X9948D01*
X9905Y15219D01*
X9870Y15258D01*
X9838Y15299D01*
X9812Y15340D01*
X9794Y15375D01*
X9787Y15390D01*
X9779Y15405D01*
X9774Y15416D01*
X9772Y15423D01*
X9768Y15429D01*
Y15431D01*
X10012Y15471D01*
X10025Y15440D01*
X10040Y15414D01*
X10055Y15392D01*
X10068Y15373D01*
X10081Y15358D01*
X10092Y15349D01*
X10099Y15342D01*
X10101Y15340D01*
X10122Y15325D01*
X10142Y15316D01*
X10162Y15308D01*
X10179Y15303D01*
X10194Y15299D01*
X10205Y15297D01*
X10216D01*
X10238Y15299D01*
X10257Y15305D01*
X10275Y15312D01*
X10290Y15319D01*
X10301Y15327D01*
X10311Y15334D01*
X10316Y15340D01*
X10318Y15342D01*
X10331Y15360D01*
X10340Y15381D01*
X10348Y15401D01*
X10351Y15421D01*
X10355Y15440D01*
X10357Y15455D01*
Y15464D01*
Y15468D01*
X10355Y15505D01*
X10351Y15540D01*
X10346Y15575D01*
X10340Y15606D01*
X10335Y15632D01*
X10329Y15653D01*
X10327Y15660D01*
X10325Y15666D01*
X10324Y15669D01*
Y15671D01*
X10311Y15710D01*
X10294Y15743D01*
X10279Y15771D01*
X10262Y15793D01*
X10249Y15812D01*
X10238Y15825D01*
X10229Y15832D01*
X10227Y15834D01*
X10203Y15853D01*
X10179Y15866D01*
X10157Y15877D01*
X10137Y15882D01*
X10118Y15886D01*
X10105Y15890D01*
X10092D01*
X10070Y15888D01*
X10049Y15884D01*
X10033Y15877D01*
X10018Y15871D01*
X10005Y15864D01*
X9998Y15856D01*
X9992Y15853D01*
X9990Y15851D01*
X9977Y15836D01*
X9966Y15818D01*
X9959Y15799D01*
X9951Y15780D01*
X9948Y15762D01*
X9944Y15749D01*
X9942Y15740D01*
Y15736D01*
X9703Y15760D01*
X9707Y15786D01*
X9712Y15810D01*
X9725Y15855D01*
X9744Y15893D01*
X9764Y15927D01*
X9783Y15953D01*
X9800Y15973D01*
X9805Y15979D01*
X9811Y15984D01*
X9812Y15986D01*
X9814Y15988D01*
X9833Y16003D01*
X9853Y16017D01*
X9898Y16038D01*
X9940Y16055D01*
X9983Y16064D01*
X10020Y16071D01*
X10037Y16073D01*
X10049D01*
X10061Y16075D01*
X10077D01*
X10133Y16071D01*
D02*
G37*
G36*
X21037Y16203D02*
X21067Y16055D01*
X21189D01*
X21228Y15868D01*
X21104D01*
X21184Y15493D01*
X21189Y15466D01*
X21195Y15440D01*
X21198Y15418D01*
X21202Y15397D01*
X21206Y15379D01*
X21209Y15362D01*
X21211Y15349D01*
X21213Y15336D01*
X21215Y15318D01*
X21217Y15305D01*
Y15297D01*
Y15295D01*
X21215Y15262D01*
X21208Y15234D01*
X21198Y15208D01*
X21187Y15188D01*
X21176Y15173D01*
X21167Y15160D01*
X21159Y15153D01*
X21158Y15151D01*
X21132Y15134D01*
X21102Y15121D01*
X21069Y15114D01*
X21037Y15106D01*
X21008Y15103D01*
X20996D01*
X20985Y15101D01*
X20963D01*
X20913Y15103D01*
X20891Y15106D01*
X20871Y15108D01*
X20854Y15112D01*
X20841Y15114D01*
X20834Y15116D01*
X20830D01*
X20791Y15301D01*
X20813Y15299D01*
X20832Y15297D01*
X20847Y15295D01*
X20858D01*
X20865Y15293D01*
X20891D01*
X20906Y15295D01*
X20919Y15299D01*
X20928Y15303D01*
X20934Y15305D01*
X20939Y15308D01*
X20941Y15310D01*
X20943D01*
X20952Y15325D01*
X20958Y15338D01*
X20959Y15351D01*
Y15353D01*
Y15355D01*
Y15358D01*
X20958Y15364D01*
X20956Y15381D01*
X20952Y15399D01*
X20948Y15421D01*
X20945Y15442D01*
X20941Y15458D01*
X20939Y15466D01*
X20937Y15471D01*
Y15473D01*
Y15475D01*
X20856Y15868D01*
X20702D01*
X20663Y16055D01*
X20817D01*
X20752Y16375D01*
X21037Y16203D01*
D02*
G37*
G36*
X19517Y15536D02*
X19523Y15510D01*
X19528Y15486D01*
X19532Y15464D01*
X19536Y15445D01*
X19537Y15427D01*
X19541Y15412D01*
X19545Y15386D01*
X19547Y15366D01*
X19549Y15353D01*
Y15345D01*
Y15343D01*
X19547Y15305D01*
X19539Y15269D01*
X19530Y15238D01*
X19519Y15214D01*
X19508Y15194D01*
X19499Y15179D01*
X19491Y15169D01*
X19489Y15166D01*
X19465Y15144D01*
X19437Y15129D01*
X19410Y15118D01*
X19384Y15108D01*
X19360Y15105D01*
X19339Y15103D01*
X19332Y15101D01*
X19323D01*
X19291Y15103D01*
X19261Y15106D01*
X19232Y15114D01*
X19204Y15123D01*
X19152Y15145D01*
X19128Y15158D01*
X19106Y15173D01*
X19086Y15186D01*
X19069Y15199D01*
X19052Y15210D01*
X19039Y15221D01*
X19030Y15231D01*
X19021Y15238D01*
X19017Y15242D01*
X19015Y15244D01*
X19041Y15125D01*
X18806D01*
X18597Y16055D01*
X18847D01*
X18947Y15610D01*
X18954Y15581D01*
X18960Y15556D01*
X18965Y15534D01*
X18971Y15518D01*
X18974Y15503D01*
X18978Y15493D01*
X18980Y15488D01*
Y15486D01*
X18987Y15466D01*
X18997Y15447D01*
X19004Y15432D01*
X19012Y15418D01*
X19017Y15408D01*
X19023Y15399D01*
X19024Y15395D01*
X19026Y15393D01*
X19045Y15369D01*
X19063Y15351D01*
X19071Y15343D01*
X19076Y15338D01*
X19080Y15334D01*
X19082Y15332D01*
X19104Y15316D01*
X19123Y15303D01*
X19130Y15299D01*
X19136Y15295D01*
X19139Y15293D01*
X19141D01*
X19162Y15286D01*
X19180Y15282D01*
X19187Y15281D01*
X19199D01*
X19213Y15282D01*
X19226Y15284D01*
X19237Y15290D01*
X19249Y15295D01*
X19256Y15299D01*
X19261Y15305D01*
X19265Y15306D01*
X19267Y15308D01*
X19276Y15319D01*
X19282Y15332D01*
X19289Y15355D01*
X19291Y15364D01*
X19293Y15371D01*
Y15377D01*
Y15379D01*
X19291Y15392D01*
X19289Y15408D01*
X19286Y15429D01*
X19282Y15449D01*
X19278Y15469D01*
X19274Y15486D01*
X19271Y15497D01*
Y15499D01*
Y15501D01*
X19147Y16055D01*
X19400D01*
X19517Y15536D01*
D02*
G37*
G36*
X16404Y16071D02*
X16456Y16062D01*
X16503Y16051D01*
X16543Y16036D01*
X16562Y16029D01*
X16578Y16021D01*
X16591Y16016D01*
X16604Y16010D01*
X16614Y16005D01*
X16621Y16001D01*
X16625Y15999D01*
X16627Y15997D01*
X16671Y15966D01*
X16710Y15930D01*
X16741Y15895D01*
X16767Y15862D01*
X16790Y15830D01*
X16797Y15818D01*
X16804Y15806D01*
X16808Y15797D01*
X16812Y15790D01*
X16815Y15786D01*
Y15784D01*
X16836Y15732D01*
X16852Y15682D01*
X16864Y15634D01*
X16871Y15590D01*
X16873Y15569D01*
X16875Y15553D01*
X16877Y15536D01*
Y15523D01*
X16878Y15512D01*
Y15505D01*
Y15499D01*
Y15497D01*
X16877Y15464D01*
X16875Y15432D01*
X16869Y15401D01*
X16862Y15373D01*
X16854Y15347D01*
X16845Y15323D01*
X16836Y15303D01*
X16827Y15282D01*
X16817Y15266D01*
X16808Y15249D01*
X16799Y15236D01*
X16791Y15227D01*
X16784Y15218D01*
X16778Y15212D01*
X16777Y15208D01*
X16775Y15206D01*
X16754Y15188D01*
X16732Y15171D01*
X16710Y15158D01*
X16688Y15145D01*
X16664Y15136D01*
X16640Y15127D01*
X16595Y15114D01*
X16575Y15110D01*
X16554Y15106D01*
X16538Y15105D01*
X16523Y15103D01*
X16510Y15101D01*
X16493D01*
X16464Y15103D01*
X16436Y15105D01*
X16384Y15114D01*
X16338Y15127D01*
X16297Y15144D01*
X16280Y15151D01*
X16265Y15158D01*
X16251Y15166D01*
X16240Y15171D01*
X16230Y15177D01*
X16225Y15181D01*
X16221Y15184D01*
X16219D01*
X16177Y15219D01*
X16141Y15258D01*
X16110Y15299D01*
X16084Y15340D01*
X16066Y15375D01*
X16058Y15390D01*
X16051Y15405D01*
X16045Y15416D01*
X16043Y15423D01*
X16040Y15429D01*
Y15431D01*
X16284Y15471D01*
X16297Y15440D01*
X16312Y15414D01*
X16327Y15392D01*
X16340Y15373D01*
X16353Y15358D01*
X16364Y15349D01*
X16371Y15342D01*
X16373Y15340D01*
X16393Y15325D01*
X16414Y15316D01*
X16434Y15308D01*
X16451Y15303D01*
X16465Y15299D01*
X16477Y15297D01*
X16488D01*
X16510Y15299D01*
X16528Y15305D01*
X16547Y15312D01*
X16562Y15319D01*
X16573Y15327D01*
X16582Y15334D01*
X16588Y15340D01*
X16590Y15342D01*
X16603Y15360D01*
X16612Y15381D01*
X16619Y15401D01*
X16623Y15421D01*
X16627Y15440D01*
X16628Y15455D01*
Y15464D01*
Y15468D01*
X16627Y15505D01*
X16623Y15540D01*
X16617Y15575D01*
X16612Y15606D01*
X16606Y15632D01*
X16601Y15653D01*
X16599Y15660D01*
X16597Y15666D01*
X16595Y15669D01*
Y15671D01*
X16582Y15710D01*
X16565Y15743D01*
X16551Y15771D01*
X16534Y15793D01*
X16521Y15812D01*
X16510Y15825D01*
X16501Y15832D01*
X16499Y15834D01*
X16475Y15853D01*
X16451Y15866D01*
X16428Y15877D01*
X16408Y15882D01*
X16390Y15886D01*
X16377Y15890D01*
X16364D01*
X16341Y15888D01*
X16321Y15884D01*
X16304Y15877D01*
X16290Y15871D01*
X16277Y15864D01*
X16269Y15856D01*
X16264Y15853D01*
X16262Y15851D01*
X16249Y15836D01*
X16238Y15818D01*
X16230Y15799D01*
X16223Y15780D01*
X16219Y15762D01*
X16216Y15749D01*
X16214Y15740D01*
Y15736D01*
X15975Y15760D01*
X15978Y15786D01*
X15984Y15810D01*
X15997Y15855D01*
X16016Y15893D01*
X16036Y15927D01*
X16054Y15953D01*
X16071Y15973D01*
X16077Y15979D01*
X16082Y15984D01*
X16084Y15986D01*
X16086Y15988D01*
X16104Y16003D01*
X16125Y16017D01*
X16169Y16038D01*
X16212Y16055D01*
X16254Y16064D01*
X16291Y16071D01*
X16308Y16073D01*
X16321D01*
X16332Y16075D01*
X16349D01*
X16404Y16071D01*
D02*
G37*
G36*
X20691Y15125D02*
X20443D01*
X20365Y15492D01*
X20358Y15523D01*
X20352Y15551D01*
X20347Y15575D01*
X20341Y15599D01*
X20335Y15619D01*
X20332Y15636D01*
X20326Y15653D01*
X20322Y15666D01*
X20319Y15677D01*
X20317Y15686D01*
X20311Y15701D01*
X20310Y15708D01*
X20308Y15710D01*
X20291Y15740D01*
X20272Y15768D01*
X20252Y15792D01*
X20234Y15812D01*
X20217Y15829D01*
X20204Y15840D01*
X20195Y15849D01*
X20191Y15851D01*
X20169Y15866D01*
X20147Y15877D01*
X20126Y15884D01*
X20106Y15890D01*
X20091Y15893D01*
X20078Y15895D01*
X20067D01*
X20048Y15893D01*
X20034Y15892D01*
X20019Y15886D01*
X20008Y15880D01*
X19998Y15875D01*
X19993Y15871D01*
X19989Y15868D01*
X19987Y15866D01*
X19978Y15855D01*
X19971Y15842D01*
X19965Y15830D01*
X19961Y15818D01*
X19960Y15808D01*
X19958Y15799D01*
Y15793D01*
Y15792D01*
X19960Y15779D01*
X19961Y15762D01*
X19965Y15743D01*
X19969Y15725D01*
X19973Y15706D01*
X19974Y15692D01*
X19978Y15681D01*
Y15679D01*
Y15677D01*
X20097Y15125D01*
X19848D01*
X19732Y15666D01*
X19723Y15706D01*
X19717Y15743D01*
X19711Y15773D01*
X19708Y15797D01*
X19706Y15816D01*
X19704Y15829D01*
Y15838D01*
Y15840D01*
X19708Y15877D01*
X19715Y15910D01*
X19724Y15938D01*
X19737Y15964D01*
X19750Y15982D01*
X19760Y15997D01*
X19767Y16005D01*
X19771Y16008D01*
X19797Y16030D01*
X19826Y16047D01*
X19856Y16058D01*
X19885Y16067D01*
X19911Y16071D01*
X19932Y16073D01*
X19939Y16075D01*
X19950D01*
X19982Y16073D01*
X20011Y16071D01*
X20037Y16066D01*
X20061Y16060D01*
X20082Y16055D01*
X20097Y16051D01*
X20106Y16047D01*
X20110Y16045D01*
X20137Y16032D01*
X20165Y16017D01*
X20193Y16003D01*
X20217Y15986D01*
X20237Y15971D01*
X20254Y15960D01*
X20265Y15953D01*
X20267Y15949D01*
X20269D01*
X20174Y16406D01*
X20422D01*
X20691Y15125D01*
D02*
G37*
G36*
X7238Y17025D02*
X6229D01*
X6180Y17261D01*
X6901D01*
X6655Y18433D01*
X6943D01*
X7238Y17025D01*
D02*
G37*
G36*
X13326Y18457D02*
X13377Y18455D01*
X13425Y18449D01*
X13474Y18441D01*
X13517Y18433D01*
X13560Y18423D01*
X13598Y18411D01*
X13635Y18400D01*
X13668Y18390D01*
X13696Y18378D01*
X13720Y18368D01*
X13743Y18360D01*
X13759Y18352D01*
X13771Y18347D01*
X13779Y18343D01*
X13782Y18341D01*
X13822Y18319D01*
X13861Y18293D01*
X13895Y18266D01*
X13930Y18238D01*
X13961Y18209D01*
X13989Y18181D01*
X14016Y18150D01*
X14040Y18124D01*
X14060Y18097D01*
X14079Y18071D01*
X14095Y18048D01*
X14107Y18030D01*
X14117Y18014D01*
X14125Y18002D01*
X14129Y17993D01*
X14131Y17991D01*
X14154Y17947D01*
X14172Y17904D01*
X14190Y17859D01*
X14205Y17814D01*
X14217Y17772D01*
X14227Y17731D01*
X14235Y17690D01*
X14241Y17654D01*
X14247Y17619D01*
X14252Y17587D01*
X14254Y17558D01*
X14256Y17536D01*
X14258Y17515D01*
Y17501D01*
Y17493D01*
Y17489D01*
X14256Y17444D01*
X14254Y17399D01*
X14239Y17314D01*
X14231Y17275D01*
X14223Y17237D01*
X14213Y17202D01*
X14201Y17169D01*
X14190Y17141D01*
X14180Y17115D01*
X14172Y17090D01*
X14164Y17072D01*
X14156Y17056D01*
X14150Y17045D01*
X14148Y17037D01*
X14146Y17035D01*
X14123Y16997D01*
X14099Y16962D01*
X14072Y16929D01*
X14046Y16899D01*
X14018Y16870D01*
X13989Y16844D01*
X13961Y16822D01*
X13932Y16799D01*
X13908Y16781D01*
X13883Y16765D01*
X13861Y16750D01*
X13841Y16740D01*
X13826Y16732D01*
X13814Y16726D01*
X13806Y16722D01*
X13804Y16720D01*
X13759Y16702D01*
X13714Y16685D01*
X13668Y16669D01*
X13621Y16657D01*
X13527Y16638D01*
X13484Y16630D01*
X13442Y16626D01*
X13403Y16620D01*
X13366Y16618D01*
X13336Y16616D01*
X13307Y16614D01*
X13285Y16612D01*
X13255D01*
X13194Y16614D01*
X13137Y16618D01*
X13082Y16624D01*
X13029Y16632D01*
X12980Y16643D01*
X12935Y16653D01*
X12892Y16665D01*
X12854Y16677D01*
X12819Y16687D01*
X12789Y16699D01*
X12762Y16710D01*
X12740Y16720D01*
X12722Y16728D01*
X12709Y16734D01*
X12701Y16738D01*
X12699Y16740D01*
X12663Y16763D01*
X12630Y16785D01*
X12599Y16809D01*
X12569Y16834D01*
X12542Y16860D01*
X12518Y16885D01*
X12498Y16909D01*
X12477Y16933D01*
X12461Y16956D01*
X12445Y16976D01*
X12433Y16994D01*
X12422Y17011D01*
X12414Y17025D01*
X12408Y17035D01*
X12406Y17041D01*
X12404Y17043D01*
X12610D01*
X12650Y16999D01*
X12695Y16960D01*
X12738Y16927D01*
X12781Y16899D01*
X12819Y16879D01*
X12835Y16870D01*
X12850Y16864D01*
X12860Y16858D01*
X12868Y16854D01*
X12874Y16852D01*
X12876D01*
X12941Y16830D01*
X13006Y16815D01*
X13073Y16803D01*
X13135Y16795D01*
X13163Y16793D01*
X13189Y16791D01*
X13212Y16789D01*
X13232D01*
X13248Y16787D01*
X13271D01*
X13356Y16791D01*
X13438Y16799D01*
X13474Y16805D01*
X13509Y16811D01*
X13541Y16817D01*
X13572Y16826D01*
X13598Y16834D01*
X13623Y16840D01*
X13643Y16846D01*
X13661Y16852D01*
X13676Y16858D01*
X13686Y16860D01*
X13692Y16864D01*
X13694D01*
X13729Y16881D01*
X13759Y16897D01*
X13790Y16915D01*
X13816Y16935D01*
X13843Y16954D01*
X13867Y16974D01*
X13887Y16994D01*
X13908Y17015D01*
X13924Y17033D01*
X13938Y17049D01*
X13952Y17066D01*
X13963Y17080D01*
X13971Y17090D01*
X13977Y17098D01*
X13979Y17104D01*
X13981Y17106D01*
X13999Y17139D01*
X14013Y17169D01*
X14028Y17202D01*
X14040Y17235D01*
X14058Y17296D01*
X14070Y17353D01*
X14075Y17379D01*
X14077Y17401D01*
X14079Y17424D01*
X14081Y17440D01*
X14083Y17454D01*
Y17466D01*
Y17473D01*
Y17475D01*
X14081Y17513D01*
X14079Y17552D01*
X14068Y17625D01*
X14054Y17694D01*
X14046Y17725D01*
X14036Y17755D01*
X14028Y17782D01*
X14020Y17806D01*
X14011Y17827D01*
X14005Y17845D01*
X13999Y17859D01*
X13995Y17869D01*
X13991Y17875D01*
Y17877D01*
X13973Y17912D01*
X13952Y17947D01*
X13932Y17977D01*
X13910Y18006D01*
X13887Y18032D01*
X13865Y18057D01*
X13843Y18079D01*
X13822Y18099D01*
X13802Y18118D01*
X13782Y18134D01*
X13765Y18146D01*
X13749Y18156D01*
X13737Y18166D01*
X13729Y18172D01*
X13723Y18175D01*
X13720Y18177D01*
X13686Y18195D01*
X13649Y18213D01*
X13613Y18227D01*
X13576Y18240D01*
X13501Y18258D01*
X13466Y18266D01*
X13432Y18270D01*
X13399Y18276D01*
X13371Y18278D01*
X13344Y18280D01*
X13322Y18282D01*
X13303Y18284D01*
X13279D01*
X13222Y18282D01*
X13171Y18278D01*
X13120Y18270D01*
X13076Y18260D01*
X13033Y18248D01*
X12992Y18234D01*
X12958Y18219D01*
X12925Y18205D01*
X12896Y18189D01*
X12872Y18175D01*
X12850Y18160D01*
X12831Y18148D01*
X12819Y18138D01*
X12809Y18130D01*
X12803Y18126D01*
X12801Y18124D01*
X12770Y18093D01*
X12744Y18061D01*
X12722Y18028D01*
X12701Y17995D01*
X12685Y17961D01*
X12671Y17928D01*
X12660Y17896D01*
X12650Y17865D01*
X12644Y17837D01*
X12638Y17810D01*
X12636Y17788D01*
X12632Y17768D01*
Y17749D01*
X12630Y17737D01*
Y17729D01*
Y17727D01*
X12632Y17678D01*
X12640Y17631D01*
X12648Y17589D01*
X12660Y17550D01*
X12671Y17517D01*
X12677Y17503D01*
X12681Y17493D01*
X12685Y17483D01*
X12689Y17477D01*
X12691Y17473D01*
Y17471D01*
X12715Y17428D01*
X12742Y17389D01*
X12768Y17355D01*
X12793Y17328D01*
X12815Y17306D01*
X12833Y17289D01*
X12846Y17279D01*
X12848Y17275D01*
X12850D01*
X12876Y17257D01*
X12899Y17243D01*
X12919Y17235D01*
X12937Y17226D01*
X12951Y17222D01*
X12962Y17220D01*
X12970D01*
X12980Y17222D01*
X12988Y17226D01*
X12994Y17228D01*
X12996Y17230D01*
X13002Y17241D01*
X13004Y17253D01*
X13006Y17263D01*
Y17267D01*
Y17277D01*
X13004Y17289D01*
X12998Y17318D01*
X12996Y17330D01*
X12994Y17342D01*
X12992Y17351D01*
Y17353D01*
X12848Y18042D01*
X13100D01*
X13124Y17934D01*
X13141Y17957D01*
X13159Y17977D01*
X13177Y17995D01*
X13198Y18012D01*
X13218Y18024D01*
X13240Y18034D01*
X13281Y18050D01*
X13318Y18061D01*
X13334Y18063D01*
X13348Y18065D01*
X13360Y18067D01*
X13377D01*
X13421Y18065D01*
X13462Y18057D01*
X13503Y18046D01*
X13539Y18032D01*
X13574Y18014D01*
X13607Y17995D01*
X13635Y17973D01*
X13664Y17953D01*
X13688Y17932D01*
X13708Y17910D01*
X13727Y17892D01*
X13741Y17875D01*
X13753Y17859D01*
X13763Y17849D01*
X13767Y17841D01*
X13769Y17839D01*
X13792Y17804D01*
X13810Y17768D01*
X13828Y17731D01*
X13843Y17696D01*
X13855Y17660D01*
X13865Y17625D01*
X13873Y17593D01*
X13879Y17562D01*
X13885Y17534D01*
X13889Y17507D01*
X13891Y17485D01*
X13893Y17464D01*
X13895Y17448D01*
Y17436D01*
Y17428D01*
Y17426D01*
X13893Y17393D01*
X13891Y17361D01*
X13879Y17304D01*
X13863Y17255D01*
X13853Y17233D01*
X13843Y17212D01*
X13834Y17194D01*
X13824Y17180D01*
X13816Y17165D01*
X13808Y17155D01*
X13802Y17147D01*
X13796Y17141D01*
X13794Y17137D01*
X13792Y17135D01*
X13771Y17117D01*
X13749Y17098D01*
X13729Y17084D01*
X13706Y17072D01*
X13661Y17051D01*
X13619Y17039D01*
X13582Y17031D01*
X13568Y17029D01*
X13554Y17027D01*
X13543Y17025D01*
X13527D01*
X13501Y17027D01*
X13474Y17029D01*
X13425Y17041D01*
X13381Y17060D01*
X13342Y17080D01*
X13310Y17098D01*
X13297Y17108D01*
X13287Y17117D01*
X13279Y17123D01*
X13273Y17129D01*
X13269Y17131D01*
X13267Y17133D01*
X13261Y17115D01*
X13253Y17098D01*
X13244Y17084D01*
X13236Y17072D01*
X13228Y17064D01*
X13220Y17058D01*
X13216Y17053D01*
X13214Y17051D01*
X13198Y17043D01*
X13177Y17037D01*
X13139Y17029D01*
X13120Y17027D01*
X13106Y17025D01*
X13094D01*
X13039Y17027D01*
X12988Y17035D01*
X12939Y17047D01*
X12892Y17064D01*
X12850Y17082D01*
X12809Y17104D01*
X12772Y17127D01*
X12740Y17149D01*
X12709Y17171D01*
X12683Y17194D01*
X12660Y17216D01*
X12642Y17235D01*
X12628Y17251D01*
X12616Y17263D01*
X12610Y17271D01*
X12608Y17273D01*
X12581Y17312D01*
X12557Y17351D01*
X12536Y17389D01*
X12520Y17426D01*
X12504Y17464D01*
X12492Y17501D01*
X12481Y17536D01*
X12473Y17570D01*
X12467Y17601D01*
X12463Y17629D01*
X12459Y17654D01*
X12457Y17676D01*
X12455Y17692D01*
Y17707D01*
Y17715D01*
Y17717D01*
X12457Y17755D01*
X12459Y17792D01*
X12471Y17863D01*
X12486Y17926D01*
X12496Y17957D01*
X12504Y17983D01*
X12514Y18008D01*
X12522Y18030D01*
X12532Y18048D01*
X12538Y18065D01*
X12545Y18079D01*
X12551Y18087D01*
X12553Y18093D01*
X12555Y18095D01*
X12575Y18128D01*
X12595Y18156D01*
X12642Y18211D01*
X12689Y18258D01*
X12713Y18276D01*
X12736Y18295D01*
X12758Y18311D01*
X12778Y18325D01*
X12797Y18337D01*
X12813Y18347D01*
X12825Y18354D01*
X12835Y18360D01*
X12842Y18362D01*
X12844Y18364D01*
X12878Y18380D01*
X12915Y18396D01*
X12990Y18419D01*
X13061Y18437D01*
X13096Y18443D01*
X13128Y18447D01*
X13159Y18451D01*
X13185Y18455D01*
X13212Y18457D01*
X13232D01*
X13248Y18459D01*
X13273D01*
X13326Y18457D01*
D02*
G37*
G36*
X9965Y18067D02*
X9997Y18063D01*
X10028Y18057D01*
X10054Y18050D01*
X10077Y18044D01*
X10095Y18038D01*
X10105Y18034D01*
X10109Y18032D01*
X10142Y18016D01*
X10174Y17998D01*
X10205Y17977D01*
X10233Y17959D01*
X10258Y17941D01*
X10278Y17926D01*
X10290Y17916D01*
X10292Y17912D01*
X10294D01*
X10268Y18046D01*
X10528D01*
X10742Y17025D01*
X10469D01*
X10382Y17442D01*
X10374Y17475D01*
X10368Y17505D01*
X10359Y17534D01*
X10353Y17558D01*
X10347Y17580D01*
X10341Y17601D01*
X10335Y17617D01*
X10331Y17633D01*
X10327Y17646D01*
X10323Y17658D01*
X10317Y17674D01*
X10313Y17684D01*
X10311Y17686D01*
X10292Y17717D01*
X10274Y17743D01*
X10254Y17766D01*
X10235Y17784D01*
X10219Y17800D01*
X10205Y17810D01*
X10197Y17818D01*
X10193Y17821D01*
X10164Y17837D01*
X10140Y17849D01*
X10117Y17859D01*
X10097Y17865D01*
X10079Y17869D01*
X10066Y17871D01*
X10056D01*
X10036Y17869D01*
X10018Y17867D01*
X10003Y17861D01*
X9991Y17857D01*
X9981Y17851D01*
X9975Y17845D01*
X9971Y17843D01*
X9969Y17841D01*
X9959Y17829D01*
X9950Y17814D01*
X9944Y17800D01*
X9940Y17788D01*
X9938Y17776D01*
X9936Y17766D01*
Y17759D01*
Y17757D01*
Y17751D01*
X9938Y17743D01*
X9942Y17723D01*
X9946Y17696D01*
X9950Y17670D01*
X9957Y17646D01*
X9961Y17623D01*
X9963Y17615D01*
Y17609D01*
X9965Y17605D01*
Y17603D01*
X10089Y17025D01*
X9816D01*
X9692Y17601D01*
X9686Y17627D01*
X9680Y17652D01*
X9676Y17674D01*
X9672Y17694D01*
X9666Y17731D01*
X9662Y17757D01*
X9658Y17780D01*
X9655Y17794D01*
Y17802D01*
Y17804D01*
X9660Y17847D01*
X9668Y17884D01*
X9678Y17916D01*
X9692Y17945D01*
X9706Y17967D01*
X9717Y17983D01*
X9725Y17991D01*
X9729Y17995D01*
X9759Y18020D01*
X9792Y18038D01*
X9824Y18050D01*
X9857Y18061D01*
X9885Y18065D01*
X9910Y18067D01*
X9918Y18069D01*
X9930D01*
X9965Y18067D01*
D02*
G37*
G36*
X7794Y17025D02*
X7521D01*
X7306Y18046D01*
X7580D01*
X7794Y17025D01*
D02*
G37*
G36*
X5046Y16180D02*
X4796D01*
X4750Y16406D01*
X4998D01*
X5046Y16180D01*
D02*
G37*
G36*
X18513Y15125D02*
X18288D01*
X18256Y15275D01*
X18238Y15244D01*
X18215Y15218D01*
X18193Y15194D01*
X18171Y15175D01*
X18145Y15158D01*
X18121Y15144D01*
X18097Y15132D01*
X18073Y15123D01*
X18051Y15116D01*
X18030Y15110D01*
X18012Y15106D01*
X17995Y15105D01*
X17980Y15103D01*
X17971Y15101D01*
X17962D01*
X17930Y15103D01*
X17902Y15106D01*
X17875Y15112D01*
X17851Y15119D01*
X17830Y15125D01*
X17815Y15131D01*
X17806Y15134D01*
X17802Y15136D01*
X17773Y15151D01*
X17747Y15169D01*
X17721Y15188D01*
X17699Y15206D01*
X17680Y15221D01*
X17667Y15234D01*
X17658Y15244D01*
X17654Y15247D01*
X17628Y15277D01*
X17608Y15310D01*
X17588Y15342D01*
X17573Y15373D01*
X17560Y15401D01*
X17551Y15421D01*
X17547Y15431D01*
X17545Y15436D01*
X17543Y15440D01*
Y15442D01*
X17528Y15486D01*
X17519Y15531D01*
X17512Y15573D01*
X17506Y15610D01*
X17502Y15642D01*
Y15655D01*
X17501Y15666D01*
Y15675D01*
Y15682D01*
Y15686D01*
Y15688D01*
X17502Y15723D01*
X17504Y15755D01*
X17508Y15784D01*
X17514Y15812D01*
X17521Y15838D01*
X17528Y15862D01*
X17536Y15882D01*
X17545Y15903D01*
X17552Y15919D01*
X17562Y15934D01*
X17569Y15947D01*
X17575Y15956D01*
X17582Y15964D01*
X17586Y15971D01*
X17588Y15973D01*
X17589Y15975D01*
X17606Y15993D01*
X17625Y16008D01*
X17645Y16021D01*
X17664Y16032D01*
X17704Y16051D01*
X17741Y16062D01*
X17775Y16069D01*
X17789Y16071D01*
X17802Y16073D01*
X17812Y16075D01*
X17826D01*
X17852Y16073D01*
X17878Y16071D01*
X17901Y16067D01*
X17921Y16064D01*
X17936Y16058D01*
X17949Y16055D01*
X17956Y16053D01*
X17960Y16051D01*
X17982Y16042D01*
X18004Y16030D01*
X18026Y16017D01*
X18045Y16006D01*
X18063Y15995D01*
X18076Y15986D01*
X18084Y15979D01*
X18088Y15977D01*
X17997Y16406D01*
X18245D01*
X18513Y15125D01*
D02*
G37*
G36*
X21569Y16180D02*
X21319D01*
X21272Y16406D01*
X21521D01*
X21569Y16180D01*
D02*
G37*
G36*
X10920D02*
X10670D01*
X10623Y16406D01*
X10872D01*
X10920Y16180D01*
D02*
G37*
G36*
X4958Y17025D02*
X4710D01*
X4675Y17190D01*
X4655Y17155D01*
X4630Y17127D01*
X4606Y17100D01*
X4581Y17080D01*
X4553Y17062D01*
X4526Y17045D01*
X4500Y17033D01*
X4473Y17023D01*
X4449Y17015D01*
X4427Y17009D01*
X4406Y17005D01*
X4388Y17003D01*
X4372Y17001D01*
X4362Y16999D01*
X4351D01*
X4317Y17001D01*
X4286Y17005D01*
X4256Y17011D01*
X4229Y17019D01*
X4207Y17025D01*
X4191Y17031D01*
X4181Y17035D01*
X4176Y17037D01*
X4144Y17053D01*
X4115Y17074D01*
X4087Y17094D01*
X4063Y17115D01*
X4042Y17131D01*
X4028Y17145D01*
X4018Y17155D01*
X4014Y17159D01*
X3985Y17192D01*
X3963Y17228D01*
X3940Y17263D01*
X3924Y17298D01*
X3910Y17328D01*
X3900Y17351D01*
X3896Y17361D01*
X3894Y17367D01*
X3892Y17371D01*
Y17373D01*
X3875Y17422D01*
X3865Y17471D01*
X3857Y17517D01*
X3851Y17558D01*
X3847Y17593D01*
Y17607D01*
X3845Y17619D01*
Y17629D01*
Y17637D01*
Y17641D01*
Y17643D01*
X3847Y17682D01*
X3849Y17717D01*
X3853Y17749D01*
X3859Y17780D01*
X3867Y17808D01*
X3875Y17835D01*
X3883Y17857D01*
X3894Y17880D01*
X3902Y17898D01*
X3912Y17914D01*
X3920Y17928D01*
X3926Y17939D01*
X3934Y17947D01*
X3938Y17955D01*
X3940Y17957D01*
X3942Y17959D01*
X3961Y17979D01*
X3981Y17995D01*
X4004Y18010D01*
X4024Y18022D01*
X4069Y18042D01*
X4109Y18054D01*
X4146Y18063D01*
X4162Y18065D01*
X4176Y18067D01*
X4187Y18069D01*
X4203D01*
X4231Y18067D01*
X4260Y18065D01*
X4284Y18061D01*
X4307Y18057D01*
X4323Y18050D01*
X4337Y18046D01*
X4345Y18044D01*
X4349Y18042D01*
X4374Y18032D01*
X4398Y18020D01*
X4423Y18006D01*
X4443Y17993D01*
X4463Y17981D01*
X4478Y17971D01*
X4486Y17963D01*
X4490Y17961D01*
X4390Y18433D01*
X4663D01*
X4958Y17025D01*
D02*
G37*
G36*
X10309Y22025D02*
X10014D01*
Y23561D01*
X10309D01*
Y22025D01*
D02*
G37*
G36*
X9712D02*
X9417D01*
Y23139D01*
X9712D01*
Y22025D01*
D02*
G37*
G36*
X16991D02*
X16696D01*
Y23139D01*
X16991D01*
Y22025D01*
D02*
G37*
G36*
X14714Y23162D02*
X14736Y23159D01*
X14758Y23153D01*
X14776Y23146D01*
X14791Y23139D01*
X14805Y23135D01*
X14811Y23131D01*
X14813Y23128D01*
X14836Y23113D01*
X14856Y23091D01*
X14878Y23066D01*
X14896Y23042D01*
X14913Y23017D01*
X14927Y22997D01*
X14936Y22984D01*
X14938Y22982D01*
Y23139D01*
X15211D01*
Y22025D01*
X14916D01*
Y22367D01*
Y22418D01*
Y22465D01*
X14913Y22507D01*
X14911Y22544D01*
Y22580D01*
X14909Y22609D01*
X14907Y22638D01*
X14904Y22660D01*
X14902Y22680D01*
X14900Y22698D01*
X14898Y22711D01*
Y22722D01*
X14896Y22729D01*
X14893Y22735D01*
Y22740D01*
X14884Y22771D01*
X14873Y22798D01*
X14862Y22820D01*
X14851Y22835D01*
X14842Y22849D01*
X14833Y22857D01*
X14829Y22862D01*
X14827Y22864D01*
X14809Y22875D01*
X14791Y22884D01*
X14773Y22891D01*
X14758Y22895D01*
X14745Y22897D01*
X14731Y22900D01*
X14722D01*
X14698Y22897D01*
X14674Y22893D01*
X14651Y22884D01*
X14629Y22875D01*
X14611Y22866D01*
X14598Y22857D01*
X14587Y22853D01*
X14585Y22851D01*
X14492Y23106D01*
X14527Y23126D01*
X14560Y23139D01*
X14594Y23151D01*
X14625Y23157D01*
X14649Y23162D01*
X14669Y23164D01*
X14687D01*
X14714Y23162D01*
D02*
G37*
G36*
X7481Y23159D02*
X7519Y23155D01*
X7554Y23148D01*
X7585Y23142D01*
X7614Y23133D01*
X7641Y23124D01*
X7665Y23115D01*
X7685Y23104D01*
X7703Y23095D01*
X7718Y23086D01*
X7730Y23079D01*
X7741Y23073D01*
X7747Y23068D01*
X7750Y23066D01*
X7752Y23064D01*
X7772Y23046D01*
X7790Y23026D01*
X7805Y23006D01*
X7816Y22984D01*
X7838Y22944D01*
X7852Y22906D01*
X7858Y22873D01*
X7861Y22857D01*
X7863Y22846D01*
X7865Y22835D01*
Y22829D01*
Y22824D01*
Y22822D01*
X7863Y22793D01*
X7858Y22766D01*
X7854Y22740D01*
X7845Y22715D01*
X7823Y22673D01*
X7798Y22638D01*
X7776Y22609D01*
X7754Y22589D01*
X7745Y22580D01*
X7741Y22576D01*
X7736Y22573D01*
X7734Y22571D01*
X7714Y22560D01*
X7687Y22547D01*
X7656Y22533D01*
X7623Y22522D01*
X7587Y22509D01*
X7550Y22498D01*
X7472Y22476D01*
X7434Y22465D01*
X7399Y22456D01*
X7368Y22447D01*
X7339Y22440D01*
X7314Y22436D01*
X7297Y22431D01*
X7286Y22427D01*
X7281D01*
X7254Y22420D01*
X7235Y22413D01*
X7217Y22407D01*
X7203Y22402D01*
X7195Y22396D01*
X7188Y22394D01*
X7183Y22389D01*
X7170Y22371D01*
X7163Y22354D01*
X7161Y22340D01*
Y22336D01*
Y22334D01*
X7163Y22316D01*
X7168Y22300D01*
X7175Y22287D01*
X7181Y22276D01*
X7188Y22267D01*
X7195Y22260D01*
X7199Y22256D01*
X7201Y22254D01*
X7226Y22240D01*
X7252Y22231D01*
X7281Y22223D01*
X7308Y22218D01*
X7332Y22216D01*
X7354Y22214D01*
X7372D01*
X7410Y22216D01*
X7441Y22220D01*
X7470Y22227D01*
X7492Y22236D01*
X7510Y22243D01*
X7523Y22249D01*
X7532Y22254D01*
X7534Y22256D01*
X7554Y22274D01*
X7570Y22296D01*
X7583Y22316D01*
X7594Y22338D01*
X7601Y22358D01*
X7605Y22374D01*
X7610Y22382D01*
Y22387D01*
X7905Y22342D01*
X7885Y22287D01*
X7861Y22236D01*
X7834Y22194D01*
X7805Y22158D01*
X7778Y22129D01*
X7754Y22109D01*
X7747Y22100D01*
X7741Y22096D01*
X7736Y22094D01*
X7734Y22092D01*
X7707Y22076D01*
X7681Y22061D01*
X7621Y22038D01*
X7561Y22023D01*
X7503Y22012D01*
X7476Y22007D01*
X7452Y22005D01*
X7430Y22003D01*
X7410D01*
X7394Y22001D01*
X7372D01*
X7328Y22003D01*
X7286Y22005D01*
X7246Y22012D01*
X7208Y22018D01*
X7175Y22025D01*
X7143Y22036D01*
X7115Y22045D01*
X7090Y22056D01*
X7068Y22065D01*
X7048Y22076D01*
X7032Y22085D01*
X7019Y22092D01*
X7008Y22100D01*
X7001Y22105D01*
X6997Y22107D01*
X6995Y22109D01*
X6973Y22132D01*
X6953Y22154D01*
X6935Y22176D01*
X6919Y22198D01*
X6908Y22220D01*
X6897Y22243D01*
X6882Y22283D01*
X6873Y22320D01*
X6870Y22336D01*
X6868Y22347D01*
X6866Y22358D01*
Y22367D01*
Y22371D01*
Y22374D01*
X6870Y22422D01*
X6882Y22467D01*
X6895Y22505D01*
X6913Y22536D01*
X6930Y22560D01*
X6944Y22578D01*
X6955Y22587D01*
X6959Y22591D01*
X6979Y22604D01*
X6999Y22620D01*
X7024Y22631D01*
X7050Y22644D01*
X7104Y22667D01*
X7159Y22687D01*
X7208Y22702D01*
X7230Y22707D01*
X7250Y22713D01*
X7266Y22718D01*
X7277Y22720D01*
X7286Y22722D01*
X7288D01*
X7330Y22733D01*
X7368Y22742D01*
X7401Y22751D01*
X7430Y22760D01*
X7457Y22766D01*
X7479Y22773D01*
X7496Y22780D01*
X7514Y22784D01*
X7528Y22791D01*
X7539Y22795D01*
X7548Y22798D01*
X7552Y22802D01*
X7561Y22804D01*
X7563Y22806D01*
X7572Y22815D01*
X7579Y22824D01*
X7587Y22842D01*
X7592Y22855D01*
Y22857D01*
Y22860D01*
X7590Y22873D01*
X7587Y22884D01*
X7574Y22904D01*
X7563Y22915D01*
X7561Y22920D01*
X7559D01*
X7536Y22931D01*
X7512Y22940D01*
X7485Y22944D01*
X7457Y22948D01*
X7432Y22951D01*
X7412Y22953D01*
X7392D01*
X7359Y22951D01*
X7330Y22948D01*
X7306Y22942D01*
X7286Y22935D01*
X7270Y22929D01*
X7259Y22924D01*
X7252Y22920D01*
X7250Y22917D01*
X7232Y22904D01*
X7219Y22889D01*
X7206Y22873D01*
X7197Y22855D01*
X7190Y22842D01*
X7186Y22831D01*
X7181Y22822D01*
Y22820D01*
X6904Y22871D01*
X6921Y22922D01*
X6946Y22966D01*
X6970Y23004D01*
X6997Y23033D01*
X7019Y23057D01*
X7039Y23075D01*
X7052Y23084D01*
X7055Y23088D01*
X7057D01*
X7079Y23102D01*
X7104Y23113D01*
X7157Y23133D01*
X7212Y23146D01*
X7268Y23155D01*
X7294Y23157D01*
X7319Y23159D01*
X7341Y23162D01*
X7359Y23164D01*
X7441D01*
X7481Y23159D01*
D02*
G37*
G36*
X15921Y20788D02*
X15626D01*
Y21061D01*
X15921D01*
Y20788D01*
D02*
G37*
G36*
X13919Y23162D02*
X13974Y23153D01*
X14025Y23142D01*
X14070Y23128D01*
X14088Y23119D01*
X14105Y23113D01*
X14121Y23108D01*
X14132Y23102D01*
X14143Y23097D01*
X14150Y23093D01*
X14154Y23091D01*
X14156D01*
X14203Y23059D01*
X14243Y23026D01*
X14278Y22991D01*
X14307Y22957D01*
X14330Y22926D01*
X14347Y22902D01*
X14354Y22893D01*
X14356Y22886D01*
X14361Y22882D01*
Y22880D01*
X14385Y22829D01*
X14401Y22778D01*
X14414Y22731D01*
X14423Y22689D01*
X14427Y22651D01*
X14429Y22635D01*
Y22622D01*
X14432Y22613D01*
Y22604D01*
Y22600D01*
Y22598D01*
X14429Y22529D01*
X14421Y22465D01*
X14409Y22409D01*
X14403Y22385D01*
X14396Y22362D01*
X14389Y22342D01*
X14383Y22325D01*
X14376Y22309D01*
X14372Y22296D01*
X14367Y22285D01*
X14363Y22278D01*
X14361Y22274D01*
Y22271D01*
X14330Y22225D01*
X14296Y22185D01*
X14261Y22149D01*
X14227Y22120D01*
X14196Y22098D01*
X14172Y22083D01*
X14163Y22076D01*
X14156Y22072D01*
X14152Y22069D01*
X14150D01*
X14096Y22047D01*
X14045Y22029D01*
X13997Y22018D01*
X13950Y22009D01*
X13912Y22005D01*
X13897Y22003D01*
X13883D01*
X13872Y22001D01*
X13857D01*
X13810Y22003D01*
X13768Y22007D01*
X13726Y22016D01*
X13688Y22027D01*
X13650Y22038D01*
X13617Y22052D01*
X13586Y22067D01*
X13557Y22083D01*
X13533Y22098D01*
X13510Y22114D01*
X13490Y22127D01*
X13475Y22138D01*
X13461Y22149D01*
X13453Y22158D01*
X13448Y22163D01*
X13446Y22165D01*
X13417Y22198D01*
X13393Y22231D01*
X13370Y22265D01*
X13351Y22300D01*
X13335Y22336D01*
X13322Y22371D01*
X13311Y22405D01*
X13302Y22438D01*
X13295Y22467D01*
X13291Y22496D01*
X13286Y22520D01*
X13284Y22542D01*
X13282Y22560D01*
Y22573D01*
Y22582D01*
Y22584D01*
X13284Y22631D01*
X13288Y22675D01*
X13297Y22715D01*
X13306Y22755D01*
X13319Y22791D01*
X13333Y22826D01*
X13348Y22857D01*
X13362Y22886D01*
X13377Y22911D01*
X13393Y22935D01*
X13406Y22953D01*
X13419Y22971D01*
X13428Y22982D01*
X13437Y22993D01*
X13442Y22997D01*
X13444Y23000D01*
X13475Y23028D01*
X13508Y23053D01*
X13541Y23075D01*
X13577Y23095D01*
X13612Y23111D01*
X13646Y23124D01*
X13679Y23135D01*
X13712Y23144D01*
X13741Y23151D01*
X13770Y23155D01*
X13794Y23159D01*
X13817Y23162D01*
X13834Y23164D01*
X13859D01*
X13919Y23162D01*
D02*
G37*
G36*
X8669D02*
X8724Y23153D01*
X8775Y23142D01*
X8820Y23128D01*
X8837Y23119D01*
X8855Y23113D01*
X8871Y23108D01*
X8882Y23102D01*
X8893Y23097D01*
X8899Y23093D01*
X8904Y23091D01*
X8906D01*
X8953Y23059D01*
X8993Y23026D01*
X9028Y22991D01*
X9057Y22957D01*
X9079Y22926D01*
X9097Y22902D01*
X9104Y22893D01*
X9106Y22886D01*
X9110Y22882D01*
Y22880D01*
X9135Y22829D01*
X9150Y22778D01*
X9164Y22731D01*
X9173Y22689D01*
X9177Y22651D01*
X9179Y22635D01*
Y22622D01*
X9181Y22613D01*
Y22604D01*
Y22600D01*
Y22598D01*
X9179Y22529D01*
X9170Y22465D01*
X9159Y22409D01*
X9153Y22385D01*
X9146Y22362D01*
X9139Y22342D01*
X9133Y22325D01*
X9126Y22309D01*
X9121Y22296D01*
X9117Y22285D01*
X9113Y22278D01*
X9110Y22274D01*
Y22271D01*
X9079Y22225D01*
X9046Y22185D01*
X9010Y22149D01*
X8977Y22120D01*
X8946Y22098D01*
X8922Y22083D01*
X8913Y22076D01*
X8906Y22072D01*
X8902Y22069D01*
X8899D01*
X8846Y22047D01*
X8795Y22029D01*
X8746Y22018D01*
X8700Y22009D01*
X8662Y22005D01*
X8646Y22003D01*
X8633D01*
X8622Y22001D01*
X8606D01*
X8560Y22003D01*
X8518Y22007D01*
X8475Y22016D01*
X8438Y22027D01*
X8400Y22038D01*
X8367Y22052D01*
X8336Y22067D01*
X8307Y22083D01*
X8282Y22098D01*
X8260Y22114D01*
X8240Y22127D01*
X8225Y22138D01*
X8211Y22149D01*
X8202Y22158D01*
X8198Y22163D01*
X8196Y22165D01*
X8167Y22198D01*
X8142Y22231D01*
X8120Y22265D01*
X8100Y22300D01*
X8085Y22336D01*
X8071Y22371D01*
X8060Y22405D01*
X8051Y22438D01*
X8045Y22467D01*
X8040Y22496D01*
X8036Y22520D01*
X8034Y22542D01*
X8031Y22560D01*
Y22573D01*
Y22582D01*
Y22584D01*
X8034Y22631D01*
X8038Y22675D01*
X8047Y22715D01*
X8056Y22755D01*
X8069Y22791D01*
X8083Y22826D01*
X8098Y22857D01*
X8111Y22886D01*
X8127Y22911D01*
X8142Y22935D01*
X8156Y22953D01*
X8169Y22971D01*
X8178Y22982D01*
X8187Y22993D01*
X8191Y22997D01*
X8194Y23000D01*
X8225Y23028D01*
X8258Y23053D01*
X8291Y23075D01*
X8327Y23095D01*
X8362Y23111D01*
X8396Y23124D01*
X8429Y23135D01*
X8462Y23144D01*
X8491Y23151D01*
X8520Y23155D01*
X8544Y23159D01*
X8566Y23162D01*
X8584Y23164D01*
X8609D01*
X8669Y23162D01*
D02*
G37*
G36*
X11119D02*
X11157Y23157D01*
X11195Y23148D01*
X11228Y23139D01*
X11262Y23128D01*
X11290Y23115D01*
X11319Y23099D01*
X11344Y23086D01*
X11366Y23071D01*
X11386Y23055D01*
X11404Y23042D01*
X11417Y23031D01*
X11428Y23022D01*
X11437Y23013D01*
X11441Y23008D01*
X11444Y23006D01*
X11468Y22975D01*
X11490Y22942D01*
X11510Y22909D01*
X11528Y22873D01*
X11541Y22835D01*
X11552Y22800D01*
X11570Y22731D01*
X11577Y22698D01*
X11581Y22669D01*
X11583Y22642D01*
X11586Y22620D01*
X11588Y22600D01*
Y22584D01*
Y22576D01*
Y22573D01*
X11586Y22531D01*
X11583Y22489D01*
X11577Y22451D01*
X11570Y22416D01*
X11563Y22380D01*
X11552Y22349D01*
X11543Y22320D01*
X11532Y22294D01*
X11523Y22269D01*
X11512Y22249D01*
X11503Y22231D01*
X11497Y22216D01*
X11488Y22205D01*
X11484Y22196D01*
X11481Y22191D01*
X11479Y22189D01*
X11450Y22156D01*
X11421Y22127D01*
X11388Y22103D01*
X11353Y22080D01*
X11317Y22063D01*
X11281Y22047D01*
X11246Y22034D01*
X11210Y22025D01*
X11179Y22016D01*
X11148Y22012D01*
X11119Y22007D01*
X11095Y22003D01*
X11075D01*
X11062Y22001D01*
X11048D01*
X10984Y22005D01*
X10924Y22014D01*
X10873Y22027D01*
X10829Y22043D01*
X10809Y22052D01*
X10793Y22058D01*
X10778Y22065D01*
X10766Y22072D01*
X10758Y22078D01*
X10749Y22080D01*
X10746Y22085D01*
X10744D01*
X10702Y22120D01*
X10664Y22158D01*
X10633Y22200D01*
X10609Y22240D01*
X10589Y22276D01*
X10582Y22291D01*
X10576Y22305D01*
X10571Y22316D01*
X10567Y22325D01*
X10564Y22329D01*
Y22331D01*
X10857Y22380D01*
X10869Y22351D01*
X10880Y22325D01*
X10891Y22305D01*
X10904Y22287D01*
X10913Y22274D01*
X10922Y22265D01*
X10929Y22260D01*
X10931Y22258D01*
X10948Y22245D01*
X10968Y22236D01*
X10988Y22229D01*
X11006Y22225D01*
X11022Y22223D01*
X11035Y22220D01*
X11046D01*
X11082Y22223D01*
X11115Y22231D01*
X11146Y22243D01*
X11170Y22256D01*
X11190Y22269D01*
X11204Y22280D01*
X11215Y22289D01*
X11217Y22291D01*
X11239Y22320D01*
X11255Y22354D01*
X11268Y22389D01*
X11277Y22420D01*
X11281Y22451D01*
X11284Y22473D01*
X11286Y22482D01*
Y22489D01*
Y22493D01*
Y22496D01*
X10549D01*
Y22558D01*
X10553Y22613D01*
X10560Y22667D01*
X10569Y22715D01*
X10580Y22762D01*
X10591Y22802D01*
X10604Y22840D01*
X10618Y22873D01*
X10631Y22902D01*
X10644Y22929D01*
X10655Y22948D01*
X10667Y22966D01*
X10675Y22980D01*
X10682Y22991D01*
X10687Y22995D01*
X10689Y22997D01*
X10715Y23026D01*
X10746Y23053D01*
X10778Y23075D01*
X10809Y23093D01*
X10842Y23111D01*
X10875Y23124D01*
X10906Y23135D01*
X10937Y23144D01*
X10966Y23151D01*
X10993Y23155D01*
X11017Y23159D01*
X11037Y23162D01*
X11055Y23164D01*
X11079D01*
X11119Y23162D01*
D02*
G37*
G36*
X13049Y22025D02*
X12738D01*
Y22698D01*
X12132D01*
Y22025D01*
X11821D01*
Y23561D01*
X12132D01*
Y22957D01*
X12738D01*
Y23561D01*
X13049D01*
Y22025D01*
D02*
G37*
G36*
X3187Y16073D02*
X3226Y16069D01*
X3261Y16064D01*
X3295Y16058D01*
X3326Y16049D01*
X3354Y16040D01*
X3378Y16029D01*
X3402Y16019D01*
X3422Y16008D01*
X3439Y15997D01*
X3454Y15988D01*
X3465Y15980D01*
X3474Y15973D01*
X3482Y15967D01*
X3485Y15964D01*
X3487Y15962D01*
X3502Y15947D01*
X3513Y15930D01*
X3533Y15899D01*
X3548Y15868D01*
X3558Y15838D01*
X3565Y15812D01*
X3567Y15792D01*
X3569Y15784D01*
Y15779D01*
Y15775D01*
Y15773D01*
X3567Y15753D01*
X3565Y15734D01*
X3556Y15699D01*
X3543Y15668D01*
X3526Y15642D01*
X3511Y15621D01*
X3498Y15606D01*
X3489Y15597D01*
X3485Y15593D01*
X3472Y15586D01*
X3458Y15577D01*
X3439Y15568D01*
X3417Y15556D01*
X3371Y15538D01*
X3322Y15518D01*
X3276Y15501D01*
X3256Y15493D01*
X3239Y15488D01*
X3224Y15482D01*
X3211Y15479D01*
X3204Y15475D01*
X3202D01*
X3172Y15466D01*
X3150Y15456D01*
X3132Y15447D01*
X3117Y15440D01*
X3108Y15434D01*
X3100Y15431D01*
X3098Y15429D01*
X3096Y15427D01*
X3085Y15412D01*
X3080Y15397D01*
X3078Y15386D01*
Y15384D01*
Y15382D01*
X3080Y15368D01*
X3084Y15356D01*
X3096Y15336D01*
X3104Y15329D01*
X3109Y15323D01*
X3113Y15319D01*
X3115Y15318D01*
X3135Y15305D01*
X3158Y15295D01*
X3182Y15290D01*
X3204Y15286D01*
X3224Y15282D01*
X3239Y15281D01*
X3254D01*
X3284Y15282D01*
X3309Y15286D01*
X3332Y15290D01*
X3350Y15297D01*
X3365Y15303D01*
X3376Y15306D01*
X3384Y15310D01*
X3385Y15312D01*
X3402Y15325D01*
X3419Y15342D01*
X3432Y15360D01*
X3443Y15379D01*
X3452Y15395D01*
X3459Y15408D01*
X3463Y15418D01*
X3465Y15421D01*
X3708Y15382D01*
X3691Y15334D01*
X3669Y15293D01*
X3643Y15256D01*
X3619Y15227D01*
X3596Y15205D01*
X3578Y15186D01*
X3571Y15181D01*
X3565Y15177D01*
X3561Y15173D01*
X3559D01*
X3537Y15160D01*
X3515Y15149D01*
X3465Y15131D01*
X3413Y15119D01*
X3363Y15110D01*
X3339Y15106D01*
X3319Y15105D01*
X3298Y15103D01*
X3282D01*
X3267Y15101D01*
X3248D01*
X3211Y15103D01*
X3176Y15105D01*
X3145Y15110D01*
X3115Y15116D01*
X3085Y15123D01*
X3061Y15131D01*
X3037Y15140D01*
X3017Y15149D01*
X2998Y15158D01*
X2982Y15168D01*
X2967Y15175D01*
X2956Y15182D01*
X2947Y15188D01*
X2941Y15194D01*
X2937Y15195D01*
X2935Y15197D01*
X2915Y15216D01*
X2898Y15236D01*
X2884Y15255D01*
X2871Y15275D01*
X2859Y15293D01*
X2850Y15314D01*
X2837Y15349D01*
X2828Y15381D01*
X2826Y15393D01*
X2824Y15405D01*
X2822Y15414D01*
Y15421D01*
Y15425D01*
Y15427D01*
X2824Y15445D01*
X2826Y15464D01*
X2835Y15497D01*
X2850Y15527D01*
X2867Y15553D01*
X2884Y15573D01*
X2897Y15590D01*
X2908Y15599D01*
X2909Y15603D01*
X2911D01*
X2924Y15612D01*
X2939Y15621D01*
X2958Y15630D01*
X2976Y15640D01*
X3017Y15658D01*
X3058Y15673D01*
X3096Y15686D01*
X3113Y15692D01*
X3128Y15697D01*
X3141Y15701D01*
X3150Y15705D01*
X3156Y15706D01*
X3158D01*
X3180Y15712D01*
X3198Y15719D01*
X3215Y15725D01*
X3230Y15729D01*
X3245Y15734D01*
X3256Y15738D01*
X3274Y15745D01*
X3287Y15749D01*
X3295Y15753D01*
X3298Y15756D01*
X3300D01*
X3311Y15766D01*
X3319Y15775D01*
X3326Y15784D01*
X3330Y15793D01*
X3332Y15801D01*
X3334Y15808D01*
Y15812D01*
Y15814D01*
X3332Y15827D01*
X3328Y15838D01*
X3317Y15856D01*
X3311Y15864D01*
X3306Y15869D01*
X3302Y15871D01*
X3300Y15873D01*
X3285Y15882D01*
X3267Y15890D01*
X3248Y15893D01*
X3230Y15897D01*
X3213Y15899D01*
X3198Y15901D01*
X3185D01*
X3156Y15899D01*
X3130Y15895D01*
X3108Y15890D01*
X3087Y15884D01*
X3072Y15877D01*
X3059Y15871D01*
X3052Y15868D01*
X3050Y15866D01*
X3035Y15856D01*
X3022Y15843D01*
X3011Y15832D01*
X3004Y15819D01*
X2997Y15808D01*
X2993Y15799D01*
X2989Y15793D01*
Y15792D01*
X2758Y15830D01*
X2771Y15871D01*
X2787Y15906D01*
X2806Y15936D01*
X2826Y15962D01*
X2845Y15982D01*
X2861Y15997D01*
X2872Y16005D01*
X2874Y16008D01*
X2876D01*
X2895Y16019D01*
X2913Y16030D01*
X2956Y16047D01*
X3002Y16058D01*
X3045Y16067D01*
X3085Y16071D01*
X3102Y16073D01*
X3117D01*
X3130Y16075D01*
X3146D01*
X3187Y16073D01*
D02*
G37*
G36*
X16991Y23288D02*
X16696D01*
Y23561D01*
X16991D01*
Y23288D01*
D02*
G37*
G36*
X9712D02*
X9417D01*
Y23561D01*
X9712D01*
Y23288D01*
D02*
G37*
G36*
X4246Y16073D02*
X4289Y16067D01*
X4328Y16060D01*
X4363Y16051D01*
X4398Y16040D01*
X4430Y16025D01*
X4457Y16012D01*
X4483Y15997D01*
X4507Y15982D01*
X4528Y15969D01*
X4546Y15956D01*
X4561Y15943D01*
X4572Y15934D01*
X4580Y15927D01*
X4585Y15921D01*
X4587Y15919D01*
X4613Y15890D01*
X4635Y15858D01*
X4654Y15825D01*
X4670Y15790D01*
X4685Y15756D01*
X4696Y15721D01*
X4706Y15688D01*
X4713Y15656D01*
X4719Y15627D01*
X4724Y15597D01*
X4728Y15573D01*
X4730Y15551D01*
Y15532D01*
X4732Y15519D01*
Y15512D01*
Y15508D01*
X4730Y15468D01*
X4724Y15429D01*
X4717Y15393D01*
X4707Y15364D01*
X4698Y15338D01*
X4691Y15318D01*
X4687Y15310D01*
X4685Y15305D01*
X4683Y15303D01*
Y15301D01*
X4663Y15268D01*
X4639Y15238D01*
X4613Y15212D01*
X4589Y15192D01*
X4567Y15175D01*
X4548Y15162D01*
X4541Y15158D01*
X4535Y15155D01*
X4533Y15153D01*
X4532D01*
X4493Y15136D01*
X4452Y15123D01*
X4413Y15114D01*
X4376Y15108D01*
X4345Y15105D01*
X4332Y15103D01*
X4320Y15101D01*
X4298D01*
X4254Y15103D01*
X4211Y15108D01*
X4172Y15116D01*
X4135Y15127D01*
X4100Y15138D01*
X4069Y15153D01*
X4041Y15168D01*
X4013Y15182D01*
X3991Y15197D01*
X3970Y15212D01*
X3952Y15227D01*
X3937Y15238D01*
X3926Y15249D01*
X3919Y15256D01*
X3913Y15262D01*
X3911Y15264D01*
X3885Y15295D01*
X3863Y15329D01*
X3845Y15362D01*
X3828Y15395D01*
X3813Y15427D01*
X3802Y15460D01*
X3793Y15492D01*
X3785Y15521D01*
X3780Y15549D01*
X3774Y15575D01*
X3770Y15597D01*
X3769Y15618D01*
X3767Y15632D01*
Y15645D01*
Y15653D01*
Y15655D01*
X3769Y15690D01*
X3772Y15723D01*
X3778Y15755D01*
X3785Y15784D01*
X3795Y15810D01*
X3804Y15836D01*
X3815Y15858D01*
X3824Y15880D01*
X3835Y15899D01*
X3846Y15914D01*
X3856Y15929D01*
X3865Y15940D01*
X3872Y15949D01*
X3878Y15955D01*
X3882Y15958D01*
X3883Y15960D01*
X3906Y15980D01*
X3930Y15997D01*
X3956Y16014D01*
X3982Y16027D01*
X4009Y16038D01*
X4035Y16047D01*
X4087Y16060D01*
X4111Y16066D01*
X4133Y16069D01*
X4152Y16071D01*
X4170Y16073D01*
X4183Y16075D01*
X4204D01*
X4246Y16073D01*
D02*
G37*
G36*
X8427D02*
X8470Y16067D01*
X8509Y16060D01*
X8544Y16051D01*
X8579Y16040D01*
X8611Y16025D01*
X8639Y16012D01*
X8664Y15997D01*
X8689Y15982D01*
X8709Y15969D01*
X8727Y15956D01*
X8742Y15943D01*
X8753Y15934D01*
X8761Y15927D01*
X8766Y15921D01*
X8768Y15919D01*
X8794Y15890D01*
X8816Y15858D01*
X8835Y15825D01*
X8851Y15790D01*
X8866Y15756D01*
X8877Y15721D01*
X8887Y15688D01*
X8894Y15656D01*
X8900Y15627D01*
X8905Y15597D01*
X8909Y15573D01*
X8911Y15551D01*
Y15532D01*
X8913Y15519D01*
Y15512D01*
Y15508D01*
X8911Y15468D01*
X8905Y15429D01*
X8898Y15393D01*
X8888Y15364D01*
X8879Y15338D01*
X8872Y15318D01*
X8868Y15310D01*
X8866Y15305D01*
X8864Y15303D01*
Y15301D01*
X8844Y15268D01*
X8820Y15238D01*
X8794Y15212D01*
X8770Y15192D01*
X8748Y15175D01*
X8729Y15162D01*
X8722Y15158D01*
X8716Y15155D01*
X8714Y15153D01*
X8713D01*
X8674Y15136D01*
X8633Y15123D01*
X8594Y15114D01*
X8557Y15108D01*
X8526Y15105D01*
X8513Y15103D01*
X8501Y15101D01*
X8479D01*
X8435Y15103D01*
X8392Y15108D01*
X8353Y15116D01*
X8316Y15127D01*
X8281Y15138D01*
X8250Y15153D01*
X8222Y15168D01*
X8194Y15182D01*
X8172Y15197D01*
X8152Y15212D01*
X8133Y15227D01*
X8118Y15238D01*
X8107Y15249D01*
X8100Y15256D01*
X8094Y15262D01*
X8092Y15264D01*
X8066Y15295D01*
X8044Y15329D01*
X8026Y15362D01*
X8009Y15395D01*
X7994Y15427D01*
X7983Y15460D01*
X7974Y15492D01*
X7966Y15521D01*
X7961Y15549D01*
X7955Y15575D01*
X7952Y15597D01*
X7950Y15618D01*
X7948Y15632D01*
Y15645D01*
Y15653D01*
Y15655D01*
X7950Y15690D01*
X7953Y15723D01*
X7959Y15755D01*
X7966Y15784D01*
X7976Y15810D01*
X7985Y15836D01*
X7996Y15858D01*
X8005Y15880D01*
X8016Y15899D01*
X8027Y15914D01*
X8037Y15929D01*
X8046Y15940D01*
X8053Y15949D01*
X8059Y15955D01*
X8063Y15958D01*
X8064Y15960D01*
X8087Y15980D01*
X8111Y15997D01*
X8137Y16014D01*
X8163Y16027D01*
X8190Y16038D01*
X8216Y16047D01*
X8268Y16060D01*
X8292Y16066D01*
X8314Y16069D01*
X8333Y16071D01*
X8352Y16073D01*
X8364Y16075D01*
X8385D01*
X8427Y16073D01*
D02*
G37*
G36*
X18781Y22025D02*
X18494D01*
Y23233D01*
X18192Y22025D01*
X17893D01*
X17591Y23233D01*
X17588Y22025D01*
X17302D01*
Y23561D01*
X17768D01*
X18041Y22511D01*
X18317Y23561D01*
X18781D01*
Y22025D01*
D02*
G37*
G36*
X15966Y23162D02*
X16008Y23157D01*
X16050Y23151D01*
X16085Y23139D01*
X16121Y23128D01*
X16154Y23115D01*
X16183Y23102D01*
X16210Y23086D01*
X16234Y23073D01*
X16254Y23057D01*
X16272Y23044D01*
X16288Y23033D01*
X16299Y23022D01*
X16307Y23015D01*
X16312Y23011D01*
X16314Y23008D01*
X16339Y22977D01*
X16361Y22946D01*
X16381Y22913D01*
X16399Y22877D01*
X16412Y22842D01*
X16423Y22806D01*
X16441Y22738D01*
X16447Y22704D01*
X16452Y22675D01*
X16454Y22649D01*
X16456Y22624D01*
X16458Y22607D01*
Y22591D01*
Y22582D01*
Y22580D01*
X16456Y22531D01*
X16452Y22482D01*
X16445Y22440D01*
X16436Y22398D01*
X16425Y22360D01*
X16412Y22325D01*
X16401Y22294D01*
X16385Y22265D01*
X16372Y22238D01*
X16361Y22216D01*
X16347Y22198D01*
X16336Y22183D01*
X16327Y22169D01*
X16321Y22160D01*
X16316Y22156D01*
X16314Y22154D01*
X16285Y22127D01*
X16256Y22103D01*
X16225Y22083D01*
X16192Y22065D01*
X16161Y22049D01*
X16128Y22038D01*
X16097Y22027D01*
X16066Y22021D01*
X16037Y22014D01*
X16010Y22009D01*
X15986Y22005D01*
X15966Y22003D01*
X15950Y22001D01*
X15926D01*
X15886Y22003D01*
X15850Y22005D01*
X15815Y22009D01*
X15781Y22016D01*
X15750Y22023D01*
X15724Y22032D01*
X15697Y22041D01*
X15675Y22052D01*
X15653Y22061D01*
X15635Y22069D01*
X15619Y22078D01*
X15606Y22085D01*
X15597Y22092D01*
X15590Y22096D01*
X15586Y22100D01*
X15584D01*
X15562Y22120D01*
X15539Y22143D01*
X15502Y22191D01*
X15471Y22240D01*
X15448Y22289D01*
X15431Y22334D01*
X15424Y22354D01*
X15417Y22369D01*
X15413Y22382D01*
X15411Y22394D01*
X15408Y22400D01*
Y22402D01*
X15697Y22451D01*
X15706Y22411D01*
X15719Y22376D01*
X15730Y22347D01*
X15744Y22325D01*
X15757Y22307D01*
X15766Y22296D01*
X15772Y22289D01*
X15775Y22287D01*
X15797Y22271D01*
X15819Y22260D01*
X15841Y22251D01*
X15863Y22247D01*
X15883Y22243D01*
X15899Y22240D01*
X15912D01*
X15952Y22245D01*
X15988Y22254D01*
X16017Y22265D01*
X16043Y22280D01*
X16063Y22296D01*
X16077Y22307D01*
X16088Y22316D01*
X16090Y22320D01*
X16101Y22338D01*
X16112Y22356D01*
X16128Y22398D01*
X16141Y22445D01*
X16148Y22491D01*
X16152Y22536D01*
X16154Y22553D01*
Y22569D01*
X16157Y22582D01*
Y22593D01*
Y22600D01*
Y22602D01*
Y22633D01*
X16154Y22664D01*
X16150Y22691D01*
X16145Y22718D01*
X16141Y22740D01*
X16137Y22760D01*
X16123Y22795D01*
X16112Y22822D01*
X16101Y22840D01*
X16094Y22851D01*
X16092Y22855D01*
X16066Y22882D01*
X16037Y22900D01*
X16008Y22913D01*
X15981Y22924D01*
X15955Y22929D01*
X15935Y22931D01*
X15921Y22933D01*
X15917D01*
X15888Y22931D01*
X15861Y22926D01*
X15839Y22920D01*
X15819Y22911D01*
X15804Y22902D01*
X15792Y22895D01*
X15786Y22891D01*
X15784Y22889D01*
X15766Y22871D01*
X15750Y22851D01*
X15739Y22829D01*
X15728Y22809D01*
X15721Y22789D01*
X15717Y22773D01*
X15715Y22764D01*
Y22760D01*
X15424Y22813D01*
X15446Y22875D01*
X15473Y22929D01*
X15502Y22973D01*
X15531Y23011D01*
X15557Y23040D01*
X15577Y23059D01*
X15586Y23066D01*
X15593Y23071D01*
X15595Y23075D01*
X15597D01*
X15646Y23104D01*
X15699Y23126D01*
X15752Y23142D01*
X15804Y23153D01*
X15828Y23157D01*
X15850Y23159D01*
X15870Y23162D01*
X15888D01*
X15901Y23164D01*
X15921D01*
X15966Y23162D01*
D02*
G37*
G36*
X14765Y20662D02*
X14800Y20657D01*
X14833Y20648D01*
X14867Y20637D01*
X14924Y20608D01*
X14951Y20591D01*
X14976Y20575D01*
X14998Y20559D01*
X15018Y20542D01*
X15033Y20528D01*
X15047Y20515D01*
X15058Y20502D01*
X15067Y20493D01*
X15071Y20488D01*
X15073Y20486D01*
Y20639D01*
X15344D01*
Y19525D01*
X15049D01*
Y20064D01*
Y20120D01*
X15044Y20169D01*
X15042Y20207D01*
X15038Y20240D01*
X15033Y20262D01*
X15031Y20280D01*
X15027Y20291D01*
Y20293D01*
X15015Y20318D01*
X15004Y20340D01*
X14991Y20357D01*
X14978Y20373D01*
X14967Y20384D01*
X14958Y20393D01*
X14951Y20397D01*
X14949Y20400D01*
X14927Y20413D01*
X14907Y20422D01*
X14887Y20429D01*
X14867Y20433D01*
X14851Y20435D01*
X14838Y20437D01*
X14807D01*
X14789Y20433D01*
X14773Y20431D01*
X14760Y20426D01*
X14751Y20422D01*
X14745Y20417D01*
X14740Y20415D01*
X14738Y20413D01*
X14727Y20404D01*
X14716Y20393D01*
X14700Y20369D01*
X14696Y20360D01*
X14691Y20351D01*
X14689Y20344D01*
Y20342D01*
X14687Y20333D01*
X14682Y20320D01*
X14678Y20289D01*
X14676Y20255D01*
X14674Y20220D01*
X14671Y20187D01*
Y20160D01*
Y20149D01*
Y20140D01*
Y20135D01*
Y20133D01*
Y19525D01*
X14376D01*
Y20058D01*
Y20113D01*
X14372Y20160D01*
X14369Y20200D01*
X14365Y20233D01*
X14361Y20258D01*
X14358Y20275D01*
X14354Y20284D01*
Y20289D01*
X14343Y20315D01*
X14332Y20338D01*
X14318Y20355D01*
X14305Y20371D01*
X14294Y20384D01*
X14285Y20393D01*
X14278Y20397D01*
X14276Y20400D01*
X14256Y20413D01*
X14234Y20422D01*
X14214Y20429D01*
X14196Y20433D01*
X14181Y20435D01*
X14170Y20437D01*
X14159D01*
X14130Y20435D01*
X14103Y20429D01*
X14081Y20417D01*
X14063Y20406D01*
X14050Y20393D01*
X14041Y20384D01*
X14034Y20375D01*
X14032Y20373D01*
X14028Y20362D01*
X14021Y20351D01*
X14014Y20320D01*
X14008Y20284D01*
X14005Y20249D01*
X14003Y20215D01*
X14001Y20187D01*
Y20175D01*
Y20167D01*
Y20162D01*
Y20160D01*
Y19525D01*
X13706D01*
Y20235D01*
X13708Y20291D01*
X13710Y20340D01*
X13715Y20380D01*
X13721Y20411D01*
X13728Y20435D01*
X13732Y20453D01*
X13735Y20464D01*
X13737Y20466D01*
X13755Y20502D01*
X13775Y20531D01*
X13797Y20555D01*
X13817Y20577D01*
X13837Y20593D01*
X13852Y20604D01*
X13861Y20611D01*
X13866Y20613D01*
X13899Y20631D01*
X13934Y20642D01*
X13968Y20651D01*
X14001Y20657D01*
X14030Y20662D01*
X14052Y20664D01*
X14072D01*
X14108Y20662D01*
X14141Y20657D01*
X14172Y20651D01*
X14199Y20642D01*
X14221Y20633D01*
X14238Y20626D01*
X14250Y20622D01*
X14254Y20619D01*
X14285Y20602D01*
X14314Y20579D01*
X14341Y20557D01*
X14365Y20535D01*
X14385Y20515D01*
X14398Y20500D01*
X14407Y20488D01*
X14412Y20484D01*
X14432Y20515D01*
X14454Y20544D01*
X14476Y20566D01*
X14496Y20586D01*
X14514Y20602D01*
X14529Y20611D01*
X14538Y20617D01*
X14543Y20619D01*
X14574Y20635D01*
X14605Y20646D01*
X14636Y20653D01*
X14665Y20659D01*
X14689Y20662D01*
X14709Y20664D01*
X14727D01*
X14765Y20662D01*
D02*
G37*
G36*
X15921Y19525D02*
X15626D01*
Y20639D01*
X15921D01*
Y19525D01*
D02*
G37*
G36*
X9825Y20662D02*
X9847Y20659D01*
X9870Y20653D01*
X9887Y20646D01*
X9903Y20639D01*
X9916Y20635D01*
X9923Y20631D01*
X9925Y20628D01*
X9947Y20613D01*
X9967Y20591D01*
X9989Y20566D01*
X10007Y20542D01*
X10025Y20517D01*
X10038Y20497D01*
X10047Y20484D01*
X10049Y20482D01*
Y20639D01*
X10322D01*
Y19525D01*
X10027D01*
Y19867D01*
Y19918D01*
Y19965D01*
X10025Y20007D01*
X10023Y20044D01*
Y20080D01*
X10021Y20109D01*
X10018Y20138D01*
X10016Y20160D01*
X10014Y20180D01*
X10012Y20198D01*
X10009Y20211D01*
Y20222D01*
X10007Y20229D01*
X10005Y20235D01*
Y20240D01*
X9996Y20271D01*
X9985Y20298D01*
X9974Y20320D01*
X9963Y20335D01*
X9954Y20349D01*
X9945Y20357D01*
X9941Y20362D01*
X9938Y20364D01*
X9921Y20375D01*
X9903Y20384D01*
X9885Y20391D01*
X9870Y20395D01*
X9856Y20397D01*
X9843Y20400D01*
X9834D01*
X9810Y20397D01*
X9785Y20393D01*
X9763Y20384D01*
X9741Y20375D01*
X9723Y20366D01*
X9710Y20357D01*
X9699Y20353D01*
X9696Y20351D01*
X9603Y20606D01*
X9639Y20626D01*
X9672Y20639D01*
X9705Y20651D01*
X9736Y20657D01*
X9761Y20662D01*
X9781Y20664D01*
X9799D01*
X9825Y20662D01*
D02*
G37*
G36*
X19375Y19525D02*
X19065D01*
Y20178D01*
X18423D01*
Y20437D01*
X19065D01*
Y20801D01*
X18321D01*
Y21061D01*
X19375D01*
Y19525D01*
D02*
G37*
G36*
X17466D02*
X16885D01*
X16825Y19527D01*
X16769Y19529D01*
X16723Y19534D01*
X16685Y19541D01*
X16654Y19547D01*
X16629Y19552D01*
X16623Y19554D01*
X16616D01*
X16614Y19556D01*
X16612D01*
X16563Y19574D01*
X16518Y19594D01*
X16483Y19614D01*
X16452Y19634D01*
X16427Y19652D01*
X16410Y19665D01*
X16399Y19674D01*
X16394Y19678D01*
X16356Y19720D01*
X16323Y19765D01*
X16294Y19811D01*
X16272Y19854D01*
X16254Y19894D01*
X16245Y19909D01*
X16241Y19922D01*
X16236Y19936D01*
X16232Y19945D01*
X16230Y19949D01*
Y19951D01*
X16214Y20005D01*
X16201Y20060D01*
X16192Y20113D01*
X16188Y20164D01*
X16185Y20189D01*
X16183Y20211D01*
Y20229D01*
X16181Y20246D01*
Y20260D01*
Y20269D01*
Y20275D01*
Y20278D01*
X16183Y20355D01*
X16190Y20424D01*
X16192Y20457D01*
X16196Y20486D01*
X16201Y20515D01*
X16205Y20540D01*
X16212Y20562D01*
X16216Y20582D01*
X16221Y20599D01*
X16223Y20613D01*
X16228Y20624D01*
X16230Y20633D01*
X16232Y20637D01*
Y20639D01*
X16252Y20693D01*
X16276Y20742D01*
X16301Y20784D01*
X16325Y20819D01*
X16345Y20848D01*
X16363Y20870D01*
X16374Y20884D01*
X16376Y20888D01*
X16379D01*
X16416Y20924D01*
X16454Y20952D01*
X16494Y20977D01*
X16529Y20997D01*
X16561Y21012D01*
X16587Y21023D01*
X16596Y21026D01*
X16603Y21028D01*
X16607Y21030D01*
X16609D01*
X16652Y21041D01*
X16698Y21048D01*
X16747Y21055D01*
X16794Y21057D01*
X16836Y21059D01*
X16854Y21061D01*
X17466D01*
Y19525D01*
D02*
G37*
G36*
X18984Y18185D02*
X18709D01*
X18658Y18433D01*
X18931D01*
X18984Y18185D01*
D02*
G37*
G36*
X7552D02*
X7277D01*
X7226Y18433D01*
X7499D01*
X7552Y18185D01*
D02*
G37*
G36*
X6253Y19525D02*
X5958D01*
Y19820D01*
X6253D01*
Y19525D01*
D02*
G37*
G36*
X5261Y21068D02*
X5299Y21063D01*
X5336Y21055D01*
X5370Y21046D01*
X5401Y21032D01*
X5430Y21019D01*
X5454Y21006D01*
X5479Y20990D01*
X5498Y20975D01*
X5518Y20961D01*
X5534Y20948D01*
X5545Y20935D01*
X5556Y20926D01*
X5563Y20917D01*
X5567Y20912D01*
X5570Y20910D01*
X5596Y20873D01*
X5618Y20828D01*
X5638Y20781D01*
X5656Y20733D01*
X5669Y20682D01*
X5683Y20628D01*
X5692Y20577D01*
X5701Y20526D01*
X5705Y20477D01*
X5709Y20433D01*
X5714Y20391D01*
X5716Y20355D01*
X5718Y20326D01*
Y20304D01*
Y20295D01*
Y20289D01*
Y20286D01*
Y20284D01*
X5716Y20204D01*
X5712Y20131D01*
X5705Y20062D01*
X5696Y20000D01*
X5687Y19945D01*
X5676Y19894D01*
X5663Y19849D01*
X5649Y19809D01*
X5638Y19776D01*
X5625Y19745D01*
X5614Y19720D01*
X5603Y19700D01*
X5596Y19687D01*
X5590Y19676D01*
X5585Y19669D01*
X5583Y19667D01*
X5556Y19636D01*
X5527Y19612D01*
X5498Y19587D01*
X5467Y19569D01*
X5439Y19552D01*
X5407Y19538D01*
X5379Y19527D01*
X5350Y19518D01*
X5323Y19509D01*
X5299Y19505D01*
X5277Y19501D01*
X5259Y19498D01*
X5243D01*
X5230Y19496D01*
X5221D01*
X5181Y19498D01*
X5143Y19503D01*
X5106Y19512D01*
X5072Y19521D01*
X5041Y19532D01*
X5012Y19545D01*
X4988Y19561D01*
X4963Y19576D01*
X4944Y19589D01*
X4924Y19605D01*
X4908Y19618D01*
X4895Y19629D01*
X4886Y19638D01*
X4879Y19647D01*
X4875Y19652D01*
X4872Y19654D01*
X4846Y19691D01*
X4824Y19736D01*
X4801Y19783D01*
X4786Y19834D01*
X4770Y19885D01*
X4759Y19936D01*
X4748Y19989D01*
X4739Y20040D01*
X4735Y20089D01*
X4730Y20133D01*
X4726Y20175D01*
X4724Y20211D01*
X4722Y20240D01*
Y20262D01*
Y20271D01*
Y20278D01*
Y20280D01*
Y20282D01*
X4724Y20362D01*
X4728Y20435D01*
X4735Y20502D01*
X4746Y20564D01*
X4757Y20622D01*
X4768Y20673D01*
X4784Y20719D01*
X4797Y20759D01*
X4810Y20797D01*
X4824Y20826D01*
X4837Y20853D01*
X4848Y20875D01*
X4859Y20890D01*
X4866Y20901D01*
X4870Y20908D01*
X4872Y20910D01*
X4897Y20939D01*
X4924Y20964D01*
X4952Y20984D01*
X4981Y21003D01*
X5010Y21019D01*
X5039Y21030D01*
X5066Y21041D01*
X5094Y21050D01*
X5121Y21057D01*
X5143Y21061D01*
X5166Y21066D01*
X5183Y21068D01*
X5199Y21070D01*
X5221D01*
X5261Y21068D01*
D02*
G37*
G36*
X20925Y19525D02*
X20614D01*
Y20167D01*
X20514D01*
X20483Y20164D01*
X20457Y20162D01*
X20434Y20158D01*
X20417Y20155D01*
X20406Y20151D01*
X20399Y20149D01*
X20397D01*
X20379Y20140D01*
X20361Y20131D01*
X20346Y20120D01*
X20330Y20111D01*
X20319Y20100D01*
X20310Y20091D01*
X20306Y20087D01*
X20303Y20084D01*
X20295Y20073D01*
X20283Y20062D01*
X20259Y20029D01*
X20232Y19993D01*
X20204Y19953D01*
X20179Y19918D01*
X20168Y19900D01*
X20159Y19887D01*
X20150Y19876D01*
X20144Y19867D01*
X20141Y19860D01*
X20139Y19858D01*
X19917Y19525D01*
X19544D01*
X19733Y19825D01*
X19753Y19856D01*
X19773Y19887D01*
X19791Y19913D01*
X19808Y19938D01*
X19824Y19960D01*
X19837Y19982D01*
X19864Y20016D01*
X19884Y20042D01*
X19897Y20060D01*
X19908Y20071D01*
X19910Y20073D01*
X19935Y20100D01*
X19964Y20124D01*
X19990Y20144D01*
X20017Y20164D01*
X20039Y20180D01*
X20057Y20191D01*
X20070Y20200D01*
X20073Y20202D01*
X20075D01*
X20037Y20209D01*
X20004Y20218D01*
X19973Y20227D01*
X19942Y20238D01*
X19915Y20249D01*
X19890Y20260D01*
X19866Y20271D01*
X19846Y20284D01*
X19828Y20295D01*
X19813Y20306D01*
X19799Y20318D01*
X19791Y20326D01*
X19782Y20333D01*
X19775Y20340D01*
X19773Y20342D01*
X19771Y20344D01*
X19753Y20366D01*
X19737Y20389D01*
X19711Y20437D01*
X19693Y20484D01*
X19682Y20531D01*
X19673Y20571D01*
X19671Y20586D01*
Y20602D01*
X19669Y20613D01*
Y20624D01*
Y20628D01*
Y20631D01*
X19671Y20679D01*
X19680Y20726D01*
X19691Y20766D01*
X19702Y20801D01*
X19715Y20830D01*
X19726Y20853D01*
X19731Y20859D01*
X19735Y20866D01*
X19737Y20868D01*
Y20870D01*
X19764Y20908D01*
X19793Y20939D01*
X19822Y20964D01*
X19851Y20986D01*
X19877Y20999D01*
X19897Y21010D01*
X19910Y21017D01*
X19913Y21019D01*
X19915D01*
X19937Y21026D01*
X19962Y21032D01*
X20017Y21043D01*
X20077Y21050D01*
X20135Y21057D01*
X20164D01*
X20188Y21059D01*
X20212D01*
X20232Y21061D01*
X20925D01*
Y19525D01*
D02*
G37*
G36*
X15395Y16073D02*
X15438Y16067D01*
X15477Y16060D01*
X15512Y16051D01*
X15547Y16040D01*
X15579Y16025D01*
X15606Y16012D01*
X15632Y15997D01*
X15656Y15982D01*
X15677Y15969D01*
X15695Y15956D01*
X15710Y15943D01*
X15721Y15934D01*
X15729Y15927D01*
X15734Y15921D01*
X15736Y15919D01*
X15762Y15890D01*
X15784Y15858D01*
X15803Y15825D01*
X15819Y15790D01*
X15834Y15756D01*
X15845Y15721D01*
X15854Y15688D01*
X15862Y15656D01*
X15867Y15627D01*
X15873Y15597D01*
X15877Y15573D01*
X15879Y15551D01*
Y15532D01*
X15880Y15519D01*
Y15512D01*
Y15508D01*
X15879Y15468D01*
X15873Y15429D01*
X15866Y15393D01*
X15856Y15364D01*
X15847Y15338D01*
X15840Y15318D01*
X15836Y15310D01*
X15834Y15305D01*
X15832Y15303D01*
Y15301D01*
X15812Y15268D01*
X15788Y15238D01*
X15762Y15212D01*
X15738Y15192D01*
X15716Y15175D01*
X15697Y15162D01*
X15690Y15158D01*
X15684Y15155D01*
X15682Y15153D01*
X15680D01*
X15641Y15136D01*
X15601Y15123D01*
X15562Y15114D01*
X15525Y15108D01*
X15493Y15105D01*
X15480Y15103D01*
X15469Y15101D01*
X15447D01*
X15403Y15103D01*
X15360Y15108D01*
X15321Y15116D01*
X15284Y15127D01*
X15249Y15138D01*
X15217Y15153D01*
X15190Y15168D01*
X15162Y15182D01*
X15140Y15197D01*
X15119Y15212D01*
X15101Y15227D01*
X15086Y15238D01*
X15075Y15249D01*
X15067Y15256D01*
X15062Y15262D01*
X15060Y15264D01*
X15034Y15295D01*
X15012Y15329D01*
X14993Y15362D01*
X14977Y15395D01*
X14962Y15427D01*
X14951Y15460D01*
X14942Y15492D01*
X14934Y15521D01*
X14929Y15549D01*
X14923Y15575D01*
X14919Y15597D01*
X14917Y15618D01*
X14916Y15632D01*
Y15645D01*
Y15653D01*
Y15655D01*
X14917Y15690D01*
X14921Y15723D01*
X14927Y15755D01*
X14934Y15784D01*
X14943Y15810D01*
X14953Y15836D01*
X14964Y15858D01*
X14973Y15880D01*
X14984Y15899D01*
X14995Y15914D01*
X15005Y15929D01*
X15014Y15940D01*
X15021Y15949D01*
X15027Y15955D01*
X15030Y15958D01*
X15032Y15960D01*
X15055Y15980D01*
X15079Y15997D01*
X15105Y16014D01*
X15130Y16027D01*
X15158Y16038D01*
X15184Y16047D01*
X15236Y16060D01*
X15260Y16066D01*
X15282Y16069D01*
X15301Y16071D01*
X15319Y16073D01*
X15332Y16075D01*
X15353D01*
X15395Y16073D01*
D02*
G37*
G36*
X13381Y15103D02*
X13207D01*
X12571Y16429D01*
X12747D01*
X13381Y15103D01*
D02*
G37*
G36*
X12855Y20662D02*
X12891Y20657D01*
X12924Y20648D01*
X12958Y20637D01*
X13015Y20608D01*
X13042Y20591D01*
X13066Y20575D01*
X13089Y20559D01*
X13109Y20542D01*
X13124Y20528D01*
X13137Y20515D01*
X13148Y20502D01*
X13157Y20493D01*
X13162Y20488D01*
X13164Y20486D01*
Y20639D01*
X13435D01*
Y19525D01*
X13140D01*
Y20064D01*
Y20120D01*
X13135Y20169D01*
X13133Y20207D01*
X13128Y20240D01*
X13124Y20262D01*
X13122Y20280D01*
X13117Y20291D01*
Y20293D01*
X13106Y20318D01*
X13095Y20340D01*
X13082Y20357D01*
X13069Y20373D01*
X13057Y20384D01*
X13049Y20393D01*
X13042Y20397D01*
X13040Y20400D01*
X13017Y20413D01*
X12998Y20422D01*
X12978Y20429D01*
X12958Y20433D01*
X12942Y20435D01*
X12929Y20437D01*
X12898D01*
X12880Y20433D01*
X12864Y20431D01*
X12851Y20426D01*
X12842Y20422D01*
X12835Y20417D01*
X12831Y20415D01*
X12829Y20413D01*
X12818Y20404D01*
X12807Y20393D01*
X12791Y20369D01*
X12787Y20360D01*
X12782Y20351D01*
X12780Y20344D01*
Y20342D01*
X12778Y20333D01*
X12773Y20320D01*
X12769Y20289D01*
X12767Y20255D01*
X12764Y20220D01*
X12762Y20187D01*
Y20160D01*
Y20149D01*
Y20140D01*
Y20135D01*
Y20133D01*
Y19525D01*
X12467D01*
Y20058D01*
Y20113D01*
X12463Y20160D01*
X12460Y20200D01*
X12456Y20233D01*
X12451Y20258D01*
X12449Y20275D01*
X12445Y20284D01*
Y20289D01*
X12434Y20315D01*
X12423Y20338D01*
X12409Y20355D01*
X12396Y20371D01*
X12385Y20384D01*
X12376Y20393D01*
X12369Y20397D01*
X12367Y20400D01*
X12347Y20413D01*
X12325Y20422D01*
X12305Y20429D01*
X12287Y20433D01*
X12272Y20435D01*
X12260Y20437D01*
X12249D01*
X12221Y20435D01*
X12194Y20429D01*
X12172Y20417D01*
X12154Y20406D01*
X12141Y20393D01*
X12132Y20384D01*
X12125Y20375D01*
X12123Y20373D01*
X12118Y20362D01*
X12112Y20351D01*
X12105Y20320D01*
X12098Y20284D01*
X12096Y20249D01*
X12094Y20215D01*
X12092Y20187D01*
Y20175D01*
Y20167D01*
Y20162D01*
Y20160D01*
Y19525D01*
X11797D01*
Y20235D01*
X11799Y20291D01*
X11801Y20340D01*
X11805Y20380D01*
X11812Y20411D01*
X11819Y20435D01*
X11823Y20453D01*
X11825Y20464D01*
X11828Y20466D01*
X11845Y20502D01*
X11865Y20531D01*
X11888Y20555D01*
X11908Y20577D01*
X11927Y20593D01*
X11943Y20604D01*
X11952Y20611D01*
X11956Y20613D01*
X11990Y20631D01*
X12025Y20642D01*
X12058Y20651D01*
X12092Y20657D01*
X12121Y20662D01*
X12143Y20664D01*
X12163D01*
X12198Y20662D01*
X12232Y20657D01*
X12263Y20651D01*
X12289Y20642D01*
X12312Y20633D01*
X12329Y20626D01*
X12340Y20622D01*
X12345Y20619D01*
X12376Y20602D01*
X12405Y20579D01*
X12431Y20557D01*
X12456Y20535D01*
X12476Y20515D01*
X12489Y20500D01*
X12498Y20488D01*
X12502Y20484D01*
X12522Y20515D01*
X12545Y20544D01*
X12567Y20566D01*
X12587Y20586D01*
X12605Y20602D01*
X12620Y20611D01*
X12629Y20617D01*
X12633Y20619D01*
X12665Y20635D01*
X12696Y20646D01*
X12727Y20653D01*
X12756Y20659D01*
X12780Y20662D01*
X12800Y20664D01*
X12818D01*
X12855Y20662D01*
D02*
G37*
G36*
X7019Y21019D02*
X7048Y20972D01*
X7079Y20928D01*
X7110Y20892D01*
X7137Y20864D01*
X7161Y20841D01*
X7170Y20833D01*
X7177Y20826D01*
X7181Y20824D01*
X7183Y20821D01*
X7232Y20786D01*
X7279Y20755D01*
X7321Y20730D01*
X7359Y20713D01*
X7390Y20699D01*
X7412Y20688D01*
X7421Y20686D01*
X7428Y20684D01*
X7430Y20682D01*
X7432D01*
Y20415D01*
X7352Y20446D01*
X7281Y20480D01*
X7248Y20497D01*
X7217Y20517D01*
X7188Y20535D01*
X7161Y20553D01*
X7137Y20571D01*
X7115Y20586D01*
X7097Y20599D01*
X7081Y20613D01*
X7068Y20624D01*
X7059Y20631D01*
X7055Y20635D01*
X7052Y20637D01*
Y19525D01*
X6757D01*
Y21070D01*
X6997D01*
X7019Y21019D01*
D02*
G37*
G36*
X5767Y15125D02*
X5518D01*
X5250Y16406D01*
X5498D01*
X5767Y15125D01*
D02*
G37*
G36*
X11122Y20662D02*
X11159Y20657D01*
X11197Y20648D01*
X11230Y20639D01*
X11264Y20628D01*
X11293Y20615D01*
X11321Y20599D01*
X11346Y20586D01*
X11368Y20571D01*
X11388Y20555D01*
X11406Y20542D01*
X11419Y20531D01*
X11430Y20522D01*
X11439Y20513D01*
X11444Y20508D01*
X11446Y20506D01*
X11470Y20475D01*
X11492Y20442D01*
X11512Y20409D01*
X11530Y20373D01*
X11543Y20335D01*
X11555Y20300D01*
X11572Y20231D01*
X11579Y20198D01*
X11583Y20169D01*
X11586Y20142D01*
X11588Y20120D01*
X11590Y20100D01*
Y20084D01*
Y20076D01*
Y20073D01*
X11588Y20031D01*
X11586Y19989D01*
X11579Y19951D01*
X11572Y19916D01*
X11566Y19880D01*
X11555Y19849D01*
X11546Y19820D01*
X11535Y19794D01*
X11526Y19769D01*
X11515Y19749D01*
X11506Y19731D01*
X11499Y19716D01*
X11490Y19705D01*
X11486Y19696D01*
X11484Y19691D01*
X11481Y19689D01*
X11452Y19656D01*
X11424Y19627D01*
X11390Y19603D01*
X11355Y19580D01*
X11319Y19563D01*
X11284Y19547D01*
X11248Y19534D01*
X11213Y19525D01*
X11182Y19516D01*
X11151Y19512D01*
X11122Y19507D01*
X11097Y19503D01*
X11077D01*
X11064Y19501D01*
X11051D01*
X10986Y19505D01*
X10926Y19514D01*
X10875Y19527D01*
X10831Y19543D01*
X10811Y19552D01*
X10795Y19558D01*
X10780Y19565D01*
X10769Y19572D01*
X10760Y19578D01*
X10751Y19580D01*
X10749Y19585D01*
X10746D01*
X10704Y19620D01*
X10667Y19658D01*
X10635Y19700D01*
X10611Y19740D01*
X10591Y19776D01*
X10584Y19791D01*
X10578Y19805D01*
X10573Y19816D01*
X10569Y19825D01*
X10567Y19829D01*
Y19831D01*
X10860Y19880D01*
X10871Y19851D01*
X10882Y19825D01*
X10893Y19805D01*
X10906Y19787D01*
X10915Y19774D01*
X10924Y19765D01*
X10931Y19760D01*
X10933Y19758D01*
X10951Y19745D01*
X10971Y19736D01*
X10991Y19729D01*
X11008Y19725D01*
X11024Y19723D01*
X11037Y19720D01*
X11048D01*
X11084Y19723D01*
X11117Y19731D01*
X11148Y19743D01*
X11173Y19756D01*
X11193Y19769D01*
X11206Y19780D01*
X11217Y19789D01*
X11219Y19791D01*
X11242Y19820D01*
X11257Y19854D01*
X11270Y19889D01*
X11279Y19920D01*
X11284Y19951D01*
X11286Y19973D01*
X11288Y19982D01*
Y19989D01*
Y19993D01*
Y19996D01*
X10551D01*
Y20058D01*
X10556Y20113D01*
X10562Y20167D01*
X10571Y20215D01*
X10582Y20262D01*
X10593Y20302D01*
X10607Y20340D01*
X10620Y20373D01*
X10633Y20402D01*
X10647Y20429D01*
X10658Y20448D01*
X10669Y20466D01*
X10678Y20480D01*
X10684Y20491D01*
X10689Y20495D01*
X10691Y20497D01*
X10718Y20526D01*
X10749Y20553D01*
X10780Y20575D01*
X10811Y20593D01*
X10844Y20611D01*
X10877Y20624D01*
X10909Y20635D01*
X10940Y20644D01*
X10968Y20651D01*
X10995Y20655D01*
X11020Y20659D01*
X11040Y20662D01*
X11057Y20664D01*
X11082D01*
X11122Y20662D01*
D02*
G37*
G36*
X5267Y15125D02*
X5019D01*
X4822Y16055D01*
X5072D01*
X5267Y15125D01*
D02*
G37*
G36*
X8482Y19525D02*
X8147D01*
X7601Y21061D01*
X7932D01*
X8307Y19925D01*
X8697Y21061D01*
X9033D01*
X8482Y19525D01*
D02*
G37*
%LPC*%
G36*
X6252Y15895D02*
X6239D01*
X6211Y15893D01*
X6187Y15888D01*
X6165Y15879D01*
X6148Y15869D01*
X6133Y15860D01*
X6124Y15851D01*
X6117Y15845D01*
X6115Y15843D01*
X6100Y15821D01*
X6089Y15797D01*
X6080Y15771D01*
X6074Y15747D01*
X6070Y15723D01*
X6068Y15705D01*
Y15697D01*
Y15692D01*
Y15690D01*
Y15688D01*
Y15681D01*
Y15673D01*
Y15666D01*
Y15664D01*
X6463D01*
X6454Y15705D01*
X6441Y15738D01*
X6426Y15768D01*
X6413Y15792D01*
X6400Y15812D01*
X6389Y15825D01*
X6381Y15834D01*
X6379Y15836D01*
X6355Y15856D01*
X6331Y15871D01*
X6307Y15880D01*
X6285Y15888D01*
X6267Y15892D01*
X6252Y15895D01*
D02*
G37*
G36*
X16809Y17871D02*
X16795D01*
X16764Y17869D01*
X16738Y17863D01*
X16713Y17853D01*
X16695Y17843D01*
X16679Y17833D01*
X16669Y17823D01*
X16660Y17816D01*
X16658Y17814D01*
X16642Y17790D01*
X16630Y17764D01*
X16620Y17735D01*
X16614Y17709D01*
X16610Y17682D01*
X16608Y17662D01*
Y17654D01*
Y17648D01*
Y17646D01*
Y17643D01*
Y17635D01*
Y17627D01*
Y17619D01*
Y17617D01*
X17041D01*
X17031Y17662D01*
X17016Y17698D01*
X17000Y17731D01*
X16986Y17757D01*
X16972Y17780D01*
X16959Y17794D01*
X16951Y17804D01*
X16949Y17806D01*
X16923Y17829D01*
X16896Y17845D01*
X16870Y17855D01*
X16846Y17863D01*
X16825Y17867D01*
X16809Y17871D01*
D02*
G37*
G36*
X11194Y17501D02*
X11192D01*
X11200Y17462D01*
X11208Y17428D01*
X11216Y17397D01*
X11224Y17371D01*
X11232Y17351D01*
X11238Y17334D01*
X11244Y17324D01*
X11246Y17316D01*
X11249Y17314D01*
X11259Y17296D01*
X11273Y17281D01*
X11287Y17267D01*
X11299Y17257D01*
X11312Y17247D01*
X11322Y17241D01*
X11330Y17237D01*
X11332Y17235D01*
X11352Y17224D01*
X11373Y17218D01*
X11393Y17212D01*
X11411Y17210D01*
X11426Y17208D01*
X11438Y17206D01*
X11448D01*
X11468Y17208D01*
X11487Y17212D01*
X11503Y17216D01*
X11515Y17222D01*
X11525Y17228D01*
X11533Y17235D01*
X11537Y17237D01*
X11539Y17239D01*
X11552Y17251D01*
X11560Y17265D01*
X11566Y17279D01*
X11570Y17292D01*
X11572Y17304D01*
X11574Y17312D01*
Y17318D01*
Y17320D01*
X11572Y17340D01*
X11568Y17359D01*
X11560Y17375D01*
X11552Y17389D01*
X11544Y17399D01*
X11535Y17407D01*
X11531Y17412D01*
X11529Y17414D01*
X11515Y17422D01*
X11499Y17430D01*
X11480Y17438D01*
X11460Y17446D01*
X11415Y17458D01*
X11371Y17469D01*
X11328Y17477D01*
X11310Y17481D01*
X11291Y17483D01*
X11279Y17485D01*
X11267D01*
X11261Y17487D01*
X11259D01*
X11230Y17491D01*
X11210Y17497D01*
X11202Y17499D01*
X11196D01*
X11194Y17501D01*
D02*
G37*
G36*
X5397D02*
X5395D01*
X5403Y17462D01*
X5411Y17428D01*
X5420Y17397D01*
X5428Y17371D01*
X5436Y17351D01*
X5442Y17334D01*
X5448Y17324D01*
X5450Y17316D01*
X5452Y17314D01*
X5462Y17296D01*
X5477Y17281D01*
X5491Y17267D01*
X5503Y17257D01*
X5515Y17247D01*
X5525Y17241D01*
X5534Y17237D01*
X5536Y17235D01*
X5556Y17224D01*
X5576Y17218D01*
X5597Y17212D01*
X5615Y17210D01*
X5629Y17208D01*
X5641Y17206D01*
X5652D01*
X5672Y17208D01*
X5690Y17212D01*
X5706Y17216D01*
X5719Y17222D01*
X5729Y17228D01*
X5737Y17235D01*
X5741Y17237D01*
X5743Y17239D01*
X5755Y17251D01*
X5763Y17265D01*
X5770Y17279D01*
X5774Y17292D01*
X5776Y17304D01*
X5778Y17312D01*
Y17318D01*
Y17320D01*
X5776Y17340D01*
X5772Y17359D01*
X5763Y17375D01*
X5755Y17389D01*
X5747Y17399D01*
X5739Y17407D01*
X5735Y17412D01*
X5733Y17414D01*
X5719Y17422D01*
X5702Y17430D01*
X5684Y17438D01*
X5664Y17446D01*
X5619Y17458D01*
X5574Y17469D01*
X5531Y17477D01*
X5513Y17481D01*
X5495Y17483D01*
X5483Y17485D01*
X5470D01*
X5464Y17487D01*
X5462D01*
X5434Y17491D01*
X5413Y17497D01*
X5405Y17499D01*
X5399D01*
X5397Y17501D01*
D02*
G37*
G36*
X22369Y15895D02*
X22357D01*
X22332Y15893D01*
X22307Y15886D01*
X22285Y15877D01*
X22267Y15866D01*
X22252Y15853D01*
X22241Y15843D01*
X22233Y15836D01*
X22232Y15834D01*
X22213Y15810D01*
X22200Y15784D01*
X22189Y15758D01*
X22183Y15732D01*
X22180Y15710D01*
X22176Y15692D01*
Y15684D01*
Y15679D01*
Y15677D01*
Y15675D01*
X22178Y15643D01*
X22182Y15612D01*
X22187Y15581D01*
X22193Y15555D01*
X22198Y15531D01*
X22204Y15514D01*
X22206Y15506D01*
X22207Y15501D01*
X22209Y15499D01*
Y15497D01*
X22222Y15466D01*
X22239Y15436D01*
X22254Y15412D01*
X22270Y15393D01*
X22283Y15377D01*
X22295Y15366D01*
X22302Y15358D01*
X22306Y15356D01*
X22330Y15340D01*
X22352Y15329D01*
X22374Y15319D01*
X22395Y15314D01*
X22411Y15310D01*
X22424Y15308D01*
X22435D01*
X22461Y15310D01*
X22485Y15318D01*
X22506Y15325D01*
X22522Y15336D01*
X22537Y15345D01*
X22546Y15355D01*
X22554Y15360D01*
X22556Y15362D01*
X22570Y15384D01*
X22582Y15410D01*
X22591Y15438D01*
X22596Y15464D01*
X22600Y15486D01*
X22602Y15506D01*
Y15514D01*
Y15519D01*
Y15521D01*
Y15523D01*
X22600Y15549D01*
X22598Y15577D01*
X22593Y15603D01*
X22587Y15625D01*
X22583Y15647D01*
X22578Y15662D01*
X22576Y15673D01*
X22574Y15677D01*
X22559Y15716D01*
X22544Y15749D01*
X22530Y15779D01*
X22515Y15801D01*
X22502Y15819D01*
X22493Y15832D01*
X22485Y15840D01*
X22483Y15842D01*
X22461Y15860D01*
X22439Y15873D01*
X22419Y15882D01*
X22398Y15888D01*
X22382Y15893D01*
X22369Y15895D01*
D02*
G37*
G36*
X13369Y17892D02*
X13354D01*
X13328Y17890D01*
X13303Y17884D01*
X13281Y17873D01*
X13263Y17863D01*
X13248Y17851D01*
X13236Y17843D01*
X13230Y17835D01*
X13228Y17833D01*
X13212Y17808D01*
X13200Y17782D01*
X13189Y17753D01*
X13183Y17727D01*
X13179Y17702D01*
X13177Y17684D01*
Y17676D01*
Y17670D01*
Y17668D01*
Y17666D01*
X13179Y17629D01*
X13183Y17593D01*
X13189Y17558D01*
X13196Y17525D01*
X13204Y17497D01*
X13210Y17477D01*
X13212Y17469D01*
X13214Y17462D01*
X13216Y17458D01*
Y17456D01*
X13230Y17418D01*
X13244Y17383D01*
X13259Y17353D01*
X13273Y17328D01*
X13285Y17310D01*
X13295Y17296D01*
X13301Y17287D01*
X13303Y17285D01*
X13316Y17271D01*
X13330Y17259D01*
X13352Y17241D01*
X13360Y17235D01*
X13369Y17230D01*
X13373Y17226D01*
X13375D01*
X13393Y17218D01*
X13409Y17212D01*
X13428Y17206D01*
X13444Y17204D01*
X13456Y17202D01*
X13466Y17200D01*
X13476D01*
X13503Y17202D01*
X13527Y17208D01*
X13548Y17218D01*
X13564Y17228D01*
X13578Y17239D01*
X13590Y17249D01*
X13596Y17255D01*
X13598Y17257D01*
X13615Y17281D01*
X13627Y17310D01*
X13635Y17338D01*
X13641Y17369D01*
X13645Y17395D01*
X13647Y17416D01*
Y17424D01*
Y17430D01*
Y17434D01*
Y17436D01*
X13645Y17471D01*
X13641Y17507D01*
X13637Y17542D01*
X13629Y17574D01*
X13623Y17603D01*
X13619Y17625D01*
X13617Y17633D01*
X13615Y17639D01*
X13613Y17643D01*
Y17646D01*
X13598Y17688D01*
X13582Y17723D01*
X13564Y17755D01*
X13548Y17780D01*
X13533Y17800D01*
X13521Y17814D01*
X13511Y17825D01*
X13509Y17827D01*
X13482Y17849D01*
X13454Y17865D01*
X13430Y17875D01*
X13405Y17884D01*
X13385Y17888D01*
X13369Y17892D01*
D02*
G37*
G36*
X17928Y15895D02*
X17919D01*
X17893Y15893D01*
X17869Y15886D01*
X17849Y15877D01*
X17830Y15868D01*
X17815Y15856D01*
X17804Y15847D01*
X17797Y15840D01*
X17795Y15838D01*
X17778Y15816D01*
X17765Y15790D01*
X17756Y15764D01*
X17749Y15738D01*
X17745Y15716D01*
X17743Y15699D01*
Y15692D01*
Y15686D01*
Y15684D01*
Y15682D01*
X17745Y15645D01*
X17749Y15608D01*
X17756Y15573D01*
X17762Y15543D01*
X17769Y15518D01*
X17776Y15497D01*
X17778Y15490D01*
X17780Y15484D01*
X17782Y15482D01*
Y15481D01*
X17797Y15445D01*
X17813Y15416D01*
X17830Y15390D01*
X17845Y15369D01*
X17858Y15355D01*
X17869Y15343D01*
X17876Y15336D01*
X17878Y15334D01*
X17901Y15319D01*
X17921Y15308D01*
X17941Y15301D01*
X17960Y15295D01*
X17976Y15292D01*
X17988Y15290D01*
X17999D01*
X18025Y15292D01*
X18049Y15299D01*
X18071Y15308D01*
X18089Y15319D01*
X18104Y15329D01*
X18115Y15338D01*
X18123Y15345D01*
X18125Y15347D01*
X18141Y15371D01*
X18154Y15397D01*
X18163Y15421D01*
X18169Y15447D01*
X18173Y15468D01*
X18176Y15486D01*
Y15497D01*
Y15499D01*
Y15501D01*
X18175Y15534D01*
X18173Y15568D01*
X18162Y15627D01*
X18154Y15655D01*
X18147Y15679D01*
X18139Y15703D01*
X18130Y15723D01*
X18121Y15742D01*
X18113Y15758D01*
X18106Y15773D01*
X18099Y15784D01*
X18093Y15793D01*
X18088Y15801D01*
X18086Y15805D01*
X18084Y15806D01*
X18071Y15821D01*
X18058Y15836D01*
X18028Y15858D01*
X18002Y15873D01*
X17976Y15884D01*
X17952Y15892D01*
X17936Y15893D01*
X17928Y15895D01*
D02*
G37*
G36*
X4315Y17871D02*
X4305D01*
X4276Y17869D01*
X4250Y17861D01*
X4227Y17851D01*
X4207Y17841D01*
X4191Y17829D01*
X4179Y17818D01*
X4170Y17810D01*
X4168Y17808D01*
X4150Y17784D01*
X4136Y17755D01*
X4126Y17727D01*
X4117Y17698D01*
X4113Y17674D01*
X4111Y17656D01*
Y17648D01*
Y17641D01*
Y17639D01*
Y17637D01*
X4113Y17597D01*
X4117Y17556D01*
X4126Y17517D01*
X4132Y17485D01*
X4140Y17456D01*
X4148Y17434D01*
X4150Y17426D01*
X4152Y17420D01*
X4154Y17418D01*
Y17416D01*
X4170Y17377D01*
X4189Y17344D01*
X4207Y17316D01*
X4223Y17294D01*
X4238Y17277D01*
X4250Y17265D01*
X4258Y17257D01*
X4260Y17255D01*
X4284Y17239D01*
X4307Y17226D01*
X4329Y17218D01*
X4349Y17212D01*
X4368Y17208D01*
X4380Y17206D01*
X4392D01*
X4421Y17208D01*
X4447Y17216D01*
X4471Y17226D01*
X4492Y17239D01*
X4508Y17249D01*
X4520Y17259D01*
X4528Y17267D01*
X4530Y17269D01*
X4549Y17296D01*
X4563Y17324D01*
X4573Y17351D01*
X4579Y17379D01*
X4583Y17401D01*
X4587Y17422D01*
Y17434D01*
Y17436D01*
Y17438D01*
X4585Y17475D01*
X4583Y17511D01*
X4571Y17576D01*
X4563Y17607D01*
X4555Y17633D01*
X4547Y17660D01*
X4537Y17682D01*
X4526Y17702D01*
X4518Y17721D01*
X4510Y17737D01*
X4502Y17749D01*
X4496Y17759D01*
X4490Y17768D01*
X4488Y17772D01*
X4486Y17774D01*
X4471Y17790D01*
X4457Y17806D01*
X4425Y17831D01*
X4396Y17847D01*
X4368Y17859D01*
X4341Y17867D01*
X4323Y17869D01*
X4315Y17871D01*
D02*
G37*
G36*
X13868Y22924D02*
X13857D01*
X13814Y22920D01*
X13777Y22911D01*
X13746Y22895D01*
X13717Y22880D01*
X13695Y22864D01*
X13677Y22849D01*
X13668Y22840D01*
X13664Y22835D01*
X13637Y22800D01*
X13617Y22758D01*
X13604Y22715D01*
X13592Y22675D01*
X13588Y22640D01*
X13586Y22622D01*
Y22609D01*
X13584Y22598D01*
Y22589D01*
Y22584D01*
Y22582D01*
X13588Y22524D01*
X13597Y22471D01*
X13608Y22429D01*
X13624Y22391D01*
X13639Y22365D01*
X13650Y22342D01*
X13659Y22331D01*
X13664Y22327D01*
X13695Y22298D01*
X13726Y22276D01*
X13759Y22263D01*
X13790Y22251D01*
X13817Y22245D01*
X13837Y22243D01*
X13846Y22240D01*
X13857D01*
X13899Y22245D01*
X13937Y22254D01*
X13970Y22267D01*
X13997Y22285D01*
X14021Y22300D01*
X14039Y22314D01*
X14048Y22322D01*
X14052Y22327D01*
X14079Y22362D01*
X14096Y22405D01*
X14110Y22447D01*
X14121Y22489D01*
X14125Y22524D01*
X14127Y22540D01*
Y22556D01*
X14130Y22567D01*
Y22576D01*
Y22580D01*
Y22582D01*
X14125Y22640D01*
X14116Y22691D01*
X14105Y22735D01*
X14090Y22771D01*
X14076Y22798D01*
X14063Y22820D01*
X14054Y22831D01*
X14052Y22835D01*
X14021Y22864D01*
X13988Y22886D01*
X13954Y22902D01*
X13923Y22913D01*
X13897Y22920D01*
X13877Y22922D01*
X13868Y22924D01*
D02*
G37*
G36*
X8618D02*
X8606D01*
X8564Y22920D01*
X8527Y22911D01*
X8495Y22895D01*
X8467Y22880D01*
X8444Y22864D01*
X8427Y22849D01*
X8418Y22840D01*
X8413Y22835D01*
X8387Y22800D01*
X8367Y22758D01*
X8353Y22715D01*
X8342Y22675D01*
X8338Y22640D01*
X8336Y22622D01*
Y22609D01*
X8333Y22598D01*
Y22589D01*
Y22584D01*
Y22582D01*
X8338Y22524D01*
X8347Y22471D01*
X8358Y22429D01*
X8373Y22391D01*
X8389Y22365D01*
X8400Y22342D01*
X8409Y22331D01*
X8413Y22327D01*
X8444Y22298D01*
X8475Y22276D01*
X8509Y22263D01*
X8540Y22251D01*
X8566Y22245D01*
X8586Y22243D01*
X8595Y22240D01*
X8606D01*
X8649Y22245D01*
X8686Y22254D01*
X8720Y22267D01*
X8746Y22285D01*
X8771Y22300D01*
X8788Y22314D01*
X8797Y22322D01*
X8802Y22327D01*
X8828Y22362D01*
X8846Y22405D01*
X8860Y22447D01*
X8871Y22489D01*
X8875Y22524D01*
X8877Y22540D01*
Y22556D01*
X8880Y22567D01*
Y22576D01*
Y22580D01*
Y22582D01*
X8875Y22640D01*
X8866Y22691D01*
X8855Y22735D01*
X8840Y22771D01*
X8826Y22798D01*
X8813Y22820D01*
X8804Y22831D01*
X8802Y22835D01*
X8771Y22864D01*
X8737Y22886D01*
X8704Y22902D01*
X8673Y22913D01*
X8646Y22920D01*
X8626Y22922D01*
X8618Y22924D01*
D02*
G37*
G36*
X11077Y22937D02*
X11062D01*
X11028Y22935D01*
X11000Y22926D01*
X10973Y22915D01*
X10951Y22904D01*
X10933Y22891D01*
X10920Y22880D01*
X10911Y22871D01*
X10909Y22869D01*
X10889Y22842D01*
X10871Y22811D01*
X10860Y22778D01*
X10851Y22746D01*
X10846Y22720D01*
X10844Y22695D01*
X10842Y22687D01*
Y22682D01*
Y22678D01*
Y22675D01*
X11281D01*
X11279Y22718D01*
X11273Y22755D01*
X11264Y22789D01*
X11250Y22815D01*
X11239Y22838D01*
X11228Y22853D01*
X11222Y22864D01*
X11219Y22866D01*
X11195Y22891D01*
X11168Y22909D01*
X11142Y22920D01*
X11117Y22929D01*
X11095Y22933D01*
X11077Y22937D01*
D02*
G37*
G36*
X4217Y15886D02*
X4204D01*
X4174Y15884D01*
X4148Y15877D01*
X4126Y15869D01*
X4106Y15858D01*
X4091Y15849D01*
X4080Y15840D01*
X4072Y15832D01*
X4070Y15830D01*
X4052Y15808D01*
X4039Y15786D01*
X4030Y15762D01*
X4024Y15740D01*
X4019Y15719D01*
X4017Y15703D01*
Y15692D01*
Y15690D01*
Y15688D01*
X4019Y15655D01*
X4020Y15623D01*
X4032Y15564D01*
X4039Y15538D01*
X4048Y15512D01*
X4058Y15490D01*
X4067Y15468D01*
X4076Y15449D01*
X4085Y15432D01*
X4093Y15418D01*
X4102Y15405D01*
X4108Y15395D01*
X4113Y15388D01*
X4115Y15384D01*
X4117Y15382D01*
X4130Y15368D01*
X4145Y15355D01*
X4174Y15332D01*
X4202Y15318D01*
X4230Y15306D01*
X4254Y15301D01*
X4274Y15297D01*
X4282Y15295D01*
X4291D01*
X4320Y15297D01*
X4346Y15305D01*
X4369Y15314D01*
X4389Y15325D01*
X4404Y15334D01*
X4417Y15343D01*
X4424Y15351D01*
X4426Y15353D01*
X4444Y15377D01*
X4457Y15403D01*
X4467Y15429D01*
X4472Y15455D01*
X4476Y15477D01*
X4480Y15495D01*
Y15503D01*
Y15508D01*
Y15510D01*
Y15512D01*
X4478Y15542D01*
X4474Y15573D01*
X4469Y15603D01*
X4463Y15630D01*
X4457Y15653D01*
X4452Y15671D01*
X4450Y15679D01*
X4448Y15684D01*
X4446Y15686D01*
Y15688D01*
X4432Y15721D01*
X4417Y15751D01*
X4400Y15777D01*
X4383Y15797D01*
X4370Y15814D01*
X4359Y15825D01*
X4350Y15832D01*
X4348Y15834D01*
X4324Y15851D01*
X4298Y15864D01*
X4274Y15873D01*
X4252Y15880D01*
X4233Y15884D01*
X4217Y15886D01*
D02*
G37*
G36*
X8398D02*
X8385D01*
X8355Y15884D01*
X8329Y15877D01*
X8307Y15869D01*
X8287Y15858D01*
X8272Y15849D01*
X8261Y15840D01*
X8253Y15832D01*
X8252Y15830D01*
X8233Y15808D01*
X8220Y15786D01*
X8211Y15762D01*
X8205Y15740D01*
X8200Y15719D01*
X8198Y15703D01*
Y15692D01*
Y15690D01*
Y15688D01*
X8200Y15655D01*
X8202Y15623D01*
X8213Y15564D01*
X8220Y15538D01*
X8229Y15512D01*
X8239Y15490D01*
X8248Y15468D01*
X8257Y15449D01*
X8266Y15432D01*
X8274Y15418D01*
X8283Y15405D01*
X8289Y15395D01*
X8294Y15388D01*
X8296Y15384D01*
X8298Y15382D01*
X8311Y15368D01*
X8326Y15355D01*
X8355Y15332D01*
X8383Y15318D01*
X8411Y15306D01*
X8435Y15301D01*
X8455Y15297D01*
X8463Y15295D01*
X8472D01*
X8501Y15297D01*
X8527Y15305D01*
X8550Y15314D01*
X8570Y15325D01*
X8585Y15334D01*
X8598Y15343D01*
X8605Y15351D01*
X8607Y15353D01*
X8626Y15377D01*
X8639Y15403D01*
X8648Y15429D01*
X8653Y15455D01*
X8657Y15477D01*
X8661Y15495D01*
Y15503D01*
Y15508D01*
Y15510D01*
Y15512D01*
X8659Y15542D01*
X8655Y15573D01*
X8650Y15603D01*
X8644Y15630D01*
X8639Y15653D01*
X8633Y15671D01*
X8631Y15679D01*
X8629Y15684D01*
X8627Y15686D01*
Y15688D01*
X8613Y15721D01*
X8598Y15751D01*
X8581Y15777D01*
X8564Y15797D01*
X8551Y15814D01*
X8540Y15825D01*
X8531Y15832D01*
X8529Y15834D01*
X8505Y15851D01*
X8479Y15864D01*
X8455Y15873D01*
X8433Y15880D01*
X8414Y15884D01*
X8398Y15886D01*
D02*
G37*
G36*
X17156Y20801D02*
X16953D01*
X16925Y20799D01*
X16898D01*
X16876Y20797D01*
X16856D01*
X16836Y20795D01*
X16820D01*
X16796Y20790D01*
X16778Y20788D01*
X16767Y20786D01*
X16765D01*
X16734Y20777D01*
X16707Y20766D01*
X16683Y20755D01*
X16660Y20742D01*
X16645Y20730D01*
X16632Y20722D01*
X16625Y20715D01*
X16623Y20713D01*
X16603Y20690D01*
X16585Y20666D01*
X16569Y20642D01*
X16556Y20619D01*
X16547Y20597D01*
X16541Y20579D01*
X16536Y20568D01*
X16534Y20566D01*
Y20564D01*
X16523Y20524D01*
X16514Y20482D01*
X16510Y20435D01*
X16505Y20391D01*
X16503Y20353D01*
X16501Y20335D01*
Y20320D01*
Y20309D01*
Y20300D01*
Y20293D01*
Y20291D01*
X16503Y20229D01*
X16505Y20171D01*
X16512Y20124D01*
X16516Y20084D01*
X16523Y20051D01*
X16525Y20038D01*
X16529Y20029D01*
X16532Y20020D01*
Y20013D01*
X16534Y20011D01*
Y20009D01*
X16547Y19973D01*
X16558Y19942D01*
X16574Y19918D01*
X16585Y19898D01*
X16596Y19882D01*
X16605Y19871D01*
X16612Y19865D01*
X16614Y19862D01*
X16634Y19847D01*
X16654Y19834D01*
X16674Y19822D01*
X16694Y19814D01*
X16712Y19807D01*
X16725Y19802D01*
X16734Y19798D01*
X16738D01*
X16763Y19794D01*
X16791Y19791D01*
X16823Y19787D01*
X16854D01*
X16882Y19785D01*
X17156D01*
Y20801D01*
D02*
G37*
G36*
X5230Y20826D02*
X5221D01*
X5201Y20824D01*
X5183Y20821D01*
X5168Y20815D01*
X5154Y20808D01*
X5143Y20801D01*
X5134Y20797D01*
X5130Y20793D01*
X5128Y20790D01*
X5114Y20775D01*
X5101Y20755D01*
X5090Y20733D01*
X5079Y20710D01*
X5072Y20688D01*
X5066Y20670D01*
X5063Y20659D01*
X5061Y20657D01*
Y20655D01*
X5057Y20635D01*
X5052Y20611D01*
X5048Y20582D01*
X5043Y20553D01*
X5039Y20493D01*
X5037Y20431D01*
X5035Y20402D01*
Y20373D01*
X5032Y20349D01*
Y20326D01*
Y20309D01*
Y20293D01*
Y20284D01*
Y20282D01*
Y20233D01*
X5035Y20187D01*
Y20144D01*
X5037Y20107D01*
X5039Y20071D01*
X5041Y20040D01*
X5046Y20011D01*
X5048Y19987D01*
X5050Y19965D01*
X5055Y19947D01*
X5057Y19931D01*
X5059Y19918D01*
X5061Y19909D01*
Y19900D01*
X5063Y19898D01*
Y19896D01*
X5072Y19865D01*
X5083Y19840D01*
X5094Y19818D01*
X5103Y19802D01*
X5112Y19789D01*
X5121Y19780D01*
X5126Y19776D01*
X5128Y19774D01*
X5143Y19763D01*
X5159Y19754D01*
X5174Y19749D01*
X5190Y19745D01*
X5201Y19743D01*
X5212Y19740D01*
X5221D01*
X5241Y19743D01*
X5259Y19745D01*
X5274Y19751D01*
X5288Y19758D01*
X5299Y19763D01*
X5308Y19769D01*
X5312Y19771D01*
X5314Y19774D01*
X5328Y19789D01*
X5341Y19809D01*
X5352Y19831D01*
X5363Y19854D01*
X5370Y19874D01*
X5376Y19891D01*
X5379Y19902D01*
X5381Y19907D01*
X5385Y19929D01*
X5390Y19953D01*
X5394Y19980D01*
X5396Y20009D01*
X5401Y20071D01*
X5403Y20133D01*
X5405Y20162D01*
Y20191D01*
X5407Y20215D01*
Y20238D01*
Y20255D01*
Y20271D01*
Y20280D01*
Y20282D01*
Y20331D01*
X5405Y20377D01*
Y20417D01*
X5403Y20457D01*
X5401Y20491D01*
X5399Y20524D01*
X5396Y20551D01*
X5392Y20577D01*
X5390Y20599D01*
X5387Y20617D01*
X5385Y20633D01*
X5383Y20646D01*
X5381Y20655D01*
Y20664D01*
X5379Y20666D01*
Y20668D01*
X5370Y20699D01*
X5359Y20726D01*
X5350Y20746D01*
X5339Y20764D01*
X5330Y20775D01*
X5323Y20784D01*
X5319Y20788D01*
X5316Y20790D01*
X5301Y20801D01*
X5283Y20810D01*
X5268Y20817D01*
X5252Y20821D01*
X5241Y20824D01*
X5230Y20826D01*
D02*
G37*
G36*
X20614Y20801D02*
X20259D01*
X20239Y20799D01*
X20190D01*
X20170Y20797D01*
X20157D01*
X20150Y20795D01*
X20148D01*
X20121Y20788D01*
X20097Y20779D01*
X20077Y20770D01*
X20061Y20759D01*
X20048Y20748D01*
X20037Y20742D01*
X20033Y20735D01*
X20030Y20733D01*
X20017Y20715D01*
X20006Y20693D01*
X19999Y20673D01*
X19993Y20653D01*
X19990Y20635D01*
X19988Y20622D01*
Y20613D01*
Y20608D01*
X19990Y20584D01*
X19993Y20562D01*
X19999Y20542D01*
X20004Y20524D01*
X20010Y20511D01*
X20017Y20502D01*
X20019Y20495D01*
X20021Y20493D01*
X20035Y20477D01*
X20048Y20464D01*
X20077Y20444D01*
X20088Y20437D01*
X20099Y20433D01*
X20106Y20429D01*
X20108D01*
X20119Y20426D01*
X20137Y20422D01*
X20155Y20420D01*
X20175Y20417D01*
X20221Y20415D01*
X20268Y20413D01*
X20312Y20411D01*
X20614D01*
Y20801D01*
D02*
G37*
G36*
X15366Y15886D02*
X15353D01*
X15323Y15884D01*
X15297Y15877D01*
X15275Y15869D01*
X15255Y15858D01*
X15240Y15849D01*
X15229Y15840D01*
X15221Y15832D01*
X15219Y15830D01*
X15201Y15808D01*
X15188Y15786D01*
X15179Y15762D01*
X15173Y15740D01*
X15167Y15719D01*
X15166Y15703D01*
Y15692D01*
Y15690D01*
Y15688D01*
X15167Y15655D01*
X15169Y15623D01*
X15180Y15564D01*
X15188Y15538D01*
X15197Y15512D01*
X15206Y15490D01*
X15216Y15468D01*
X15225Y15449D01*
X15234Y15432D01*
X15242Y15418D01*
X15251Y15405D01*
X15256Y15395D01*
X15262Y15388D01*
X15264Y15384D01*
X15266Y15382D01*
X15279Y15368D01*
X15293Y15355D01*
X15323Y15332D01*
X15351Y15318D01*
X15379Y15306D01*
X15403Y15301D01*
X15423Y15297D01*
X15430Y15295D01*
X15440D01*
X15469Y15297D01*
X15495Y15305D01*
X15517Y15314D01*
X15538Y15325D01*
X15553Y15334D01*
X15566Y15343D01*
X15573Y15351D01*
X15575Y15353D01*
X15593Y15377D01*
X15606Y15403D01*
X15616Y15429D01*
X15621Y15455D01*
X15625Y15477D01*
X15629Y15495D01*
Y15503D01*
Y15508D01*
Y15510D01*
Y15512D01*
X15627Y15542D01*
X15623Y15573D01*
X15617Y15603D01*
X15612Y15630D01*
X15606Y15653D01*
X15601Y15671D01*
X15599Y15679D01*
X15597Y15684D01*
X15595Y15686D01*
Y15688D01*
X15580Y15721D01*
X15566Y15751D01*
X15549Y15777D01*
X15532Y15797D01*
X15519Y15814D01*
X15508Y15825D01*
X15499Y15832D01*
X15497Y15834D01*
X15473Y15851D01*
X15447Y15864D01*
X15423Y15873D01*
X15401Y15880D01*
X15382Y15884D01*
X15366Y15886D01*
D02*
G37*
G36*
X11079Y20437D02*
X11064D01*
X11031Y20435D01*
X11002Y20426D01*
X10975Y20415D01*
X10953Y20404D01*
X10935Y20391D01*
X10922Y20380D01*
X10913Y20371D01*
X10911Y20369D01*
X10891Y20342D01*
X10873Y20311D01*
X10862Y20278D01*
X10853Y20246D01*
X10849Y20220D01*
X10846Y20195D01*
X10844Y20187D01*
Y20182D01*
Y20178D01*
Y20175D01*
X11284D01*
X11281Y20218D01*
X11275Y20255D01*
X11266Y20289D01*
X11253Y20315D01*
X11242Y20338D01*
X11230Y20353D01*
X11224Y20364D01*
X11222Y20366D01*
X11197Y20391D01*
X11170Y20409D01*
X11144Y20420D01*
X11119Y20429D01*
X11097Y20433D01*
X11079Y20437D01*
D02*
G37*
%LPD*%
D84*
X15650Y-900D02*
X15775Y-1025D01*
X21415Y-1035D02*
X21850Y-600D01*
X15650Y-900D02*
Y1365D01*
X21850D01*
Y-600D02*
Y1365D01*
X15800Y-1035D02*
X21415D01*
D157*
X14684Y1200D02*
X15017D01*
X14850D01*
Y367D01*
X15017Y200D01*
X15183D01*
X15350Y367D01*
X14350Y1033D02*
X14184Y1200D01*
X13850D01*
X13684Y1033D01*
Y866D01*
X13850Y700D01*
X14017D01*
X13850D01*
X13684Y533D01*
Y367D01*
X13850Y200D01*
X14184D01*
X14350Y367D01*
M02*
